<?xml version="1.0" encoding="utf-8"?>
<!-- Generator: Adobe Illustrator 21.0.0, SVG Export Plug-In . SVG Version: 6.00 Build 0)  -->
<svg version="1.1" id="Layer_1" xmlns="http://www.w3.org/2000/svg" xmlns:xlink="http://www.w3.org/1999/xlink" x="0px" y="0px"
	 viewBox="0 0 44.1 44.5" style="enable-background:new 0 0 44.1 44.5;" xml:space="preserve">
<style type="text/css">
	.st0{fill:#525FE8;}
	.st1{fill:none;stroke:#FFFFFF;stroke-miterlimit:10;}
	.st2{fill:#FFFFFF;}
</style>
<g>
	<path class="st0" d="M29.9,44c-9.5,0-9.5-0.5-19.1-0.5C5.3,43.6,1,38.7,1,33.1c0-9.5-0.5-9.5-0.5-19.1c0-7.4,6.3-12.8,13.8-12.8
		c7.8,0,7.8-0.8,15.6-0.8c7.4,0,13.7,6.1,13.7,13.6c0,7.8-0.7,7.8-0.7,15.6C42.9,37.1,37.3,44,29.9,44z"/>
	<path class="st1" d="M29.9,44c-9.5,0-9.5-0.5-19.1-0.5C5.3,43.6,1,38.7,1,33.1c0-9.5-0.5-9.5-0.5-19.1c0-7.4,6.3-12.8,13.8-12.8
		c7.8,0,7.8-0.8,15.6-0.8c7.4,0,13.7,6.1,13.7,13.6c0,7.8-0.7,7.8-0.7,15.6C42.9,37.1,37.3,44,29.9,44z"/>
</g>
<g>
	<g>
		<g>
			<path class="st2" d="M22.7,31.9c0,0,0,0.1,0,0.3c0,0.2-0.1,0.4-0.1,0.6c-0.1,0.2-0.2,0.4-0.3,0.7c-0.1,0.2-0.2,0.6-0.5,0.7
				c-0.2,0.2-0.6,0.3-0.9,0.4s-0.8,0.1-1.3,0.1c-0.4,0-0.7-0.3-1-0.3c-0.3-0.1-0.6-0.2-0.8-0.3c-0.2-0.2-0.4-0.3-0.6-0.6
				c-0.1-0.3-0.5-0.6-0.5-1c0-0.4,0.4-0.7,0.5-1c0.1-0.3,0.4-0.5,0.6-0.8c0.2-0.3,0.4-0.5,0.8-0.7c0.4-0.2,0.8-0.4,1.3-0.4
				c0.9,0,1.7,0.1,2.2,0.6C22.5,30.4,22.7,31.1,22.7,31.9z M22.1,25.5c-0.2,0.5-0.4,1-0.7,1.2c-0.3,0.3-0.7,0.4-1.1,0.4
				c-0.4,0-0.7-0.1-1-0.3c-0.3-0.2-0.6-0.5-0.6-0.9c0-1,0.3-1.9,0.6-2.6c0.3-0.7,0.8-1.3,1.3-1.9c0.5-0.6,1.1-0.9,1.7-1.4
				s1-1,1.5-1.5c0.5-0.5,0.8-1.1,1.1-1.7c0.3-0.6,0.2-1.4,0.2-2.2c0-0.5,0.2-0.9,0.1-1.2s-0.3-0.7-0.6-0.9s-0.7-0.3-1-0.4
				c-0.3-0.1-0.7,0.1-1,0.1c-0.2,0-0.4,0.2-0.7,0.3c-0.3,0.2-0.6,0.1-0.9,0.4c-0.2,0.2-0.5,0.4-0.7,0.6c-0.2,0.2,0,0.6,0,0.7
				c-0.2,0.2-0.5,0.4-0.7,0.5C19.3,14.9,19,15,18.8,15c-0.2,0-0.4-0.3-0.6-0.4c-0.2-0.1-0.6-0.1-0.7-0.3c-0.2-0.2-0.3-0.5-0.4-0.7
				c-0.1-0.3-0.1-0.6-0.1-0.9c0-0.2,0.2-0.5,0.4-0.8c0.3-0.5,0.8-0.8,1.2-1.2c0.4-0.4,1-0.5,1.5-0.7c0.5-0.2,1-0.5,1.5-0.6
				c0.5-0.1,1.1-0.2,1.6-0.2c0.7,0,1.4,0,2.1,0.2s1.4,0.5,2,0.9c0.6,0.4,1.1,1.1,1.5,1.7c0.4,0.7,0.6,1.5,0.6,2.5
				c0,1.1-0.2,2.1-0.5,2.9c-0.3,0.8-0.5,1.6-1,2.2s-1.2,0.8-1.8,1.3c-0.5,0.5-0.8,1.2-1.3,1.7c-0.5,0.4-1.2,0.7-1.7,1.1
				C22.6,24.2,22.4,24.9,22.1,25.5z"/>
		</g>
	</g>
</g>
</svg>
