<?xml version="1.0" encoding="utf-8"?>
<!-- Generator: Adobe Illustrator 21.0.0, SVG Export Plug-In . SVG Version: 6.00 Build 0)  -->
<svg version="1.1" id="Layer_1" xmlns="http://www.w3.org/2000/svg" xmlns:xlink="http://www.w3.org/1999/xlink" x="0px" y="0px"
	 viewBox="0 0 11.1 13.3" style="enable-background:new 0 0 11.1 13.3;" xml:space="preserve">
<style type="text/css">
	.st0{fill:#FFFFFF;}
</style>
<g id="anker">
	<g>
		<g>
			<path class="st0" d="M6.4,2.3C6.4,2.3,6.4,2.3,6.4,2.3c-0.3,0-0.6,0-0.9,0c0.5,1.1,0.1,3,0.1,4.2c0,1.8,0.1,3.7,0.1,5.5
				c0.3,0,0.7,0,1,0c0-0.2,0-0.3,0-0.5c0-0.6-1-0.6-1,0c0,0.2,0,0.3,0,0.5c0,0.6,1,0.6,1,0c0-2.2-0.1-4.4-0.1-6.5
				c0-1.2,0.2-2.7-0.3-3.7C6.2,1.5,5.5,1.6,5.4,2c0,0,0,0.1,0,0.1C5.3,2.7,6.3,3,6.4,2.3L6.4,2.3z"/>
		</g>
	</g>
	<g>
		<g>
			<path class="st0" d="M2.2,7.2C2.2,7.2,2.2,7.2,2.2,7.2c-0.3-0.1-0.7-0.1-1-0.1c0.1,3,1.6,6.3,5.1,6.2c1.3-0.1,2.1-0.9,2.8-2
				C9.5,10.7,9.8,10,10,9.3c0.2-0.6,0.2-1.6,0.5-2.1c-0.2,0.1-0.4,0.2-0.6,0.2c0,0-0.1-0.1-0.1-0.1c0.3,0.6,1.2,0,0.9-0.5
				c-0.1-0.2-0.3-0.3-0.5-0.4c-0.2-0.1-0.5,0-0.6,0.2C8.7,8.2,9.1,10,7.7,11.5c-1.1,1.2-3,0.9-4.2-0.2C2.5,10.2,2.2,8.6,2.2,7.2
				c0-0.7-1-0.7-1-0.1c0,0,0,0,0,0.1C1.2,7.8,2.2,7.8,2.2,7.2L2.2,7.2z"/>
		</g>
	</g>
	<g>
		<g>
			<path class="st0" d="M8.6,8.3c0.6,0,1.3,0.2,1.9,0.3c0.3,0.1,0.7-0.1,0.6-0.5c0-0.7-0.2-1.6-1.1-1.7C9.2,6.2,8.1,7,8.1,7.9
				c0,0.4,0.4,0.6,0.8,0.4C9,8.2,9.6,7.9,9.6,7.7c0.1-0.1,0.2-0.3,0.2-0.4C10,7.2,9.5,7,9.5,7C9.4,7.3,9.3,7.7,9.2,8
				c0.2,0,0.3,0.1,0.5,0.2c0-0.3,0.1-0.7,0.1-1c0,0-0.1,0-0.1,0c-0.6,0-0.6,1,0,1c0,0,0.1,0,0.1,0c0.6,0,0.6-0.8,0.1-1
				C9.8,7.1,9.6,7,9.5,7C8.8,6.9,8.6,7.8,9.2,8c0.3,0.1,0.6,0.4,1,0.3c0.4-0.1,0.5-0.6,0.3-0.9c-0.2-0.3-0.6-0.6-1-0.5
				C9.1,6.9,8.7,7.2,8.4,7.4c0.3,0.1,0.5,0.3,0.8,0.4c0-0.3,0.6-0.6,0.8-0.4c0.2,0.1,0.2,0.5,0.2,0.7c0.2-0.2,0.4-0.3,0.6-0.5
				C10,7.5,9.3,7.3,8.6,7.3C8,7.3,8,8.3,8.6,8.3L8.6,8.3z"/>
		</g>
	</g>
	<g>
		<g>
			<path class="st0" d="M0.5,6.8C0.5,6.8,0.5,6.8,0.5,6.8c-0.7,0-0.7,1,0,1c0.4,0,0.9,0.1,1.3,0c0.2,0,0.4,0,0.6,0
				c0.2,0,0.3-0.1,0.5-0.1c0.5,0,0.7-0.7,0.3-0.9C2.8,6.6,2.7,6.2,2.4,6C2,5.8,1.6,5.7,1.2,5.8c-0.7,0.1-1.1,1.1-1,1.7
				C0.4,7.9,1,7.9,1.2,7.6c0.2-0.2,0.7-0.8,1-0.4C2.1,7.1,2,7,2,6.9c0,0,0,0.1,0,0.1c0-0.1,0.1-0.2,0.1-0.4c0.1,0,0.1,0,0,0
				C2,6.5,1.9,6.5,1.8,6.5C1.7,6.4,1.5,6.4,1.3,6.4C1,6.4,0.7,6.7,0.9,7C1,7.4,1.3,7.4,1.6,7.6C1.7,7.3,1.7,7,1.8,6.7
				c-0.1,0-0.3,0-0.4,0C1.6,6.8,1.8,7,1.9,7.2c0,0,0,0,0,0.1C2.2,6.7,1.4,6.2,1,6.7C1,6.9,0.9,7,0.9,7.2c0,0.3,0.2,0.5,0.5,0.5
				c0.1,0,0.3,0,0.4,0c0.5,0,0.7-0.7,0.3-0.9C2,6.7,1.9,6.7,1.9,6.6c-0.2,0-0.1-0.1,0,0.1C1.7,7,1.5,7.2,1.3,7.4
				c0.2,0,0.4,0.1,0.6,0.2c0.2,0,0.5,0,0.7-0.1c0.4-0.2,0.5-0.7,0.2-1C2.5,6.1,1.9,6.1,1.5,6.1C0.9,6.3,0.6,6.6,0.3,7.1
				c0.3,0,0.6,0.1,0.9,0.1c0,0.1,0,0,0,0c0.1-0.1,0.1-0.3,0.1-0.4c0,0,0.1-0.1,0-0.1c0.1,0,0.3,0,0.4,0.1C2.1,7,2.2,7.4,2.6,7.6
				C2.6,7.3,2.7,7,2.8,6.7c-0.3,0-0.7,0.1-1,0.1C1.3,6.8,0.9,6.8,0.5,6.8c0,0.3,0,0.7,0,1c0,0,0,0,0,0C1.2,7.8,1.2,6.8,0.5,6.8
				L0.5,6.8z"/>
		</g>
	</g>
	<g>
		<g>
			<path class="st0" d="M6.1,0c-1,0.1-1.4,0.9-1.5,1.9C4.6,2.7,5.1,3.7,6.1,3.4c0.8-0.3,1.2-1.6,0.7-2.2c-0.5-0.7-1.6-1.1-2-0.1
				C4.5,1.9,4.6,3,5.6,3.2C6.5,3.3,7.2,2.3,7,1.5C6.9,1.1,6.6,0.8,6.2,0.7C5.8,0.5,5.4,0.7,5.1,1.1C4.6,1.7,4.4,2.9,5.5,2.9
				c0.7,0,1.7-1,1-1.6C6.1,1,5.6,1.2,5.3,1.5C4.9,1.9,5.1,2.3,5.5,2.7c0.3,0.4,0.8,0,0.9-0.4c0,0,0-0.1,0-0.1c0.1-0.6-0.9-0.6-1,0
				c0,0,0,0.1,0,0.1C5.6,2.3,5.9,2.1,6.2,2C6.1,1.9,6.1,1.9,6.1,2c0,0.3-0.1,0.2-0.4-0.3c0,0-0.1,0.1-0.1,0.2c0,0.5,0.2-0.2,0.4-0.3
				c0.2,0,0.1,0.3,0,0.4C5.6,2.4,5.6,1.8,5.7,1.6c0.1-0.2,0-0.1,0.1,0C5.9,1.7,6,1.7,6,1.9C6,2,5.9,2.6,5.7,2.4
				c-0.1-0.1,0-0.6,0-0.7C5.7,1.4,5.8,1,6.1,1C6.8,1,6.8,0,6.1,0L6.1,0z"/>
		</g>
	</g>
	<g>
		<g>
			<path class="st0" d="M4.3,5.9C4.3,5.8,4.3,5.8,4.3,5.9C4.2,5.9,4.1,6,4,6.1c0.6-0.2,1.5,0,2.1-0.1C6.9,6,7.6,5.9,8.4,5.9
				c0.6,0,0.6-1,0-1c0,0-0.1,0-0.1,0c-0.6,0-0.6,1,0,1c0,0,0.1,0,0.1,0c0-0.3,0-0.7,0-1C7.5,4.9,6.7,5,5.8,5.1
				C5.1,5.1,4.4,5,3.7,5.2c-0.2,0-0.3,0.2-0.3,0.3c0,0,0,0,0,0.1C3.2,6.2,4.2,6.5,4.3,5.9L4.3,5.9z"/>
		</g>
	</g>
</g>
</svg>
