<?xml version="1.0" encoding="utf-8"?>
<!-- Generator: Adobe Illustrator 21.0.0, SVG Export Plug-In . SVG Version: 6.00 Build 0)  -->
<svg version="1.1" id="Layer_1" xmlns="http://www.w3.org/2000/svg" xmlns:xlink="http://www.w3.org/1999/xlink" x="0px" y="0px"
	 viewBox="0 0 601.8 478.2" style="enable-background:new 0 0 601.8 478.2;" xml:space="preserve">
<style type="text/css">
	.st0{fill:#525FE8;}
</style>
<g>
	<g>
		<path class="st0" d="M51.4,460.5c5.2-8.4,3.5-17.8,4.2-27c0.6-8.3,1.6-16.6,1.9-24.9c0.6-15.4-1-31.1-2-46.5c-1-16-1.5-32-2.2-48
			c-0.6-14.9-1.3-29.7-1.3-44.6c0-7.3-0.5-14.8,0.1-22.1c0.1-1.7,0.2-3.8,0.6-5.5c-1.7,6.5-0.1,0.9,0.1-0.7
			c0.4-3.2,0.7-7.1,1.4-10.4c-1.5,7.1,0.4-1.5,0.6-2.8c3.1-15,5.6-30.2,9.6-44.9c4-14.9,7.2-31.3,6.7-46.8
			c-0.3-9.1-2.4-18.3-3.8-27.3c-1-6.6,0.5,5.5-0.1-1.1c-0.2-1.9-0.4-3.9-0.6-5.8c-0.3-4.1-0.5-8.2-0.9-12.2
			c-0.4-3.4-0.9-6.7-1.4-10.1c1.2,7.4,0.5,2.3,0.5,0.5c-0.1-5.1-0.8-10.1-1.5-15.2c-0.5-3.5,0.9,1.4,0.3,2.3c0.4-0.7,0-3.7,0-4.6
			c0-4,0.1-8,0-11.9c-0.1-5.2-1.4,5.9,0,0.8c1.4-5.1-3.1,4.7-0.3,0.4c0.7-1.1,1.6-2.3,2.2-3.5c-2.1,2-4.2,4.1-6.2,6.1
			c-8.9,1.8-11.2,2.6-6.7,2.5c8,0.6,16.4-0.9,24.3-1.3c15.1-0.9,30.2-1.8,45.4-2c15-0.2,29.9-1.5,44.9-1.7c16-0.2,32.1,0.6,48.1,0
			c15-0.5,29.9-0.6,44.9-0.6c15.9,0,31.8,0.7,47.6,1.5c15.4,0.8,30.8,2.6,46.3,2.5c16.1-0.1,32.1-0.9,48.1-1.6
			c15.2-0.6,30.4-0.2,45.5-1.5c7.9-0.7,15.9-1.2,23.8-1.3c7.8-0.2,15.5-0.9,23.3-1.2c3.8-0.1,7.7-0.1,11.5,0.1
			c1.3,0.1,7.8,0.8,0.9-0.1c1.9,0.2,3.7,0.6,5.5,0.8c8,1.2,16,2.2,23.8,4.3c1.8,0.5,3.6,1,5.3,1.6c0.6,0.2,1.2,0.4,1.8,0.6
			c2.7,1,2.3,0.9-1.2-0.5c0.2-0.2,3.9,2.3,4.2,2.5c4.6,2.7-2.8-2.8-0.5-0.4c0.3,0.3,3,2.9,3,2.9c-0.7-0.9-1.3-1.8-2-2.7
			c1.3,2.3,1.1,1.6-0.6-2.1c-0.1,0.3,0.9,3.9,1.1,4.3c-0.5-4.3-0.7-4.9-0.4-1.8c0.1,1.3,0.1,2.5,0.1,3.8c0,7.7-0.3,15.1,0.7,22.8
			c0.4,3.5,0.9,7,1.4,10.4c1,6.5-0.5-5.6,0.1,0.9c0.4,4.5,1,9,1.4,13.5c1.4,15.6,0.6,31.4,0.7,47.1c0,6.9,1.4,15.7-0.6,22.4
			c1.9-6.3,0.1-1-0.2,0.6c-0.3,1.8-0.7,3.6-1,5.5c-0.7,3.7-1.6,7.5-2.4,11.2c-1.6,7.4-3.3,14.9-4.4,22.4c-0.8,5.3-1.2,10.7-2.1,16
			c1.2-6.8,0-0.4-0.2,0.8c-0.4,2.4-0.9,4.9-1.4,7.3c-3.2,16.1-6.2,32.4-5.9,48.8c0.1,7.3,0.7,14.7,1,22.1c0.3,8.1,0.8,16.1,1.8,24.2
			c0.9,7.1,1.4,14.1,1.9,21.2c0.1,2,0.4,3.9,0.6,5.8c0.3,2.2,0.6,4.4,0.9,6.6c-0.5-3.7-0.6-4.1-0.3-1.3c0.2,4.2,0.5,8.4,0.5,12.6
			c0.1,15.2,1.5,30.3,1.7,45.5c0,1.2-0.7,8.2,0,8.9c0.2-1.2,0.4-2.4,0.5-3.5c-0.7,2.7-0.3,2,1.1-2c0.8-1,1.5-2.1,2.3-3.1
			c3.4-2.4,4-3,1.8-1.6c-3.9,2.5,5.5-1,1.2-0.6c-0.6,0.2-1.2,0.3-1.8,0.5c-2.8,0.5-2.4,0.5,1.1-0.1c-0.9,0.6-4.5,0.2-5.6,0.2
			c-2.2,0-5.3,0.2-7.4-0.6c1,0.1,2,0.3,2.9,0.4c-1.3-0.2-2.5-0.4-3.8-0.6c-1.9-0.3-3.9-0.6-5.8-0.9c-3.8-0.6-7.7-1.2-11.6-1.7
			c-9.3-1.3-18.6-2.6-27.9-3.3c-15.9-1.2-31.9-2.6-47.8-3.2c-15.5-0.6-31.1-0.1-46.6-1.1c-15.9-1-31.7-1.9-47.6-2.3
			c-31.5-0.8-62.6-4.9-94.2-3.6c-33.4,1.3-66.4,3.4-99.5,8.4c-1.9,0.3-3.8,0.6-5.7,0.8c6.8-0.7,0.3-0.1-0.9,0
			c-3.8,0.4-7.6,0.6-11.4,0.8c-8.2,0.4-16.4,0.7-24.7,0.9c-15.3,0.3-30.7,0.1-46,0.1c-3.9,0-7.8,0-11.6,0c-1.7,0-3.3,0-4.9,0.2
			c-2.2,0.3-4.4,0.6-6.6,0.9c3.8-0.4,4.2-0.5,1.4-0.5c-3.3-0.2-6.8-0.1-10.1,0.1c-6.8,0.4,10.6,4.6,6.4,1.7
			c-4.1-2.7-8.9-3.2-13.6-3.5c0,16.7,0,33.3,0,50c1,0.1,1.9,0.1,2.9-0.1c10.2-1.2,18.6-5.3,22.8-15.4c4.2-10,1.3-19.2-5.2-27.3
			c-0.1-0.2-0.2-0.3-0.4-0.5c-3.7-4.7-12-7.3-17.7-7.3c-6.1,0-13.5,2.7-17.7,7.3c-4.4,4.8-7.6,11-7.3,17.7c0.3,7.1,3,12.2,7.3,17.7
			c0.1,0.2,0.2,0.3,0.4,0.5c5.9-14.2,11.8-28.5,17.7-42.7c-1,0.2-1.9,0.2-2.9,0.1c-13.1-0.8-25.6,12-25,25c0.6,14.2,11,24.1,25,25
			c0.3,0,0.7,0,1,0.1c-4.2-1.1-8.4-2.3-12.6-3.4c5.6,3,10.9,4.7,17.3,5.1c3.6,0.2,7.2,0,10.8,0c2.7,0,5.1-0.2,7.8-0.6
			c1.1-0.1,2.2-0.3,3.3-0.4c-1.1,0.1-2.2,0.3-3.3,0.4c0.4,0.2,2,0,2.5,0c4.2,0,8.3,0.1,12.5,0.1c16.3,0,32.6,0.2,48.9-0.1
			c17.5-0.4,34.8-1.4,52.2-4.1c4.1-0.6,8.2-1.3,12.3-1.9c4.9-0.8-4,0.4,0.9-0.1c2.2-0.2,4.5-0.5,6.7-0.7c8-0.8,16.1-1.5,24.2-2
			c16.3-1.1,32.7-1.7,49-2.3c16.9-0.5,33.6,0.4,50.4,1.6c16.1,1.2,32.2,2.1,48.4,2.4c16.2,0.3,32.3,2.2,48.5,2.6
			c32.5,0.7,65.2,1.4,97.5,5.3c3,0.4-1.7-0.3-1.8-0.2c0.7-0.2,2.2,0.3,2.9,0.4c1.9,0.3,3.9,0.6,5.8,0.9c4.2,0.6,8.3,1.3,12.5,1.9
			c10.3,1.5,20,2.8,30.4,1.4c10.2-1.4,20.3-4.7,27.9-12.1c8.6-8.4,10.9-19.8,10.8-31.4c-0.1-15.4-1.6-30.7-1.7-46
			c0-3.6,0-7.3-0.1-10.9c-0.1-1.8-0.2-3.6-0.3-5.4c-0.1-0.9-0.2-1.8-0.3-2.7c-0.2-1.4-0.3-2.8-0.6-4.2c-0.5-3.8-0.6-4.4-0.3-1.9
			c0.7,3.3,0,0.2,0-0.5c-0.1-1-0.1-2-0.2-2.9c-0.1-2-0.2-3.9-0.3-5.9c-0.3-4.2-0.8-8.3-1.3-12.4c-2-15.6-2.6-31.5-3.1-47.2
			c-0.1-3.8,0-7.7,0.3-11.5c0.1-1.9,0.2-3.9,0.4-5.8c0.1-0.9,0.2-1.8,0.2-2.8c0.3-3.9,0.5,0.6-0.2,1.2c0.7-0.6,0.8-4.5,1.1-5.4
			c0.4-1.7,0.7-3.5,1-5.2c0.7-3.8,1.5-7.7,2.2-11.5c1.1-5.6,1.7-11.3,2.5-16.9c0.2-1.5,1.1-4.1,0.7-5.6c0,0.1-0.7,4.9-0.3,2
			c0.2-1.2,0.4-2.5,0.6-3.7c1.4-7.8,3.3-15.6,4.9-23.3c1.9-9.2,3.6-18.4,4.5-27.7c0.7-7.8,0.3-15.7,0.3-23.6
			c0.1-16.7,0.4-33.2-1.4-49.8c-0.5-4.6-1-9.2-1.6-13.8c-0.4-2.7-0.7-5.4-1.1-8c-0.5-3,0.3,1.9,0.2,1.9c0.1-0.1-0.4-3.5-0.4-3.8
			c-0.7-7.8,0.4-15.7-0.3-23.5c-1.1-11.9-4.6-22.3-13.1-31c-7.2-7.4-15.7-12.4-25.3-16.1c-7.2-2.8-14.9-4.5-22.5-5.7
			c-9.2-1.5-18.7-3.2-28-3.9c-8-0.6-15.9,0-23.9,0.6c-8.5,0.7-17.2,0.3-25.7,0.8c-7.7,0.5-15.5,1.6-23.2,1.7
			c-8.1,0.1-16.2-0.1-24.3,0.3c-16.5,0.7-33.1,2-49.6,2c-16-0.1-31.7-1.3-47.7-2.2c-31.9-1.7-64-2.9-95.9-1.3
			C202.1,3,186,2.3,170.1,2.3c-15.9-0.1-31.8,1.5-47.8,1.7c-15.8,0.2-31.5,1.1-47.3,2.1c-8,0.5-16,1-24,1.2
			c-13.7,0.4-23.7,7.3-30.4,19c-4.9,8.5-6.9,18.1-6.9,27.9c0,3.4,0,6.8,0,10.2c0,1.5,0,3,0.2,4.5c0.2,2.5,0.7,4.9,1,7.4
			c0.5,3.1-0.4-5.4-0.3-1.9c0.1,3.2,0.2,6.6,0.4,9.8c0.2,2.5,0.6,5,1,7.4c0.1,0.7,0.4,3.5,0-0.1c-0.4-3.6-0.1-0.6,0,0.1
			c0.1,1.4,0.2,2.8,0.3,4.3c0.7,9.5,1.8,18.9,3.2,28.3c0.6,3.8,1.2,7.7,1.8,11.5c0.8,5,0.1-4.1-0.1,0.6c-0.1,2-0.1,4.1-0.2,6.1
			c-0.1,1.7-0.2,3.5-0.4,5.2c-0.1,1-0.8,6.6-0.3,2.8c0.5-3.9-0.3,1.9-0.5,2.8c-0.3,2.1-0.7,4.2-1.1,6.2c-1.5,7.5-3.8,14.8-5.4,22.2
			c-1.7,8.1-3.1,16.3-4.9,24.4c-0.8,3.8-1.7,7.7-2.5,11.6c-0.5,2.7-0.8,5.3-1.2,8c-0.2,1.7-0.5,3.5-0.7,5.2c-0.4,3.4-0.5,0.4,0.2-1
			c-1.3,2.8-1,7.4-1.4,10.3c-0.2,1.8-0.5,3.7-0.7,5.5c-0.4,4-0.4,7.9-0.3,11.9c0.3,15.9-0.1,31.6,0.9,47.4c1,15.8,1,31.7,1.9,47.5
			c0.9,16.5,2.6,32.9,2.8,49.4c0.1,7.7-0.6,15.4-1.2,23c-0.3,3.8-0.8,7.7-0.9,11.5c-0.1,1.7-0.1,3.5-0.1,5.2c0,6.9-1.5,0.7,2.9-6.3
			c-6.9,11.1-2.7,28,9,34.2C29.4,476,44,472.4,51.4,460.5L51.4,460.5z"/>
	</g>
</g>
</svg>
