<?xml version="1.0" encoding="utf-8"?>
<!-- Generator: Adobe Illustrator 21.0.0, SVG Export Plug-In . SVG Version: 6.00 Build 0)  -->
<svg version="1.1" id="icons" xmlns="http://www.w3.org/2000/svg" xmlns:xlink="http://www.w3.org/1999/xlink" x="0px" y="0px"
	 viewBox="0 0 281.4 125" style="enable-background:new 0 0 281.4 125;" xml:space="preserve">
<style type="text/css">
	.st0{clip-path:url(#SVGID_2_);}
	.st1{fill:#CCFBF8;}
</style>
<g>
	<defs>
		<rect id="SVGID_1_" width="281.4" height="125"/>
	</defs>
	<clipPath id="SVGID_2_">
		<use xlink:href="#SVGID_1_"  style="overflow:visible;"/>
	</clipPath>
	<g class="st0">
		<g>
			<path class="st1" d="M-35.8,73.3c-1.1,1.5-2.3,3-3.3,4.7c-1.1,1.9-6.1,13-1.8,4.1c15.2,6.4,30.5,12.8,45.7,19.3
				c0.8-4.5-2.2,2.8-0.7,0.9c0.8-1,1.4-2.2,2.1-3.3c0.8-1.2,1.7-2.3,2.5-3.5c1.7-2.5-3,3.6,0,0c3.9-4.7,7.8-9.3,12-13.7
				c2.1-2.2,4.2-4.2,6.5-6.1c2.5-2.2,0.4,0.3-0.9,0.7c1-0.3,2.6-1.9,3.5-2.6c3.5-2.6,7.1-5.2,10.4-8.1c0.6-0.5,2-1.4,2.3-2.1
				c-1,0.7-2,1.4-2.9,2.2c2.3-1.4,1.4-1.1-2.6,1C26.5,58.6,16,50.6,5.4,42.6C6.3,39.4,7.2,36.2,8,33c0.8-1,1.6-2.1,2.4-3.1
				c-0.6,0.3-1.2,1.3-1.7,1.8c-1.3,1.4-2.6,2.7-3.9,4.1c-4.5,4.9-8.7,9.9-12.6,15.3c-2.7,3.8-5.3,7.7-7.7,11.7c-1.2,2-2.3,3.9-3.3,6
				c-1.1,2.4-2.2,5-3.2,7.5c-0.5,1.4-2.2,5.4,0.4-0.7c-5,11.6-4.2,24,6.4,32.3c10.5,8.1,23,6,32.8-2c7.5-6.1,13.6-14,20.6-20.7
				c3.5-3.4,7.1-6.8,10.8-10.1c1.7-1.5,3.5-2.9,5.1-4.5c1.9-1.7,1.3-1.3-1.8,1.2c0.7-0.5,1.5-0.9,2.4-1.2
				c-10.1-1.3-20.2-2.6-30.3-3.9c0.2,0.2,0.4,0.4,0.6,0.6c-2.1-3.7-4.3-7.4-6.4-11c0.1,0.3,0.1,0.5,0.2,0.8c0-4.4,0-8.9,0-13.3
				c-0.6,3.6,3.4-5,0.8-2.2c-0.7,0.8-1.3,1.8-2,2.6c-2.1,2.9-4.2,5.9-6.1,8.9C7.6,59.5,4,66,0,72.4c-5.7,9-4,23,3.9,30.3
				c7.9,7.3,20.8,10.1,30.3,3.9c11.1-7.2,18.1-17.9,27.4-26.9c4.2-4.1,8.7-7.9,13.1-11.7c0.4-0.4,0.9-0.8,1.3-1.1
				c1.4-1.2,0.9-0.8-1.7,1.2c0.6-1,2.6-1.8,3.5-2.3c3.9-2.2,7.3-4.6,10.7-7.5c-3.7,2.1-7.4,4.3-11,6.4c0.4-0.1,0.8-0.3,1.1-0.4
				C68.5,53.9,58.3,43.7,48,33.4c6.3-10.1,6.7-11.3,1-3.5c-0.6,0.9-1.3,1.8-1.8,2.8c-1.2,1.9-2.3,3.8-3.6,5.6
				c-2.3,3.1-4.7,6.2-6.8,9.5C30.7,57.4,25.5,67,24.4,78.6c-0.8,8.5,5.3,17.5,12.4,21.6c7.9,4.6,17.3,4.3,25.2,0
				c2.4-1.3,5-3.3,6.9-5.2c1.3-1.7,2.6-3.4,3.9-5.1c-0.7,0.9-1.5,1.9-2.2,2.8c2.3-1.3,4.6-4.8,6.6-6.7c4.8-4.6,9.9-8.9,15-13.1
				c3.7-3-2.4,1.6,0.1-0.1c1.3-0.8,2.5-1.8,3.8-2.6c2.5-1.7,5.1-3.4,7.7-5.1c3.1-2.1,6.2-4.1,9.2-6.4c3.1-2.4,3.4-2.6,0.8-0.6
				c-2.1,1.6-2.4,1.8-0.8,0.7c3.7-1.9-6,1.5-2.2,0.8c-4.4,0-8.9,0-13.3,0c0.2,0.1,0.5,0.1,0.7,0.2c-6.1-8-12.2-16.1-18.4-24.1
				c0,0.5,0,0.9-0.1,1.4c1.1-4.2,2.3-8.4,3.4-12.6c-1.1,2.3-0.5,1.7,1.7-1.7c-0.7,0.9-1.5,1.9-2.3,2.8c-1.5,1.9-3.1,3.7-4.7,5.5
				c-2.8,3.2-5.5,6.4-8.1,9.7C62.4,50.2,54.3,58.7,50.1,70c-3.4,9.3,1.7,20.7,9,26.3c8.1,6.3,18.7,6.7,27.8,2
				c3.6-1.9,6.9-4.7,9.9-7.4c1-0.9,1.9-1.8,2.8-2.7c3.3-3.1-0.5-0.7-0.8,0.4c0.4-1.4,6-4.1,7.4-5c2.5-1.6,5-3.2,7.6-4.7
				c10.7-6.5,23.6-12.3,32.4-21.2c9.2-9.3,10-26.2,0-35.4c-10.1-9.3-25.3-9.7-35.4,0c-7.7,7.4-15.1,14.8-21.6,23.2
				c-1.9,2.4-3.8,4.8-5.5,7.3c-2.2,3.2,3.9-4.9,2.1-2.6c-1.6,1.9-3.2,3.9-4.6,6C76,63.4,75,71.5,76.6,80.3
				c1.7,9.5,14.1,19.7,24.1,18.4c3.8-0.5,7.2-0.8,10.8-2.3c3.5-1.5,6.1-3.2,9.1-5.6c1-0.8,2.1-1.7,3.1-2.6c2.3-2-3.7,2.5,0.2-0.1
				c5-3.3,10-6.5,15.3-9.4c5.1-2.7,10.2-5.3,15.4-7.8c2.8-1.4,5.6-2.7,8.4-4c0.7-0.3,1.4-0.7,2.1-1.1c0.3-0.2,0.6-0.3,0.9-0.5
				c-2.9,1.6-6,2.5-9.3,2.5c-7.2-12.5-14.4-25.1-21.6-37.6c-2.4,4.2,3.9-3.6-0.6,0.4c-1.3,1.1-2.6,2.2-3.9,3.3c-3,2.5-6,4.9-9,7.3
				c-2.6,2.1-5.2,4.3-7.5,6.8c-2.2,2.4-4,5.1-6,7.7c5.9-7.6-1.8,1.8-3,4.5c-4.6,9.8-4.7,22.4,3.9,30.3c8.4,7.7,20.1,9.3,30.3,3.9
				c4.8-2.6,9.1-6,13.8-8.8c4.9-2.9,10.1-5.4,15.3-7.7c5.2-2.3,10.4-4.6,15.6-6.9c1.4-0.6,2.7-1.2,4.1-1.8c3.2-1.5-5.7,2.3-0.1,0.1
				c2.4-1,4.8-1.9,7.1-3c4.4-2.1-5.1,1.3-1,0.7c-9.4-12.2-18.8-24.5-28.2-36.7c-2,4,4.1-3.4,0.7-0.7c-0.7,0.7-1.4,1.3-2.2,1.9
				c0.9-0.7,1.8-1.4,2.7-2.1c-4.1,2.3-7.8,5.7-11.2,8.8c-5.7,5.2-10.8,11-15.7,16.9c-8.1,9.7-10,22.4-2,32.8
				c8,10.3,20.8,11.9,32.3,6.4c5.8-2.8,10.9-6.6,16.5-9.7c3-1.7,6.1-3.3,9.2-4.9c1.4-0.7,2.8-1.4,4.3-2.1c1.1-0.5,6.4-3.6,0.9-0.5
				c5-2.8,11.2-4,16.5-6c1.2-0.5,2.5-1,3.7-1.5c0.9-0.3,1.8-0.6,2.7-0.9c2.4-1,5.3,0.4-4.1,0.4c-4.2-1.1-8.4-2.3-12.6-3.4
				c0.1,0,0.2,0.1,0.2,0.1c-3-11.4-6-22.8-9-34.2c4.1-5.4,0.9-1.3-0.3-0.1c-1.2,1.2-2.4,2.3-3.6,3.5c-2.7,2.4-5.5,4.7-8.1,7.2
				c-5.3,4.9-11.6,10.7-15.1,17.1c-5.1,9.5-4.4,22.6,3.9,30.3c8.4,7.7,20.2,9.4,30.3,3.9c4.4-2.4,8.7-4.8,13.2-7.1
				c2.1-1.1,4.1-2.1,6.3-3.1c0.6-0.3,4.3-1.9,1-0.5c-3.7,1.5,1.7-0.6,1.9-0.7c4.7-1.7,9.6-3.2,14.4-4.8c2.3-0.8,4.7-1.5,7-2.4
				c0.8-0.3,1.6-0.6,2.3-0.9c4.4-1.9,5.2,1.8-8.3-0.7c-5-12.2-10-24.5-14.9-36.7c4.1-5.7-0.4-0.6-1.7,0.6c-1.4,1.2-2.7,2.5-4,3.7
				c-2.8,2.6-5.7,5.1-8.4,7.9c-2.4,2.4-4.6,5.1-7.1,7.4c-5.1,4.7-8.2,9.7-10.7,16.2c-3.2,8,0.7,18.6,6.4,24.3
				c6.3,6.3,15.7,8.8,24.3,6.4c12-3.3,22.8-10.8,34-16.1c2.5-1.2,5-2.3,7.5-3.4c2.9-1.3,0.5-0.4-1,0.4c1.3-0.7,2.8-1.2,4.2-1.7
				c2.5-1,5.1-1.9,7.7-2.8c1-0.3,1.9-0.6,2.9-1c0.6-0.3,1.3-0.5,2-0.7c2-0.7,0.8-0.5-3.5,0.4c-5.9-14.2-11.8-28.5-17.7-42.7
				c-1.5,1.9-3.1,3.4-4.9,4.9c-2.3,2.1,4.4-3.2,0.8-0.6c-1.7,1.2-3.4,2.5-5,3.8c-4.7,3.6-9.2,7.3-13,11.8c-9,10.7-9.8,24.6,0,35.4
				c6.9,7.5,17.8,9.5,27.3,6.9c4.4-1.2,8.7-3.7,12.9-5.8c1.6-0.8,3.8-2.4,5.6-2.6c-3.2,1.3-3.6,1.5-1.1,0.5c2.5-1.1,5.1-2.1,7.6-3.2
				c-6.5,2.8,1.1-0.4,2.4-0.8c1.7-0.6,9.3-1.8,2-1c6.8-0.7,12.7-2.3,17.7-7.3c4.3-4.3,7.6-11.5,7.3-17.7c-0.6-12.3-11.1-26.5-25-25
				c-5.6,0.6-10.9,1.2-16.1,3.1c-2,0.7-3.9,1.5-5.9,2.3c-2,0.8-4,1.7-6,2.5c3.2-1.4,3.6-1.5,1.1-0.5c-4.7,1.9-9.4,3.9-14,6.2
				c-1.6,0.8-3.2,1.5-4.8,2.4c-0.4,0.2-0.8,0.4-1.1,0.6c4.6-2.6,9.6-3.2,15-1.8c3.7,2.1,7.4,4.3,11,6.4c-0.2-0.2-0.3-0.4-0.5-0.5
				c0,11.8,0,23.6,0,35.4c1.6-1.9,3.2-3.6,5-5.3c1-0.9,2-1.8,3-2.6c3.3-3-3.3,2.3-0.8,0.6c5.3-3.6,10.8-7.5,14.9-12.6
				c6.5-8.1,9.4-17.2,5.2-27.3c-4-9.4-12.7-14.9-22.8-15.4c-6.8-0.3-13.5,2.6-19.8,4.9c-6.8,2.5-13.6,5.4-20.2,8.4
				c-5.3,2.4-10.6,4.9-15.7,7.6c-2.6,1.4-5.1,2.8-7.7,4.2c-0.4,0.2-3,1.2-3.1,1.6c3.1-1.2,3.7-1.4,1.9-0.8c-0.8,0.3-1.6,0.5-2.5,0.7
				c10.3,10.3,20.5,20.5,30.8,30.8c-4.1,10.3-6,9.4-2.1,5.8c1.1-1,2.1-2,3.1-3.1c2.5-2.7,5-5.4,7.8-7.9c6.6-5.9,13-11.6,18.2-18.8
				c9-12.5,0-34-14.9-36.7c-8-1.5-14.6-0.5-22.1,2.2c-6,2.2-12.1,4-18.2,6.1c-12.6,4.4-24.3,10.7-36,17.1
				c11.4,11.4,22.8,22.8,34.2,34.2c2-3.7-4.1,4-0.8,1c0.9-0.8,1.7-1.7,2.5-2.5c2.6-2.7,5.3-5.3,8.1-7.7c6.6-5.7,12-11.4,17.3-18.4
				c7.5-10,2.4-29.2-9-34.2c-9.3-4.1-17.3-4.1-26.4-0.5c-5.2,2.1-10.6,3.8-15.8,5.8c-8.8,3.4-17.4,7.2-25.7,11.7
				c-6.7,3.6-12.9,8.3-19.8,11.6c10.1,13.1,20.2,26.2,30.3,39.3c5.3-6.4,11-12.1,16.9-17.9c1.4-1.2,0.6-0.6-2.4,1.8
				c0.8-0.6,1.6-1.2,2.3-1.7c2.5-1.9,5-3.7,7.4-5.7c3.7-3.2,7-7.1,9.3-11.4c4.6-9.1,4.5-19.5-2-27.8c-6.7-8.6-16-10.4-26.3-9
				c-3.5,0.5-8.1,2.2-10.9,4.4c3.5-1.5,4.2-1.8,2.3-1c-2.3,0.9-4.5,1.9-6.8,2.9c-1.1,0.5-2.2,0.9-3.3,1.4
				c-5.8,2.5-11.5,5.1-17.3,7.7c-5.5,2.4-10.9,4.9-16.1,8c-5,2.9-9.5,6.5-14.5,9.2c11.4,11.4,22.8,22.8,34.2,34.2
				c1.1-2.2,0.5-1.6-1.7,1.6c1.4-1.9,2.9-3.7,4.3-5.6c1-1.3,0.5-0.7-1.4,1.9c0.6-0.6,1.1-1.2,1.7-1.8c2.7-2.6,5.7-4.9,8.6-7.2
				c7-5.6,14.1-10.9,18.6-18.9c4.4-7.8,4.6-17.4,0-25.2c-4.8-8.3-12.5-11.3-21.6-12.4c-7-0.8-13.7,3.3-19.8,6.2
				c-5.8,2.8-11.6,5.6-17.3,8.5c-5.3,2.7-10.6,5.6-15.6,8.8c-2.6,1.6-5.1,3.4-7.5,5.2c-2.5,1.8-4.9,3.7-7.3,5.7
				c-0.5,0.4-1,0.8-1.5,1.2c-2.5,2.1-1.9,1.6,1.7-1.4c4.2-1.1,8.4-2.3,12.6-3.4c-0.4,0.1-0.8,0.1-1.1,0.2c8,6.1,16.1,12.2,24.1,18.4
				c0-0.2-0.1-0.5-0.1-0.7c0,4.4,0,8.9,0,13.3c0.5-2.3,0-1.2-1.4,3.2c1.1-1.5,0.9-1.3-0.6,0.7c-3.6,4.6,3-3.9,3.5-4.4
				c0.9-1.2,2-3.5,3.2-4.4c-0.6,0.8-1.2,1.6-1.8,2.4c0.7-0.9,1.4-1.8,2.2-2.6c5.1-5.9,10.8-11.3,16.4-16.7
				c-11.8-11.8-23.6-23.6-35.4-35.4c1.1-1.1,4.8-3.3,1.3-1.1c-1.1,0.7-2.2,1.4-3.2,2.1c-2.3,1.5-4.7,3-7.1,4.4
				c-4.9,3-9.9,5.9-14.8,8.9c-4.5,2.8-9.1,5.6-13.4,8.7c-3.4,2.5-6.8,5-9.9,7.9c-0.8,0.7-1.5,1.5-2.3,2.2c-3.7,3.7,4.4-2.6,0.2-0.4
				c12.2,9.4,24.5,18.8,36.7,28.2c-1.6,3.4-1.7,4-0.3,1.7c-2.3,2.9-2.6,3.3-0.9,1.3c1.6-1.8,3.1-3.8,4.5-5.7
				c2.8-3.6,5.6-7.2,8.5-10.6c8.8-10.3,18.9-19.6,19.5-34.1c0.4-10.4-8-21.9-18.4-24.1c-7.7-1.6-14.9-0.9-21.8,2.9
				c-1,0.6-1.9,1.2-2.9,1.8c-0.3,0.2-0.6,0.4-0.8,0.6c-6.3,4.9-6.7,5.2-1.2,0.9c-2.8,0.9-5.9,3.9-8.5,5.6c-3.1,2-6.2,4-9.1,6.2
				C60,34.9,53.2,40.4,46.7,46.2c-2.7,2.5-5.5,5-8.1,7.6c-1,1-1.9,1.9-2.8,3c-0.6,0.6-1.1,1.2-1.6,1.8c-6,7.3-5.1,6.8,2.6-1.6
				c12.5,7.2,25.1,14.4,37.6,21.6c0.1,2.6-0.5,5.1-1.8,7.3c0.4-0.8,0.8-1.6,1.2-2.3c0.8-1.5,1.7-3.1,2.6-4.6c2-3.4,4.1-6.9,6.4-10.1
				c2.3-3.2,4.7-6.2,6.7-9.5c1-1.6,4-6.2-0.4,0.2c3.4-4.9,5.6-6.7,7.2-12.8c2.2-8.7-0.1-17.9-6.4-24.3C84,16.6,73.5,12.8,65.5,16
				c-1.4,0.5-2.8,1.1-4.1,1.7c-3.1,1-5.8,2.7-8,5.2c-3.1,1.8,2-1.3,1.6-1.4c-1.8-0.6-8.6,5.7-9.7,6.5c-5.4,4.2-10.7,8.7-15.8,13.4
				c-4.4,4-8.5,8.2-12.4,12.8c-1.9,2.2-3.7,4.5-5.6,6.7c-0.9,1-1.8,1.9-2.7,2.8C5.5,67,13.2,60.7,9,63.4
				c11.4,11.4,22.8,22.8,34.2,34.2c5.1-8.2,9.6-16.9,15.2-24.9c2.6-3.6,5.1-6.7,6.8-10.8c4.5-10.6,2.9-22.3-5.5-30.7
				c-8.6-8.6-20-8.5-30.3-3.9c-5.2,2.3-9.5,6.8-13.7,10.5C11.8,41.4,8,45,4.3,48.6c-7.4,7.1-14,15.5-21.9,22
				c13.1,10.1,26.2,20.2,39.3,30.3c1.2-2.7,2.4-5.5,3.5-8.2c0.3-0.7,1.6-4.3,0.3-0.8c-1.5,3.8,0.5-0.7,1-1.5c0.6-1,1.2-2,1.8-3
				c1.5-2.5,3.1-4.9,4.7-7.3c0.2-0.3,2.1-2.7,2-2.9c0.3,0.5-3.4,4.2,0,0.1c9-10.6,20.7-19.3,20.6-34.6c0-16.5-15.9-28.1-31.6-24.1
				C17.6,20,13,23.3,8.3,27.2c-1,0.9-2,1.8-3,2.7c-0.5,0.5-1,0.9-1.5,1.3C2.4,32.4,2.9,32,5.4,30c-1.3,0.5-3.1,2.3-4.2,3.2
				c-2.6,2-5.3,4-7.8,6.1c-2.8,2.2-5.4,4.6-7.8,7.2c-5,5.3-9.8,10.8-14.3,16.6c-5.8,7.4-12.9,15.4-14.5,25
				c-2.1,12.4,2.3,24.3,14.5,29.5c10.7,4.5,25.7,1,31.2-10.2c1.1-2.3,2.2-4.6,3-7.1c0.6-1.7,0.5-1.5-0.2,0.6c-1,2.2-0.9,2.3,0.3,0.4
				c0.7-0.9,1.3-1.7,1.9-2.6c3.6-4.9,4.1-13.6,2.5-19.3C8.3,73.5,3.8,67.2-1.6,64.3C-14.6,57.5-27.5,62-35.8,73.3L-35.8,73.3z"/>
		</g>
	</g>
</g>
</svg>
