<?xml version="1.0" encoding="utf-8"?>
<!-- Generator: Adobe Illustrator 21.0.0, SVG Export Plug-In . SVG Version: 6.00 Build 0)  -->
<svg version="1.1" id="Layer_1" xmlns="http://www.w3.org/2000/svg" xmlns:xlink="http://www.w3.org/1999/xlink" x="0px" y="0px"
	 viewBox="0 0 41.9 42.6" style="enable-background:new 0 0 41.9 42.6;" xml:space="preserve">
<style type="text/css">
	.st0{fill:none;stroke:#525FE8;stroke-miterlimit:10;}
	.st1{fill:#FFFFFF;}
	.st2{fill:none;stroke:#525FE8;stroke-width:2;stroke-miterlimit:10;}
	.st3{fill:#525FE8;}
</style>
<g>
	<path class="st0" d="M39.1,11.2c-9.1,0-9.1-0.3-18.1-0.3c-9.1,0-9.1,0.7-18.1,0.7c-1.4,0-2.3-1.2-2.3-2.6c0-1.4,0-1.4,0-2.8
		c0-1.4,0.9-2.9,2.3-2.9c9.1,0,9.1,0,18.1,0S30,3.7,39.1,3.7c1.4,0,2.3,1.2,2.3,2.5c0,1.4-0.2,1.4-0.2,2.8
		C41.2,10.4,40.5,11.2,39.1,11.2z"/>
</g>
<g>
	<g>
		<g>
			<path class="st1" d="M4.8,1.1C4.8,1.1,4.8,1,4.8,1.1C4.6,1,4.5,1.2,4.5,1.4c0,2.3,0.1,2.3,0.1,4.6c0,0.2,0.1,0.4,0.3,0.4
				c0,0,0-0.1,0-0.1C5,6.3,5.2,6.2,5.2,6c0-2.3,0-2.3,0-4.6C5.3,1.2,5,1.1,4.8,1.1z"/>
			<path class="st2" d="M4.8,1.1C4.8,1.1,4.8,1,4.8,1.1C4.6,1,4.5,1.2,4.5,1.4c0,2.3,0.1,2.3,0.1,4.6c0,0.2,0.1,0.4,0.3,0.4
				c0,0,0-0.1,0-0.1C5,6.3,5.2,6.2,5.2,6c0-2.3,0-2.3,0-4.6C5.3,1.2,5,1.1,4.8,1.1z"/>
		</g>
		<g>
			<path class="st1" d="M15.6,1C15.6,1,15.6,1.1,15.6,1c-0.2,0.1-0.3,0.1-0.3,0.3c0,2.3,0,2.3,0,4.6c0,0.2,0.1,0.3,0.4,0.3
				c0,0,0,0.2,0,0.2c0.2,0,0.3-0.2,0.3-0.5c0-2.3,0.1-2.3,0.1-4.6C16,1.2,15.8,1,15.6,1z"/>
			<path class="st2" d="M15.6,1C15.6,1,15.6,1.1,15.6,1c-0.2,0.1-0.3,0.1-0.3,0.3c0,2.3,0,2.3,0,4.6c0,0.2,0.1,0.3,0.4,0.3
				c0,0,0,0.2,0,0.2c0.2,0,0.3-0.2,0.3-0.5c0-2.3,0.1-2.3,0.1-4.6C16,1.2,15.8,1,15.6,1z"/>
		</g>
		<g>
			<path class="st1" d="M26.3,1.1C26.3,1.1,26.3,1,26.3,1.1c-0.2,0-0.5,0.1-0.5,0.3c0,2.3,0.1,2.3,0.1,4.6c0,0.2,0.2,0.4,0.4,0.4
				c0,0,0,0,0,0c0.2,0,0.4-0.3,0.4-0.5c0-2.3,0-2.3,0-4.6C26.7,1.2,26.5,1.1,26.3,1.1z"/>
			<path class="st2" d="M26.3,1.1C26.3,1.1,26.3,1,26.3,1.1c-0.2,0-0.5,0.1-0.5,0.3c0,2.3,0.1,2.3,0.1,4.6c0,0.2,0.2,0.4,0.4,0.4
				c0,0,0,0,0,0c0.2,0,0.4-0.3,0.4-0.5c0-2.3,0-2.3,0-4.6C26.7,1.2,26.5,1.1,26.3,1.1z"/>
		</g>
		<g>
			<path class="st1" d="M37,1C37,1,37,0.9,37,1c-0.2-0.1-0.3,0.1-0.3,0.4c0,2.3,0,2.3,0,4.6c0,0.2,0.1,0.3,0.3,0.3c0,0,0,0,0,0
				c0.2,0,0.3-0.1,0.3-0.3c0-2.3,0-2.3,0-4.6C37.4,1.2,37.2,1,37,1z"/>
			<path class="st2" d="M37,1C37,1,37,0.9,37,1c-0.2-0.1-0.3,0.1-0.3,0.4c0,2.3,0,2.3,0,4.6c0,0.2,0.1,0.3,0.3,0.3c0,0,0,0,0,0
				c0.2,0,0.3-0.1,0.3-0.3c0-2.3,0-2.3,0-4.6C37.4,1.2,37.2,1,37,1z"/>
		</g>
	</g>
</g>
<g>
	<path class="st3" d="M39.3,11.4c-0.6,0.2-1.3,0-1.9-0.1c-16.3,0-16.3-0.1-32.6-0.1c-0.7,0-1.3,0-2.2,0c0,0.4,0.6,0.6,0.6,1
		c0,10.4-0.4,10.4-0.4,20.8c0,5.1,3.9,9.6,9,9.6c9.1,0,9.1-0.5,18.2-0.5c5.1,0,10-4,10-9.1c0-10.4-0.7-10.4-0.7-20.8
		C39.3,11.8,39.3,11.8,39.3,11.4z M14.3,31c0,1.4-1.4,2.6-2.8,2.6c-0.6,0-0.6-0.2-1.1-0.2c-1.4,0-2.2-1-2.2-2.4c0-0.5-1-0.5-1-1.1
		c0-2,2.3-3.9,4.3-3.9c0.1,0,0,0.4,0.1,0.4c1.4,0,2.9,0.8,2.9,2.2C14.5,29.8,14.4,29.8,14.3,31z M14.3,20c0,1.4-1.4,2.6-2.8,2.6
		c-0.6,0-0.6-0.2-1.1-0.2c-1.4,0-2.2-1-2.2-2.4c0-1.1-1-1.1-1-2.2c0-1.4,1.8-2.8,3.2-2.8c0.6,0,0.6,0.5,1.1,0.5
		c1.4,0,2.7,0.9,2.7,2.3C14.3,18.9,14.3,18.9,14.3,20z M24.3,31c0,1.4-1.4,2.6-2.8,2.6c-0.6,0-0.6-0.2-1.1-0.2c-1.4,0-2.2-1-2.2-2.4
		c0-1.1-1-1.1-1-2.2c0-1.4,1.8-2.8,3.2-2.8c0.6,0,0.6,0.5,1.1,0.5c1.4,0,2.7,0.9,2.7,2.3C24.3,29.9,24.3,29.9,24.3,31z M24.3,20
		c0,1.4-1.4,2.6-2.8,2.6c-0.6,0-0.6-0.2-1.1-0.2c-1.4,0-2.2-1-2.2-2.4c0-1.1-1-1.1-1-2.2c0-1.4,1.8-2.8,3.2-2.8
		c0.6,0,0.6,0.5,1.1,0.5c1.4,0,2.7,0.9,2.7,2.3C24.3,18.9,24.3,18.9,24.3,20z M34.3,31c0,1.4-1.4,2.6-2.8,2.6
		c-0.3,0-0.3-0.2-0.6-0.2c-1.7,0-3.1-1.1-3.1-2.8c0.2-0.5-0.3-0.4-0.1-0.9c0-2,1.8-3.7,3.9-3.7c0,0,0,0.5,0,0.5
		c1.4,0,2.9,0.3,2.9,1.7C34.5,29.6,34.4,29.6,34.3,31z M34.3,20c0,1.4-1.4,2.6-2.8,2.6c-0.6,0-0.6-0.2-1.1-0.2c-1.4,0-2.2-1-2.2-2.4
		c0-1.1-1-1.1-1-2.2c0-1.4,1.8-2.8,3.2-2.8c0.6,0,0.6,0.5,1.1,0.5c1.4,0,2.7,0.9,2.7,2.3C34.3,18.9,34.3,18.9,34.3,20z"/>
</g>
</svg>
