<?xml version="1.0" encoding="utf-8"?>
<!-- Generator: Adobe Illustrator 21.0.0, SVG Export Plug-In . SVG Version: 6.00 Build 0)  -->
<svg version="1.1" id="Layer_1" xmlns="http://www.w3.org/2000/svg" xmlns:xlink="http://www.w3.org/1999/xlink" x="0px" y="0px"
	 viewBox="0 0 234.4 87.7" style="enable-background:new 0 0 234.4 87.7;" xml:space="preserve">
<style type="text/css">
	.st0{fill:#FFA39C;}
</style>
<path class="st0" d="M23.2,29.4v39.2H32c3.3-0.2,6.5-0.3,9.7-3.4c3.5-3.3,5.5-9.5,5.5-16.4c0-4.2-0.7-7.8-1.9-10.8
	c-3.1-8.3-8.9-8.5-13.5-8.7h-8.6V29.4z M0,12.3h24.8c16.4,0.2,26.9,0.3,35.5,8.4c7.6,7,10.1,17.5,10.1,27.8c0,15.4-5.8,30-20.5,34.9
	c-5.9,2-12.4,2-19.6,2H0V12.3z"/>
<path class="st0" d="M95.3,48.8c0,12.7,5.2,20.4,16.1,20.4c9.3,0,15.8-7.3,15.8-21.1c0-3.5-0.3-6.7-1.3-9.6
	C122.4,28.3,113.5,28,111.4,28C103.2,28,95.3,33.7,95.3,48.8 M150.6,48.1c0,18.5-10.9,39.6-39.5,39.6c-29.9,0-38.9-22.1-38.9-38.8
	C72.1,28,85,9.6,111.4,9.6C140.3,9.6,150.6,30.7,150.6,48.1"/>
<path class="st0" d="M234,8.4c-0.1,0.1-0.2,0.4-0.3,0.5s-0.1,0.3-0.3,0.8c-0.1,0.2-0.1,0.4-0.1,0.6l-4.7,14.2
	c0.3-4.5,0.8-10.3,1.3-14.8c0.1,0,0.2,0,0.3,0l0,0c0.1,0,0.2,0,0.2-0.1s0-0.4-0.1-0.5c0-0.1-0.1-0.1-0.2-0.1H230c0-0.2,0-0.3,0-0.5
	c0,0,0,0,0-0.1c0.1-0.1,0.2-0.1,0.3-0.1l3.4-0.2c0,0,0.1,0,0.1,0.1C233.9,8.3,234,8.3,234,8.4L234,8.4z M230.7,2.9l3.2,4.7
	c0,0,0,0.1-0.1,0.1c0,0,0,0.1-0.1,0.1L230.3,8c-0.1,0-0.1,0-0.2-0.1C230.4,5.4,230.6,3.6,230.7,2.9 M209.9,25.5
	C209.8,25.5,209.8,25.5,209.9,25.5c-0.1-0.1-0.2-0.1-0.2-0.1c-0.6-0.3-1-0.5-1-0.5c-0.6-0.3-1.1,0.2-1.1,0.2s-1.7,2-2,2.3l-0.1,0.4
	c0,0,0.3,0.3,0.3,0.4c0,0,0,0,0,0.1c-0.5-0.3-0.8,0-0.8,0.1c0,0-3.5,3.8-3.7,4s-0.4,0.5-0.4,0.7c0,0.1,0,0.1,0.1,0.2
	c0.1,0.3,0.4,0.6,0.5,0.6l-1,0.5c-0.3-0.1-0.7-0.2-0.8-0.2l-0.2-0.7c0,0-0.4-0.7-0.5-0.9l0.3-0.8l0.1-0.3l0.6-1.4c0.1,0,0.1,0,0.1,0
	c0.1,0,0.1-0.1,0.1-0.2c0-0.2-0.3-0.4-0.5-0.5l0.1-0.2c0,0,0.3,0.2,0.2,0.2l1.4,0.2c0,0,0.2,0,0.2-0.1c0.1-0.2,0.1-0.2,0-0.5
	c0,0-0.1-0.1-0.1-0.2l0.1-0.2l0,0c0.3,0.1,0.4,0.1,0.5,0s0-0.2,0-0.2l0,0c0,0-0.1-0.1-0.2-0.5l0.2-0.4h0.1c0.2,0,0.4,0,0.4-0.1
	c0.1-0.1,0-0.2,0-0.2s-0.1-0.2-0.2-0.4l0.2-0.4c0.4,0.1,0.5,0,0.5-0.1s0-0.1,0-0.2l0,0c0,0-0.1-0.2-0.4-0.8c-0.2-0.4-0.5-1-0.7-1.3
	c-0.1-0.1-0.1-0.2-0.2-0.3l22.5-13.8L209.9,25.5z M234,7.2C234,7.2,233.9,7.2,234,7.2l-3.3-4.5V2.6c0.1-0.2,0-0.8,0-0.8l-0.1-0.5
	l0-0.3c0-0.1,0-0.2,0-0.4s-0.1-0.4-0.3-0.5C230.2,0,230.1,0,230.1,0L229,0.4c-0.2,0.2-0.4,0.3-0.6,0.5l0,0c-0.4-0.4-0.8-0.1-0.9-0.1
	c0,0-0.4,0.3-1.1,0.8c-0.1-0.1-0.3-0.3-0.5-0.4c-0.1,0-0.2,0-0.2,0.1v0.1L224,2.6l-15.4,11l-1.8,1.3l-5.9,4.2c0,0,0,0.1,0,0.2
	s0.1,0.3,0.2,0.4c-2.1,1.5-3.5,2.5-3.5,2.5c-0.3,0.2-0.3,0.5-0.2,0.6H197c0-0.1,0-0.1,0-0.2l0,0c0,0-0.3-0.7-0.4-0.8
	c0-0.1-0.1-0.1-0.1-0.1c-0.1,0-0.2,0.1-0.2,0.1s-0.2,0.6-0.4,0.8h-0.3c0,0-0.1,0-0.2,0.1c-0.1,0.1,0,0.2,0.1,0.5
	c0,0.1,0.1,0.1,0.1,0.2l0,0c0,0.1,0,0.1-0.1,0.2c0,0,0,0.1-0.1,0.2c0,0-0.2,0-0.3,0.1c0,0.1,0,0.2,0.1,0.3l0.1,0.1
	c0,0.1-0.1,0.3-0.1,0.4l0,0c0,0-0.2,0-0.3,0.1c0,0.1,0,0.2,0.1,0.4l0.1,0.1c0,0.1,0,0.1,0,0.2c-0.2,0-0.3,0.1-0.3,0.1s0,0-0.1,0.2
	s0,0.3,0,0.3s-0.3,0.3-0.1,0.6c-1,1.4-2.6,2.9-3.7,4.4l-0.9,1.2c-1.4,1.9-3.7,3.4-4.7,4.8l-3.2-1.2l-2.7-0.8c0,0-1.8,2.1-3.4,3.8
	V12.2h-23.1v73.1h23.2V67.9L186.7,56l16.1,29.2h26l-27.2-45.3l-0.8,0.2c0.4-0.4,1-0.9,1.2-1.1c0.2-0.1,0.9-0.8,1.2-1.2l5.1-6.1
	l1.2,0.3l0,0c0,0,0.1,0,0.2-0.1l0.2-0.5l0.8-0.9l0.3-0.3l0.7-0.8L212,29c-0.2-0.2-0.6-0.6-0.7-0.8L227,9.4c0,0,0.4,0.3,0.6,0.4l0,0
	c0,0.1,0,0.2,0,0.3v0.7l-1.1,17.6c-0.4,0-0.8,0.3-1,0.7c-0.1,0.3-0.2,0.6-0.1,0.9c0,0.2,0.1,0.4,0.1,0.6c0.3,0.8,0.3,1,0.4,1.1
	c0.1,0.1,0.4,0.4,0.9,0.4l1.2-0.4c0.6-0.4,0.9-0.8,0.9-0.8c0-0.1,0-0.2-0.1-0.7c-0.1-0.2-0.2-0.5-0.3-0.9c0-1,0.1-2.4,0.2-3.8
	l5-14.9c0.1-0.1,0.2-0.3,0.2-0.4c0.1-0.1,0.3-0.8,0.3-0.9c0-0.2,0.1-0.4,0.1-0.6l0.1,0.1l0.1-0.8L234,7.2z"/>
</svg>
