<?xml version="1.0" encoding="utf-8"?>
<!-- Generator: Adobe Illustrator 21.0.0, SVG Export Plug-In . SVG Version: 6.00 Build 0)  -->
<svg version="1.1" xmlns="http://www.w3.org/2000/svg" xmlns:xlink="http://www.w3.org/1999/xlink" x="0px" y="0px"
	 viewBox="0 0 323.1 209.9" style="enable-background:new 0 0 323.1 209.9;" xml:space="preserve">
<style type="text/css">
	.st0{fill:#FFC8DB;}
	.st1{fill:#FFA39C;}
	.st2{fill:#CCFBF8;}
	.st3{fill:#E2B6E8;}
	.st4{fill:#A2D5FF;}
	.st5{fill:#525FE8;}
	.st6{fill:#FFFFFF;}
	.st7{display:none;}
	.st8{display:inline;}
	.st9{fill:#FFA6CE;}
	.st10{fill:#FFB8D3;}
</style>
<g id="kleuren">
	<rect x="927.8" y="-1045.3" class="st0" width="101.4" height="101.4"/>
	<rect x="1060.1" y="-1045.3" class="st1" width="101.4" height="101.4"/>
	<rect x="1055" y="-801.5" class="st2" width="101.4" height="101.4"/>
	<rect x="927.8" y="-921" class="st3" width="101.4" height="101.4"/>
	<rect x="927.8" y="-801.5" class="st4" width="101.4" height="101.4"/>
	<rect x="926.8" y="-676.5" class="st5" width="101.4" height="101.4"/>
	<rect x="926.8" y="-545.5" class="st6" width="101.4" height="101.4"/>
</g>
<g id="k_1_">
</g>
<g id="blue-01">
	<g>
		
			<image style="overflow:visible;" width="224" height="374" xlink:href="582E5B81FEED07AF.png"  transform="matrix(1 0 0 1 621.6562 -992.4053)">
		</image>
	</g>
</g>
<g id="pink-03">
	<g>
		
			<image style="overflow:visible;" width="305" height="250" xlink:href="582E5B81FEED07A4.png"  transform="matrix(1 0 0 1 398.6562 -957.4053)">
		</image>
	</g>
</g>
<g id="anker_1_" class="st7">
	<g class="st8">
		<g>
			<g>
				<path class="st6" d="M521.6-852.6c0.4-0.6,0.9-1,1.5-1.4c-4.2-1.1-8.4-2.2-12.5-3.3c0.7,3.3-1.2,7.7-2.1,10.7
					c-1.2,4.2-2.1,8.4-2.8,12.7c-1.5,9.1-2.8,18.2-4.1,27.3c-1.2,9-1.5,18-2.3,27.1c-0.4,4.1-1,8.2-1.4,12.3
					c-0.3,2.5-0.8,5.1-0.9,7.5c-0.1,3.7-0.5-0.7,3.7-2.2c3.2,2.4,6.3,4.8,9.5,7.2c-0.2-1.8-0.1-3.5-0.1-5.4c0.4-9.7-14.6-9.6-15,0
					c-0.1,1.9-0.2,3.5,0.1,5.4c0.5,4.4,4.4,9.1,9.5,7.2c8.7-3.1,7.5-14,8.4-21.6c1.2-10.6,1.6-21.3,2.8-31.9
					c1.2-10.6,2.9-21.4,4.8-32c1.6-9.3,6.5-19,4.4-28.5c-1.4-6.1-8.4-6.5-12.5-3.3c-0.6,0.4-1.1,0.9-1.5,1.4
					C504.5-856.1,515.1-845.5,521.6-852.6L521.6-852.6z"/>
			</g>
		</g>
		<g>
			<g>
				<path class="st6" d="M473.2-805.5c0-0.2-0.1-0.4-0.1-0.7c-0.4-3.4-2-6.2-5.5-7.2c-0.2-0.1-0.4-0.1-0.5-0.2
					c-4-1.2-8.1,1.4-9.2,5.2c-2,6.7,0.2,13.5,1.8,20.1c1.9,7.9,4.1,15.5,7.4,22.9c6.3,13.9,16.3,26,32,28.5c15.5,2.4,29-4,37.2-17.2
					c4-6.5,7.9-13,10.7-20.1c1.4-3.5,2.5-7.2,4.3-10.5c1.9-3.4,4-6.4,4.9-10.3c2.1-9.4-12.3-13.4-14.5-4c-0.6,2.8-2.4,4.9-3.7,7.4
					c-1.5,2.8-2.6,5.8-3.7,8.7c-2.2,5.7-4.8,10.7-7.9,15.9c-2.6,4.4-4.9,9.3-9.1,12.3c-4.1,2.9-9.6,3.8-14.5,3.3
					c-11.9-1.3-18.4-11.4-22.9-21.6c-2.6-5.8-4.2-12-5.7-18.2c-1-4.1-3.3-9-2-13.2c-3.1,1.7-6.2,3.5-9.2,5.2
					c0.2,0.1,0.4,0.1,0.5,0.2c-1.8-2.4-3.7-4.8-5.5-7.2c0,0.2,0.1,0.4,0.1,0.7c0.5,4,3.1,7.5,7.5,7.5
					C469.3-798,473.7-801.4,473.2-805.5L473.2-805.5z"/>
			</g>
		</g>
		<g>
			<g>
				<path class="st6" d="M479.9-839.5c0.3,9,8.1,8.8,14.9,9.8c8.3,1.2,16.5,1.7,24.9,1.6c8.3,0,16.4,0.5,24.6,0.9
					c6.1,0.3,14.3-0.8,13.6-9c-0.9-9.5-15.9-9.6-15,0c0,0.3,0.1,0.6,0.1,0.9c0.3-1.3,0.7-2.5,1-3.8c-0.1,0.2-0.2,0.4-0.3,0.5
					c1.5-1.1,3-2.3,4.5-3.4c0.9-0.4-0.1,0.1-0.8,0c-0.7-0.1-1.4-0.1-2.1-0.1c-2.7-0.1-5.5-0.4-8.2-0.7c-5.8-0.5-11.6-0.3-17.3-0.3
					c-5.5,0-11,0-16.4-0.5c-2.7-0.3-5.5-0.7-8.2-1.1c-1.2-0.2-2.6-0.5-3.9-0.5c-2.9,0-0.5-1,1.6,1.3c0.7,1.8,1.5,3.5,2.2,5.3
					c0-0.3,0-0.6,0-0.8C494.6-849.2,479.6-849.2,479.9-839.5L479.9-839.5z"/>
			</g>
		</g>
		<g>
			<g>
				<path class="st6" d="M514.8-876.7c0,1,0,1.9-0.1,2.9c0,0-0.1,1.4-0.3,1.3c-0.2,0.5-0.1,0.5,0-0.2c0.6-1.1,1.5-1.7,2.8-1.8
					c0,0.5-2.2-0.2-2-0.1c1.1,0.6,2.2,1.3,3.3,1.9c1.8,1.5,0,1.5,0.3,0.5c0,0-0.2-1.2-0.1-0.8c-0.3-0.7,0.4-1-0.4,0.1
					c0.5-0.6,0.6-0.3,0.1-0.2c1.4-0.2,2-0.7,3.4-0.2c-0.8-0.2,1.1,0.5-0.1,0c-0.2-0.4-0.4-0.7-0.7-1.1c0.1,0.6,0.2,1.2,0.3,1.8
					c0.2,0.8,0.8,2.3,0.6,3.1c-0.1,0.4-0.8,1-1.1,1.3c-0.2,0.2-0.5,0.4-0.7,0.5c-1.1,0.6-0.7,0.6,1.3,0.1c-0.1,0.2-2.8-2.1-2.5-2
					c0.7,0-1.1,3.2-0.1,2c0.3-0.4,0.6-1,0.9-1.4c0.4-0.5-0.3,0.2,0.5-0.6c0.5-0.5,0.9-1,1.4-1.4c0.3-0.3,1.3-1.2,0.6-0.5
					c0.9-0.8,0.2,0,0.2-0.2c2.3-0.6,0.4-1.4-5.6-2.3c0.1,0.2,0.2,0.5,0.4,0.7c0.4,1.3,1.3,2.3,1.9,3.5c-0.4-0.9,0.5,1.6,0.4,1.5
					c-0.5,0,0.8-2,0.9-2.4c0.2-1,1.6-0.2-0.2-0.3c0.7,0.1-1.3,0.1-1.4,0.1c-0.8,0-1.6-0.1-2.4,0c-0.3,0-0.6,0-0.9-0.1
					c1.7,0.1,2.8,1.4,3.3,3.7c-0.3,1.3-0.7,2.5-1,3.8c0,0-0.1,0.1-0.1,0.1c6.8-6.8-3.8-17.4-10.6-10.6c-4,4-4.4,10-0.5,14.3
					c3,3.3,7.6,3.9,11.8,3.9c9.1-0.1,17.8-5.3,15.8-15.5c-0.6-3.3-2.3-6.2-3.8-9.1c-2.1-4.1-5.4-6.5-10.1-6
					c-6.2,0.7-11.9,6.5-14.7,11.9c-4.2,8.1,1.6,16.9,9.1,20.4c9.7,4.6,21.9-3.9,22.4-14.5c0.4-8.2-3.3-16.9-11.7-19.3
					c-7-1.9-15.5,0.4-19.4,6.7c-2.3,3.8-2.7,9.1-1.5,13.4c1.5,5.5,5.9,8.4,11.5,8.4c4.8,0,9.2-1.7,11.7-6c1.9-3.4,2.1-7.5,2.2-11.3
					C529.9-886.3,514.9-886.3,514.8-876.7L514.8-876.7z"/>
			</g>
		</g>
		<g>
			<g>
				<path class="st6" d="M457.4-808.8c0,0.1-0.1,2.7,0.2,1.3c0.6-1.1,1.3-2.2,1.9-3.3c0.9-0.4,1.8-0.8,2.7-1.2c-0.4,0-0.8,0-1.3,0
					c-0.3,0-0.5,0-0.8-0.1c-1.5-0.2-0.6,0.3,2.8,1.4c0.6,1.1,1.3,2.2,1.9,3.3c0.3,1,0.1,1.5,0.2,0.1c0-0.6,0-1.3,0-1.9
					c0-0.5,0.5-1.7,0.1-0.9c0,0.1-0.1,0.2-0.1,0.2c0.2-0.2,0.4-0.5,0.6-0.7c1-0.8,0.8-0.9-0.6-0.2c-1,0.7-1.9,0.5-2.7-0.5
					c-0.9-0.1-1.4-0.5-1.6-1.1c0,0,0.4,2.1,0.6,2.8c1,4.5,1.2-1.7,1.6-1.1c0,0-0.9,0.5-1.3,0.8c-1,0.7-0.2,0.4-0.1,0.1
					c-0.3,0.8-2.1-0.9,1.2,1.2c2.5,1.6,1.4,1.5,1.5,0.4c-0.1,0.7,0.1-1.7-0.1-1.1c0.2-0.6,0.7-1,1.1-1.5c0.1-0.1,0.8-0.7,0.8-0.3
					c-0.1,1.3-2.8-0.9-3.1-1.3c-0.1-0.1-1.4-1.9-1-1.3c0.3,0.5,0.1-1.1,0,0.2c0,0.5,0,0.9,0,1.4c-0.1,1.4,0.1-0.4-0.1,0.4
					c-0.2,1-0.5,1.9-0.8,2.9c-0.1,0.4-0.3,0.7-0.4,1.1c0.6-2-0.3,0.2,0.7-0.9c0.7-0.7,1-0.3,0.5-0.5c-0.4-0.2-1.6,0.3-2.1,0.4
					c-0.9,0.1,0.2,0.1,0.4,0c-0.3,0-0.6,0.1-1,0c-2,0-0.6,0.8,3.9,2.5c0.3,1.3,0.7,2.5,1,3.8c0-0.2,0-0.4,0-0.6
					c-0.4-9.6-15.4-9.7-15,0c0.4,8.8,8.5,9.9,15.5,8.6c6.7-1.2,10.1-6.3,11.5-12.6c1.3-5.7,1.4-12.6-3.6-16.6
					c-6.3-5.1-15.3-1.3-19.7,4.4c-4.3,5.7-5.1,14.8-0.4,20.6c5.4,6.7,14.8,3.9,20.4-0.9c2.8-2.4,4.1-5.6,3.8-9.3
					c-0.2-3.2-1-7.4-2.6-10.3c-4.1-7.9-14.3-7.8-19.6-1.3c-4.4,5.3-7.8,17.4-0.3,21.9c3,1.8,8.2,2.2,11.5,1.2
					c5.5-1.6,6.9-6.2,6.8-11.3C472.2-818.4,457.2-818.4,457.4-808.8L457.4-808.8z"/>
			</g>
		</g>
		<g>
			<g>
				<path class="st6" d="M558.5-807.3c-1.2,0.5-3.3,1-3.9,2.2c-0.6,0.6-0.4,0.5,0.5-0.1c1.1-0.5,1.1-0.6,0-0.3
					c-1.1,0.1-2.3,0.6-3.4,0.9c-2.1,0.4-1.4-0.3,0.6,0.9c0.9,0.9,1.8,1.8,2.7,2.7c0.2,0.8,0.5,1.6,0.7,2.4c0-0.8,0.1-1,0-0.7
					c-0.2,0.2,0.6-1.3,0.2-0.5c0.5-0.9,0.9-1.6,1.6-1.9c-1.3,0.3-2.5,0.7-3.8,1c-2.5,0.3-1.8-1.6-1,0.1c0.4,0.5,0.8,1.1,1.1,1.7
					c0.2,0,0.2-0.2,0.1-0.5c0.1-1.1,0.5-2,1.3-2.8c0.8-0.5,0.9-0.6,0.5-0.3c-0.5,0.3-0.3,0.2,0.5-0.1c-0.4,0.1-0.8,0.3-1.2,0.4
					c-0.4,0.1-0.9,0.2-1.3,0.3c0.9-0.1,0.9-0.1,0,0c-0.8,0-1.6,0.1-2.4,0.1c-0.4,0-1.2-0.2-1.5,0c1.3,0.2,2.4,0.9,3.2,2.1
					c0.3,0.6,0.2,0.4-0.1-0.6c-0.2-0.7-0.4-1.4-0.5-2c0.4-0.4,0.3,0-0.4,1.3c-0.2,0.2-0.5,0.1-0.7,0.3c-2.3,1.2-4.1-1.5-1.7,1
					c1,1,0.2,0.3,0.2-0.7c-0.1-1.5,0.6-2.2,1.6-2.8c-0.7,0.4-0.8,0.4,0,0.1c0.9,0,0.9,0,0,0c0.6,0.2,1.4,0.1,1.8,0.8
					c0.8,1.4-1.8,3.9-2.7,4c-1.3,0-2.7,0-4,0c-0.2-0.1-0.5-0.3-0.7-0.4c-0.9-0.9-1.8-1.8-2.7-2.7c-0.2-0.6-0.4-1.2-0.6-1.8
					c-0.4,4,3.7,7.5,7.5,7.5c4.4,0,7.1-3.4,7.5-7.5c0.4-4.5-2.6-8.5-7-9.6c-5.2-1.3-10.4,2.6-11.8,7.6c-2.3,8,4,16.3,12.1,17
					c7.4,0.6,14.4-5.2,14.1-12.8c-0.4-7.7-9.3-16-17.1-14.2c-9.2,2.1-11.7,11.9-9,19.9c1.2,3.8,3.5,7.2,7.6,8.2
					c2.5,0.6,5.2,0.5,7.8,0.3c6.3-0.5,13-2.8,14.6-9.7c1.8-7.5-5.4-18.1-13.2-18.8c-9.2-0.9-16.7,11.5-14.5,19.9
					c1.5,5.8,7.2,6.9,12.3,6.1c4-0.6,9.1-1.5,11.9-4.7c-1.1,0.6-2.2,1.3-3.3,1.9c0.2-0.1,0.4-0.2,0.6-0.3c3.8-1.5,6.4-5,5.2-9.2
					C566.8-805.6,562.3-808.8,558.5-807.3L558.5-807.3z"/>
			</g>
		</g>
	</g>
</g>
<g id="kraan" class="st7">
	<g class="st8">
		<g>
			<g>
				<path class="st6" d="M154.6-906.1c-0.2,0.5-0.4,0.9-0.6,1.4c-3.2,7,0.6,14.6,8.6,15c8.5,0.4,17.7-1.9,26.1-3.1
					c9-1.3,18-2.5,27.1-3.4c18.7-1.9,37.4-3.1,56.2-4.3c37.4-2.5,74.6-6.9,112.1-8.5c10.6-0.4,21.2-1.1,31.8-2.1
					c5.1-0.5,10.2,0.4,15.3-0.4c4.7-0.8,9.2-2.3,14-2.9c5.4-0.6,10-4.2,10-10c0-4.9-4.6-10.6-10-10c-0.4,0-0.7,0.1-1.1,0.1
					c-5.4,0.6-10,4.2-10,10c0,4.9,4.6,10.6,10,10c0.4,0,0.7-0.1,1.1-0.1c0-6.7,0-13.3,0-20c-4.3,0.5-8.7,1-12.9,2
					c-1.8,0.4-3.4,1.1-5.2,1.3c-2.5,0.2-5-0.3-7.4-0.3c-9.2,0-18.5,1.6-27.7,2c-18.6,0.9-37.1,1.7-55.6,3.5
					c-37.5,3.5-75.1,5.5-112.7,8.9c-10.9,1-21.8,2.3-32.6,3.8c-9.1,1.3-19.2,3.9-28.4,3.4c2.9,5,5.8,10,8.6,15
					c0.2-0.5,0.4-0.9,0.6-1.4c2.3-4.9,1.4-10.8-3.6-13.7C163.9-912.3,156.9-911.1,154.6-906.1L154.6-906.1z"/>
			</g>
		</g>
		<g>
			<g>
				<path class="st6" d="M331.3-900.4c0.2,0.2,0.4,0.5,0.6,0.7c-0.9-1.5-1.7-2.9-2.6-4.4c0.5,1.2,0.4,4,0.3,6.5
					c-0.1,3.5-0.2,6.9,0.1,10.4c0.7,7.4,1.8,14.7,2.6,22.1c0.8,6.9,1.4,13.1,0.9,20c-0.5,7.9-0.6,15.9-0.8,23.8
					c-0.2,6.4-1.1,12.8-0.4,19.2c0.8,7.4,1.9,14.7,2.6,22.1c0.4,3.6-0.1,7.2,0.3,10.8c0.4,3.2,0.7,5.8,0.5,9
					c-0.2,3.3,0.4,6.6,0.8,9.8c0.6,4.2,0.4,8.2,0.7,12.4c0.4,6.7,0.7,13.6,1.5,20.3c0.8,6.8,1,15.7,7.7,19.8
					c2.9,1.8,6.4,2.2,9.7,1.5c1.7-0.4,3.5-1.1,5-2c0.4-0.2,0.8-0.4,1.3-0.7c-2,0.6-1.5,0.7,1.5,0.1c3-0.8,5.6-2,8.7-2.4
					c3.5-0.5,7.1-0.8,10.6-1.1c7.3-0.6,14.5-3.3,14.5-12c0-3.2-1.6-5.4-2.4-8.4c-0.9-3.6-0.9-7.6-1.3-11.3
					c-1.6-14.7-3.9-29.4-5-44.1c-0.5-6.7,0.1-13.4-0.7-20.1c-0.8-7.2-0.5-15.8-2.8-22.6c-1.1-3.2-1.7-4.9-2.1-8.3
					c-0.4-3.7-0.8-7.5-1.3-11.2c0-0.2-0.5-4.7-0.5-1.9c0-1.9,0.6-3.9,0.7-5.8c0.2-4.3-0.6-8.7-1-13c-0.7-6.7-1.5-13.1-1.5-19.8
					c0-6.7-0.8-13.2-1.5-19.8c-0.7-7.3-2.5-14.4-10.4-16.8c-2.9-0.9-5.9-0.5-8.9-0.1c-2.8,0.4-4.9,0-7.8,0.2
					c-14.9,0.9-12.6,19.6-11.7,29.8c0.6,6.9,1.5,13.8,1.5,20.8c0.1,7.7,0.2,15.2,1,22.8c1.7,14.8,3.6,29.5,4.8,44.3
					c0.6,6.9,1.2,13.8,1.6,20.7c0.5,8.3,1.5,16.7,1.5,25c0,8.5-0.5,17-0.8,25.5c-0.2,7.6,2.3,14.8,10,17.6c7.1,2.6,16.7,2,21.2-5
					c4.4-6.9,2.2-16.8,0.5-24.2c-1.8-7.5-3.2-14.5-3.6-22.2c-0.5-8.5-0.4-17-0.5-25.4c-0.1-8.5-0.3-17-1.1-25.4
					c-0.7-7.6-0.5-16.4-2.8-23.6c-1.3-4.1-5.2-7.5-9.6-7.3c-11.3,0.3-11.8,12.6-12,21c-0.2,9,0.1,18,0.4,27c0.1,2.6,0.3,5.3,0.2,7.9
					c0,0.4-0.1,0.8-0.1,1.2c0.2-2.1,0.2,2.4-0.2,1.2c3.2-3,6.1-3.7,8.7-2c0.3,0.1,0.5,0.3,0.7,0.6c-0.1-1.3-0.8-1.7-1.1-2.5
					c-2-6.1-3.3-12.6-4-19c-0.5-4-1.2-7.4-2.5-11.2c-0.7-2-1.5-4-2.1-6c-0.4-1.4-0.6-3.5-1-5.2c-2-8-14.4-10.1-18.3-2.4
					c-2.2,4.4-1.7,7.5-1.1,12.1c0.7,5.1,1.1,10.2,1.7,15.4c0.6,5.4,4.2,10,10,10c4.9,0,10.6-4.6,10-10c-0.6-5.1-1.4-10.3-1.7-15.5
					c-0.2-4.5,0.3-8.7,0-13.3c-0.4-4.2-0.3-8.4-1.3-12.4c-0.9-3.8-1.6-7.1-2-11c-0.9-8.2,0.2-16-0.5-24.2c-0.8-8.9-3.2-18-3-26.9
					c-1.7,2.9-3.3,5.8-5,8.6c0.2-0.1,0.5-0.2,0.7-0.4c-1.7,0.5-3.4,0.9-5,1.4c2-0.2,7,1.7,10.1,2.1c5.1,0.7,10-1.1,15-0.7
					c-1.7-0.5-3.4-0.9-5-1.4c-2.1-3.7-2.7-4.4-2-2.2c0.1,0.4,0.1,0.7,0.2,1.1c0.3,1.2,0.5,2.5,0.6,3.6c0.5,3.3,0.7,6.7,1.1,10
					c0.7,6,0.2,12.1,4.6,16.9c4.7,5.3,15.5,3,16.7-4.4c0.8-4.6,0.3-8.7,0.2-13.3c0-0.6,0-1.3,0-1.9c0.1-2.1-0.5-1-1.9,3.3
					c1.3-0.3,2.4-3,2.9-4.2c1.3-3.2,1.4-8.5,0.6-11.9c-0.8-3.5-2.3-5-4.4-7.7c-3.2-4.3-8.6-6.5-13.7-3.6c-4.3,2.5-6.8,9.3-3.6,13.7
					c0.8,1.1,1.6,2.1,2.4,3.2c0.9,1.1,1,1.2,0.4,0.3c-1.7-4.8-0.9,0.8-1,2.1c0.5-1.7,0.9-3.4,1.4-5c1.8-2.7-1.3,1.4-1.6,2
					c-1.2,2.1-1.4,4.2-1.5,6.5c-0.3,3.6,1,7.7,0.4,11.2c5.6-1.5,11.1-2.9,16.7-4.4c-0.1-0.2-0.3-0.3-0.4-0.5
					c0.9,1.5,1.7,2.9,2.6,4.4c-0.7-1.8,0,0.8-0.3-1.2c-0.2-1.2-0.2-2.4-0.3-3.5c-0.4-3.8-0.8-7.5-1.2-11.3
					c-0.7-6.1-1.1-13.6-5.7-18.2c-6.2-6.2-13.3-1.8-20.6-2.7c-6.8-0.8-11.7-4.1-18.5-0.7c-3.1,1.6-4.9,5.3-5,8.6
					c-0.2,8.9,2.2,18.1,3,26.9c0.7,8.2-0.3,16.1,0.5,24.2c0.9,8.3,2.6,16.2,3.4,24.4c0.4,4.2-0.3,8.1-0.1,12.3
					c0.3,5.2,1.2,10.4,1.7,15.5c6.7,0,13.3,0,20,0c-0.7-6.7-2.7-16.2-2.3-21.6c-0.5,1.7-0.9,3.4-1.4,5c0.1-0.3,0.3-0.5,0.4-0.8
					c-6.1-0.8-12.2-1.6-18.3-2.4c0.7,2.9,2.1,8.2,3.4,12c1.5,4.3,1.8,8.4,2.5,13c1.1,7,2.6,14.2,5.5,20.7c3,6.9,9.6,12.7,17.7,10.9
					c8.5-1.9,11.2-10.7,11.7-18.3c0.5-7.3-0.3-14.7-0.5-22c-0.1-4.9-0.2-9.7,0-14.6c0.1-2,0.2-4,0.4-6c-0.3,3.2-0.2,0.8,0.1,0.1
					c0.5-1.2-2.2,3.2-1.8,2.9c-1.5,0.9-2.9,1.7-4.4,2.6c-0.8,0.1-1.5,0.2-2.3,0.3c-3.2-2.4-6.4-4.9-9.6-7.3
					c1.1,3.6,0.9,7.6,1.3,11.3c0.5,4.9,1.1,9.8,1.4,14.8c0.6,10.4,0.4,20.9,0.6,31.3c0.2,10.3,0.4,20.8,2.7,30.9
					c1,4.4,2.5,8.8,3.1,13.3c0.1,0.5-0.1,4.2,0.3,4.4c0.9-0.7,1.7-1.4,2.6-2.1c3.2-1.7,3.5-2.4,1-2.1c-2.4-0.5,3.4,2.1,2.6,3
					c1.1-1.2,0.4-9.5,0.5-11.8c0.3-5.6,0.5-11.1,0.4-16.7c-0.1-10.1-1.2-20.5-2.1-30.6c-1.6-19.8-3.8-39.6-6-59.3
					c-1.3-11.4-0.5-22.8-1.6-34.2c-0.5-5.5-1-10.9-1.2-16.4c-0.1-1.4-0.2-2.8-0.2-4.2c0-0.7,0.1-1.5,0-2.2c-0.2-2.3,1.1,1.1-2.6,3.1
					c-1.7,0.5-3.4,0.9-5,1.4c1.9-0.2,9,1.1,11.9-0.7c-3.6,2.3-4.4-5.6-4.8-3.2c-0.3,1.8,0.5,4.3,0.7,6.2c0.9,8.1,0.3,16.2,1.2,24.3
					c0.5,4.5,1,9.1,1.5,13.6c0.5,4.8,0.2,8.9,0,13.7c-0.1,3.9,1,8.4,1.4,12.3c0.5,4.8,0.6,9.9,2.4,14.4c1.4,3.5,1.4,7,1.8,10.8
					c0.5,4.5,1.3,9,1.4,13.5c0.1,4.8-0.2,9.6,0.1,14.3c0.3,4.2,1,8.4,1.5,12.7c1,9.2,2.1,18.5,3.1,27.7c0.5,4.2,0.9,8.4,1.4,12.6
					c0.3,2.5,0.4,5.2,1.1,7.7c0.6,2,1.6,3.7,2,5.8c0-1.8,0-3.5,0-5.3c0,0.3-0.1,0.6-0.1,0.9c0.9-1.5,1.7-2.9,2.6-4.4
					c-0.2,0.2-0.3,0.4-0.5,0.5c1.5-0.9,2.9-1.7,4.4-2.6c-2.3,0.9,1.9-0.2-1.2,0.2c-1.8,0.2-3.7,0.4-5.5,0.6
					c-3.4,0.4-6.9,0.7-10.3,1.2c-2.7,0.4-5.2,1.4-7.5,2.3c-2.2,0.8-4.2,0.6-6.4,1.6c-0.4,0.2-0.8,0.4-1.2,0.5
					c-1.6,0.8-1.7,0.9-0.2,0.2c1.7,0.5,3.4,0.9,5,1.4c-0.2-0.1-0.5-0.3-0.7-0.4c1.2,1.2,2.4,2.4,3.6,3.6c-1.5-2.1-1.6-6.6-1.8-9.6
					c-0.4-3.7,0-7.4-0.4-11.2c-0.4-4.4-0.4-8.6-0.7-13c-0.3-4.5-1.6-9.1-1.6-13.5c0-2,0.5-3.5,0.3-5.5c-0.2-2.2-0.7-4.4-0.8-6.7
					c-0.3-4.5,0-8.8-0.6-13.3c-1.2-8.4-2.8-17.3-2.2-25.8c0.6-9.2,0.6-18.4,0.9-27.6c0.2-4.3,0.6-8.6,0.8-12.8
					c0.2-4.3-0.5-8.4-1.1-12.7c-1.1-9.1-2.8-18.4-3.1-27.6c-0.3-8.3,2-16.8-4-23.7c-3.5-4.1-10.5-3.6-14.1,0
					C327.3-910.5,327.8-904.5,331.3-900.4L331.3-900.4z"/>
			</g>
		</g>
		<g>
			<g>
				<path class="st6" d="M453.4-936.4c-2.5-7.6-9.2-9.6-16-11.9c-3.9-1.3-7.7-2.8-11.7-4c-4-1.2-8.3-1.7-12.1-3.4
					c-6.9-3-13.5-8-19.8-12.2c-6.3-4.2-13-8.1-18.9-12.8c-6-4.7-12-9.6-17.7-14.5c-5.4-4.6-11.1-10.9-19-8.7
					c-7.5,2-10.6,12-15.1,17.5c-5.2,6.4-9.8,13.2-14.3,20.1c-4.7,7.2-10.1,14.1-15.1,21c-5.3,7.4-10.6,14.9-16.3,22.1
					c-3.4,4.2-4.1,10,0,14.1c3.5,3.5,10.8,4.2,14.1,0c10.3-12.9,19.1-26.7,29.1-39.7c5-6.6,9.6-13.5,14.3-20.3
					c2.1-3,4.6-5.8,6.8-8.9c1.9-2.7,3.8-7.2,5.8-9.2c-1.5,0.9-2.9,1.7-4.4,2.6c0.2-0.1,0.5-0.1,0.7-0.2c-1.8,0-3.5,0-5.3,0
					c1,0.1,0.8,0.3,1.1,0.6c1.8,1.6,3.5,3.2,5.4,4.7c4.2,3.3,8.5,6.4,12.5,10c8,7.2,17.4,12.8,26.3,18.8
					c8.6,5.8,17.7,12.3,27.7,15.2c5.4,1.6,10.7,2.9,16,4.7c2.4,0.8,4.8,1.7,7.2,2.5c0.6,0.2,1.3,0.6,1.9,0.6c-0.4,0-1.3-1.5-0.1,0.1
					c-0.9-1.5-1.7-2.9-2.6-4.4c0.1,0.3,0.2,0.5,0.2,0.8C438.1-918.8,457.4-924.1,453.4-936.4L453.4-936.4z"/>
			</g>
		</g>
		<g>
			<g>
				<path class="st6" d="M182.7-892.1c0-0.2,0-0.3-0.1-0.5c-0.4-3.2-5.4-3.2-5,0c1.2,10.4,2.3,20.8,3.6,31.2
					c1,7.9-0.1,16.4,1.6,24.2c0.4,2,1.5,3.8,3.9,3.6c1.6-0.1,3-1.1,4.7-1.3c2.9-0.4,5.1,0.3,6.9,2.7c3.5,4.7,2.6,10.6-1.4,14.5
					c-4.1,4-11.2,5.2-14.9,0.1c-1.3,1-2.6,2-3.9,3c0.3,0.4,0.6,0.8,1,1.1c2.1,2.5,5.6-1.1,3.5-3.5c-0.3-0.4-0.6-0.8-1-1.1
					c-1.8-2.2-5.6,0.7-3.9,3c5.6,7.6,16.1,7.5,22.7,0.9c3.7-3.7,5.4-7.3,4.9-12.4c-0.5-4.7-2.2-9.1-6.4-11.8
					c-2.9-1.9-8.7-2.7-11.8-0.9c-0.3,0.2-0.6,0.3-0.9,0.5c1.3,0.7,1.7,0.4,1.3-0.8c0.2-0.6,0-1.9-0.1-2.5c-0.2-2.8-0.7-5.6-0.8-8.4
					c-0.3-14-2.5-28.1-4.1-42c-1.7,0-3.3,0-5,0c0,0.2,0,0.3,0.1,0.5C178.1-888.9,183.1-888.9,182.7-892.1L182.7-892.1z"/>
			</g>
		</g>
	</g>
</g>
<g id="Layer_26">
</g>
<g id="blue-02">
	<g>
		
			<image style="overflow:visible;" width="395" height="292" xlink:href="582E5B81FEED07A5.png"  transform="matrix(1 0 0 1 176.6563 -916.4053)">
		</image>
	</g>
</g>
<g id="blue-03">
	<g>
		
			<image style="overflow:visible;" width="294" height="305" xlink:href="582E5B81FEED07A6.png"  transform="matrix(1 0 0 1 -80.0947 -787.2972)">
		</image>
	</g>
</g>
<g id="pink-01">
	<g>
		
			<image style="overflow:visible;" width="322" height="320" xlink:href="582E5B81FEED07A7.png"  transform="matrix(1 0 0 1 6.6563 -892.8309)">
		</image>
	</g>
</g>
<g id="paraplu">
</g>
<g id="pink-02">
	<g>
		
			<image style="overflow:visible;" width="377" height="243" xlink:href="582E5B81FEED07B7.png"  transform="matrix(1 0 0 1 524.6562 -751.4053)">
		</image>
	</g>
</g>
<g id="pink-04">
	<g>
		
			<image style="overflow:visible;" width="328" height="337" xlink:href="582E5B81FEED07BB.png"  transform="matrix(1 0 0 1 248.6563 -784.4053)">
		</image>
	</g>
</g>
<g id="blue-04">
	<g>
		
			<image style="overflow:visible;" width="340" height="329" xlink:href="582E5B81FEED07BE.png"  transform="matrix(1 0 0 1 391.6562 -794.4053)">
		</image>
	</g>
	<g>
		
			<image style="overflow:visible;" width="108" height="109" xlink:href="582E5B81FEED07BF.png"  transform="matrix(1 0 0 1 536.6562 -619.4053)">
		</image>
	</g>
</g>
<g id="purple-01">
	<g>
		
			<image style="overflow:visible;" width="367" height="282" xlink:href="BEB339C9D8421BEC.png"  transform="matrix(1 0 0 1 88.6563 -777.4053)">
		</image>
	</g>
</g>
<g id="purple-02">
	<g>
		
			<image style="overflow:visible;" width="310" height="306" xlink:href="BEB339C9D8421BE4.png"  transform="matrix(1 0 0 1 484.6562 -900.4053)">
		</image>
	</g>
</g>
<g id="titel">
	<g id="Layer_37">
		<g id="D">
			<path class="st5" d="M216.7-686.1c0,56-42.4,94.8-101.7,94.8H58.2c-10.4,0-18.8-8.4-18.8-18.8v-150.7c0-10.4,8.4-18.8,18.8-18.8
				H115C174.3-779.7,216.7-741.2,216.7-686.1z M169.3-686.1c0-29.1-23.6-51.5-54.3-51.5h-10c-10.4,0-18.8,8.4-18.8,18.8v66.5
				c0,10.4,8.4,18.8,18.8,18.8h10C145.7-633.4,169.3-656.2,169.3-686.1z"/>
		</g>
	</g>
	<g id="Layer_36">
		<g id="O_1_">
			<path class="st5" d="M440.5-685.5c0,54.9-42.9,97.8-99.7,97.8S241-630.7,241-685.5c0-54.9,42.9-97.8,99.7-97.8
				S440.5-740.4,440.5-685.5z M393.2-685.5c0-29.6-21.9-54-52.4-54c-30.5,0-52.4,24.4-52.4,54c0,29.6,21.9,54,52.4,54
				C371.3-631.5,393.2-655.9,393.2-685.5z"/>
			<g class="st7">
				<g class="st8">
					<path class="st5" d="M296.6-751.1c-0.1,0-0.1,0-0.2,0c1.3,1.3,2.5,2.5,3.8,3.8c-0.6-3-3.4-5.2-6.5-5.2c-1.7,0-3.5,0.7-4.7,1.9
						c-1.1,1.1-2,3-1.9,4.7c0.1,1.7,0.6,3.5,1.9,4.7c1.3,1.2,2.9,2,4.7,1.9c0.6-0.1,1.2-0.2,1.8-0.2c0.9-0.2,1.6-0.6,2.2-1.2
						c0.7-0.5,1.3-1.1,1.7-1.9c0.3-0.6,0.6-1.2,0.7-1.8c-1.3,1.3-2.5,2.5-3.8,3.8c0.1,0,0.1,0,0.2,0c1.1-0.3,2.1-1,2.8-1.9
						c0.7-0.9,1.2-2.1,1.1-3.2C300.4-748.3,298.9-750.5,296.6-751.1L296.6-751.1z"/>
				</g>
			</g>
			<g class="st7">
				<g class="st8">
					<path class="st5" d="M287.1-747.4c0,0.3,0,0.6,0,0.9c0,0.3,0,0.2,0.1-0.3c0.2-1.1,0.1-0.6-0.2,1.2c-0.1,1.1,0.1,2.2,0.3,3.3
						c2.9-2.3,5.9-4.5,8.8-6.8c-0.1,0-0.1-0.1-0.2-0.1c0.7,0.7,1.4,1.4,2.1,2.1c-0.4-0.5-0.4-1.4-0.1,0.1c-0.1-0.3-0.3-0.7-0.4-1
						c-0.1-0.5,0-1.1,0,0.1c-0.2,0.8-0.2,0.9,0,0.3c0.3-0.9,0.1-0.5-0.8,1.1c2-2.2,1.9-5.1,0-7.3c0,0-0.1-0.1-0.1-0.1
						c-1.1-1.3-3-1.7-4.5-1.5c-1.8,0.2-2.9,1.2-3.9,2.6c-1.3,1.8-2,4-1.8,6.1c0.1,1,0.2,1.9,0.4,2.9c0.2,0.7,1.5,4.2,0.5,1.6
						c0.7,2,2.1,3.6,4.2,4.2c2,0.5,4.5,0,5.8-1.5c0.6-0.7,1.2-1.4,1.5-2.3c0.2-0.3,0.3-0.6,0.4-0.9c0.2-0.4,0.1-0.3-0.2,0.5
						c0.2-0.1,0.3-0.5,0.4-0.7c0.2-0.4,0.3-0.7,0.5-1.1c0.5-1.1,0.5-1.1,0,0.2c2.2-3.9,0.2-8.9-4.1-10.1c-1.7-0.5-3.8-0.2-5.3,0.7
						C288.7-752.2,286.8-749.7,287.1-747.4L287.1-747.4z"/>
				</g>
			</g>
			<g class="st7">
				<g class="st8">
					<path class="st6" d="M296.5-739.9c1.3,0,2.4-0.2,3.5-0.8c1.1-0.4,2.1-1,2.9-1.9c0.9-0.8,1.5-1.8,1.9-2.9
						c0.6-1.1,0.8-2.3,0.8-3.5c-0.1-0.8-0.2-1.6-0.3-2.4c-0.4-1.5-1.2-2.9-2.4-4c-1.8-1.6-4-2.7-6.5-2.7c-1.3,0-2.4,0.2-3.5,0.8
						c-1.1,0.4-2.1,1-2.9,1.9c-0.9,0.8-1.5,1.8-1.9,2.9c-0.6,1.1-0.8,2.3-0.8,3.5c0.1,0.8,0.2,1.6,0.3,2.4c0.4,1.5,1.2,2.9,2.4,4
						C291.8-740.9,294-739.9,296.5-739.9L296.5-739.9z"/>
				</g>
			</g>
			<g class="st7">
				<g class="st8">
					<path class="st6" d="M384.6-760.7c-0.5-0.2-0.7-0.1-1.5-0.3c-0.9-0.2-1.7-0.2-2.6,0c-0.5,0-0.9,0-1.4,0.2
						c-0.8,0.3-1.6,0.7-2.3,1c-1.1,0.6-2.1,1.5-2.7,2.5c-0.6,0.6-1,1.3-1.3,2.2c-0.6,1.2-0.9,2.4-0.8,3.8c0,0.5,0,0.9,0.2,1.4
						c0.1,1.3,0.4,2.5,1.2,3.7c0.5,0.7,1,1.3,1.5,2c0.1,0.1,0.1,0.1,0.2,0.2c2.4,2.4,6.4,3.6,9.7,2.6c2.5-0.8,4.6-2.3,5.9-4.6
						c0.7-1.1,1.1-2.4,1.2-3.7c0.3-1.3,0.2-2.6-0.2-4C390.6-757.2,388-759.7,384.6-760.7L384.6-760.7z"/>
				</g>
			</g>
			<g class="st7">
				<g class="st8">
					<path class="st5" d="M298.3-744.4c0.9,0.4,1.6,0.6,2.6,0.5c0.8-0.1,1.4-0.4,2-0.8c1.9-1.5,2.2-4.4,0.4-6.1
						c-1.6-1.6-4.2-1.5-5.8,0c-0.8,0.7-1.2,1.8-1.2,2.9C296.2-746.7,297-745,298.3-744.4L298.3-744.4z"/>
				</g>
			</g>
			<g class="st7">
				<g class="st8">
					<path class="st5" d="M388.8-745.8c1.1,0,2.2-0.5,3-1.2c0.7-0.7,1.3-2,1.2-3c-0.1-2.3-1.9-4.3-4.3-4.3c-1.1,0-2.2,0.5-3,1.2
						c-0.7,0.7-1.3,2-1.2,3C384.6-747.7,386.4-745.8,388.8-745.8L388.8-745.8z"/>
				</g>
			</g>
		</g>
	</g>
	<g>
		<path class="st1" d="M718.3-712c0.3-0.1,0.1,0.1,0.1,0.2c-0.1,0.2-0.1,0.4-0.1,0.6c0,0.5,0,0.9,0.1,1.3c0.1,0.2,0.2,0.5,0.3,0.7
			c0.2,0.2,0.3,0.4,0.4,0.7c0.1,0.3,0.2,0.5,0.5,0.8c0.2,0.2,0.5,0.6,0.7,0.6"/>
		<g>
			<path class="st6" d="M718.3-710.5c0,0,0.1,0,0.1,0c-0.5-0.5-1-1-1.5-1.5c0-0.4-0.1,0.5-0.1,0.7c0,0.3,0,0.6,0,0.9
				c0.1,0.7,0.2,1.4,0.6,2c0.7,1.1,1.3,2.4,2.6,2.8c1.8,0.6,2.6-2.3,0.8-2.9c0,0-0.8-1.3-0.9-1.6c-0.3-0.6,0-1.2,0-1.8
				c0.1-0.8-0.8-1.5-1.5-1.5c0,0-0.1,0-0.1,0C716.4-713.6,716.4-710.6,718.3-710.5L718.3-710.5z"/>
		</g>
	</g>
	<g id="Layer_34">
		<path class="st5" d="M850.4-687l0.9-9.2c0.3-3.4-2.1-6.4-5.5-6.7l-74.8-7.4c-3.4-0.3-6.4,2.1-6.7,5.5l-1.4,14.2
			c-0.3,3.4,2.1,6.4,5.5,6.7l35.4,3.5c4.5,0.4,7,5.3,4.7,9.2l-33.2,57.5l0,0.1l0-0.2l-21.6-2.1c-3.4-0.3-5.9-3.4-5.5-6.7l8.2-83
			c0.3-3.4-2.1-6.4-5.5-6.7l-10.6-1c-0.7-0.1-1.4,0-2,0.1l-35,8.4c-2.6,0.6-4.4,2.8-4.7,5.4l-1.4,14.2c-0.4,4.1,3.3,7.5,7.4,6.6
			l12.6-2.5c4.1-0.8,7.8,2.5,7.4,6.6l-4.8,49.1c-0.3,3.4-3.4,5.9-6.7,5.5l-17.6-1.7c-3.4-0.3-6.4,2.1-6.7,5.5l-1.2,11.8
			c-0.3,3.4,2.1,6.4,5.5,6.7l80,7.9v0l17.5,1.7c2.4,0.2,4.8-1,6-3.1l53.3-93.5C850-685.3,850.3-686.1,850.4-687z"/>
	</g>
	<g id="Layer_27">
	</g>
	<g id="Layer_33">
		<g>
			<path class="st9" d="M292.3-794.6c1-1.3,2.6-1.6,4-2.1c0.7-0.2,1.4-0.5,2.1-0.9c0.7-0.3,1.6-0.5,2.4-0.7c1.1-0.3,2.1-0.6,3.2-1
				c0.4-0.2,0.7-0.1,1.1-0.2c0.7-0.1,1.4-0.4,2.1-0.5c0.5-0.1,0.9-0.2,1.3-0.3c0.4-0.1,0.9,0,1.3-0.1c0.3-0.1,0.6-0.2,1-0.2
				c0.3,0,0.6,0.1,0.9,0c0.4-0.1,0.7-0.2,1.1-0.2c0.5,0,1-0.2,1.5-0.2c0.6-0.1,1.3-0.2,1.9-0.3c0.9-0.2,1.8-0.1,2.7-0.4
				c0.6-0.2,1.2,0,1.8,0c0.5-0.1,0.9-0.2,1.4-0.2c1.2,0,2.4,0,3.6,0c0.9,0,1.7,0,2.6,0c1,0,1.8-0.2,2.8-0.2c0.5,0,0.8-0.1,1.2-0.2
				c0.4-0.1,0.8,0,1.2,0c0.8,0,1.6,0,2.3,0c0.9,0,1.8,0,2.7,0c0.9,0,1.7-0.2,2.6-0.2c1,0,2-0.2,2.9-0.4c1.1-0.2,2.2-0.3,3.3-0.5
				c0.9-0.1,1.9,0,2.8,0c1,0,2.1,0,3.1,0c2.2,0,4.6-0.2,6.8,0.2c0.8,0.1,1.7,0.1,2.5,0.5c0.5,0.3,0.9,0.5,1.1,1.1
				c0.2,0.4,0.6,0.9,0.7,1.4c0.2,1.2-1.1,2.1-1.9,2.6c-1.5,0.9-3.1,1.3-4.8,1.6c-1.6,0.3-3.2,0.2-4.9,0.4c-1.2,0.1-2.4,0.1-3.5,0.4
				c-0.9,0.2-1.8,0.4-2.7,0.6c-4.4,1.1-8.9,1-13.4,1c-3.3,0-6.5,0-9.8,0c-2.4,0-4.9-0.2-7.2,0.2c-0.2,0-0.4,0.2-0.6,0.2
				c-0.3,0.1-0.6-0.1-0.9,0c-0.4,0.1-0.8,0.2-1.2,0.2c-0.8,0.1-1.4,0.2-2.2,0.2c-0.8,0-1.5,0.1-2.3,0.2c-0.8,0.1-1.6,0.3-2.5,0.4
				c-1,0.1-1.9,0.2-2.9,0.3c-1.7,0.2-3.3,0.3-4.9-0.2c-0.7-0.3-1.4-0.4-2.1-0.5c-0.6-0.1-1.2-0.4-1.8-0.4c-0.5,0-0.9-0.1-1.4-0.2
				c-0.5-0.1-1.1-0.5-1.5,0"/>
			<g>
				<path class="st9" d="M295.8-791c1.5-1.5,5.2-2,7.1-2.5c2.5-0.7,4.9-1.4,7.5-1.8c5.5-0.8,10.9-1.3,16.4-1.4
					c5.1-0.1,10.6-0.2,15.7-0.8c3.1-0.4,5.9-0.8,9-0.8c1.9,0,3.9-0.1,5.9,0c0.8,0,1.6,0.1,2.5,0.2c-0.9-1.3-0.9-1.1,0,0.5
					c-0.2-1.3-0.3-2.6-0.5-3.9c0.9-0.9,0.3-0.7-1.6,0.4c-0.7,0.1-1.3,0.3-2,0.4c-1.6,0.3-3.4,0.2-5,0.4c-3.2,0.4-6.3,1.4-9.4,1.7
					c-7.2,0.7-14.6,0-21.8,0.2c-4.9,0.1-9.8,1.2-14.7,1.7c-4.7,0.6-10.1-2.4-14.6-1.1c-6.2,1.8-3.5,11.5,2.7,9.6
					c-2.3,0.7,0.9,0.4,2.1,0.6c1.7,0.4,3.4,0.9,5.1,1c3.7,0.3,7.4-0.6,11-1c7.9-0.9,15.6-0.9,23.5-0.9c3.8,0,7.6-0.1,11.4-0.9
					c4.2-0.8,8.5-1,12.7-1.8c6.4-1.2,13.9-6.5,8.6-13.6c-4-5.3-14.4-4-20.2-3.6c-6.8,0.5-13.6,1.4-20.4,1.6
					c-6.6,0.1-13.2,0.6-19.7,1.8c-5.8,1-14,2.7-18.4,6.9C284.1-793.7,291.1-786.6,295.8-791L295.8-791z"/>
			</g>
		</g>
	</g>
	<g id="Layer_32">
		<g>
			<path class="st3" d="M309.7-797.1c0-0.8,0-1.5,0-2.3c0-0.9,0.3-1.9,0.5-2.7c0.3-1.1,1-2.2,1.5-3.2c0.2-0.4,0.4-0.7,0.7-1
				c0.3-0.4,0.6-0.8,0.9-1.3c0.6-0.8,1.1-1.5,1.8-2.1c0.8-0.7,1.5-1.6,2.2-2.3c0.3-0.3,0.4-0.6,0.7-0.8c0.4-0.2,0.7-0.4,1.1-0.6
				c0.3-0.2,0.5-0.5,0.8-0.7c0.3-0.2,0.6-0.2,0.9-0.4c0.6-0.3,1.2-0.5,1.8-0.8c0.6-0.3,1.2-0.6,1.9-0.8c0.6-0.2,1.2-0.6,1.8-0.7
				c0.7-0.1,1.4-0.2,2-0.4c0.6-0.2,1.4,0,2,0c0.8,0,1.7,0,2.5,0c0.7,0,1.6-0.1,2.2,0.2c0.9,0.4,1.7,1.2,2.5,1.8
				c0.6,0.5,1.2,0.6,1.9,0.8c0.8,0.2,1.7,0.7,2.4,1.2c1.3,1,2.8,1.9,3.9,3.2c0.7,0.7,1,1.6,1.4,2.5c0.3,0.8,0.7,1.5,0.8,2.5
				c0.1,0.7,0.1,1.9-0.1,2.5c-0.2,0.5-0.7,0.7-1,1.1c-0.3,0.4-0.7,0.7-1.1,1c-0.2,0.2-0.5,0.3-0.8,0.4c-0.7,0.2-1.3,0.5-1.9,0.7
				c-1.1,0.4-2.3,0.8-3.4,1.2c-1.4,0.5-2.8,0.9-4.2,1.4c-0.8,0.2-1.5,0.6-2.3,0.8c-0.7,0.2-1.5,0.3-2.3,0.4
				c-1.4,0.1-2.8-0.1-4.2,0.2c-1.2,0.2-2.6,0.5-3.8,0.4c-0.8,0-1.7,0.1-2.5-0.1c-0.6-0.1-1.2-0.3-1.7-0.4c-0.7-0.1-0.9-0.2-1.2-1
				c-0.5-1.5,0.3-3,1.2-4c0.4-0.5,0.8-0.9,1.2-1.3c0.9-0.9,1.9-1.4,3-1.8c1.5-0.7,2.9-1.6,4.6-1.7c1.4,0,2.7-0.2,4-0.2
				c0.9,0,2-0.2,2.6,0.6c0.6,0.8,0.5,1.9,0.1,2.8c-0.7,1.5-1.7,2.4-3.1,3c-1.1,0.5-2.5,0.8-3.5-0.2c-0.9-1-0.8-2.5-0.2-3.6
				c1-1.8,3.1-2.7,4.9-3.1c1.1-0.3,2.5-0.4,3.4,0.5c1,0.9,0.9,1.9,0.2,3c-0.6,0.9-1.3,1.6-2.1,2.3c-1.3,1.2-2.5,2.4-4,3.1
				c-2.6,1.3-6,1.1-8.1-1.3c0.8-0.4,2.1-0.6,3-0.5c1.7,0.2,1.3,1.8,0.5,3c-0.8,1.2-2.3,2.6-3.6,3c-1.2,0.4-2.4,0.3-3.6,0.4
				c-1.1,0-2.5,0.6-3.6,0.1c-0.6-0.3-1.2-0.7-1.8-1c-0.4-0.2-1-0.5-1.2-0.9c0.3-0.1,0.7,0.1,1,0.3c0.7,0.2,1.3,0.4,2,0.5
				c1.3,0.2,2.5,0.2,3.8,0.2c1.5,0,2.9,0,4.4-0.2c1.2-0.2,2.4-0.3,3.5-0.5c1.2-0.2,2.3-0.4,3.5-0.5c0.7-0.1,1.4-0.4,2.1-0.4
				c0.7,0,1.3-0.2,2-0.4c0.6-0.1,1.2-0.1,1.8-0.4c1.2-0.7,2.5-1.4,3.7-2c1.1-0.6,2.4-0.6,3.5-1c1.1-0.4,2.3-0.7,3.4-0.9
				c0.6-0.1,1-0.5,1.5-0.7c0.3-0.2,0.5-0.4,0.7-0.7c0.2-0.2,0.5-0.2,0.6-0.4c-0.1-0.1-0.2-0.1-0.3,0"/>
			<g>
				<path class="st3" d="M314.7-797.1c0-5.6,3.9-10.4,8.7-13c1.8-1,3.9-2,6-2.1c3-0.2,4.8,0.8,7.3,2.2c2.5,1.3,6.6,2.8,6.4,6.4
					c0.1-2.2,0.4-0.5-1.2-0.4c-1.7,0.1-3.8,1.3-5.5,1.9c-5.1,1.7-11.7,3.4-17,1.7c1,0.8,2,1.5,3,2.3c0.3,0.5,5.4-2,5.6-2
					c1-0.2,2-0.2,3-0.3c1.3-0.1,1.6,0.5,0.8-0.1c-0.8-1-1.5-2-2.3-3c-0.2-0.7,3.4,2.7,3.3,2.7c0.4-0.1,0.7-0.2,1.1-0.3
					c-0.5-3.8-1.4-4.9-2.7-3.1c-1.7,0.7-3.3,4.6-5.6,2.5c-0.7,2.8-1.5,5.6-2.2,8.4c0-0.2,0-0.4,0-0.7c-0.8-1-1.5-2-2.3-3
					c0.5-1.6,0.3-1.8-0.7-0.5c-0.9,0-1.8,0.1-2.6,0.2c-1.1,0-1.5,0.5-2.4-0.4c-1.6,2.8-3.2,5.6-4.9,8.4c7.6,2,15,0.7,22.6-0.6
					c3.4-0.6,5.7-2.1,8.9-3.3c3.5-1.3,6.6-1.8,9.8-3.8c3.2-2.1,3.4-8.5-1.2-9.1c-0.1,0-0.2,0-0.3,0c-6.3-0.9-9,8.8-2.7,9.6
					c0.1,0,0.2,0,0.3,0c-0.4-3-0.8-6.1-1.2-9.1c-2.5,1.6-5.1,2-7.9,3.1c-2.3,0.8-4.3,2.3-6.7,2.9c-6.1,1.3-12.9,2.5-18.9,0.8
					c-4.7-1.3-8.6,4.9-4.9,8.4c5.2,4.8,14.6,4.8,19.7-0.3c6.5-6.4,1.7-15-7.2-12.2c-3.4,1.1-5.1,5.7-2.2,8.4
					c7.1,6.5,17.4,2.6,22-5.2c2-3.4,1.2-7.6-2-9.9c-3.3-2.3-7.9-1.3-11.2,0.6c-7.5,4.4-6,17.7,4.1,15.4c8-1.8,12.3-15,2.1-16.6
					c-7.5-1.1-19,2.8-20.7,11.2c-2.2,10.6,10.4,9.3,16.9,8.8c4.1-0.3,7.6-1.5,11.4-2.8c3.9-1.3,8.2-2.5,10.7-6.1
					c2.2-3.2,1.2-7.5-0.3-10.8c-2.1-4.7-6.3-6.7-10.6-9.1c-1.9-1.1-3.3-2.5-5.5-2.9c-1.9-0.4-4.1-0.3-6-0.2
					c-3.8,0.2-7.3,1.6-10.6,3.3c-8.1,4.2-14.1,12.6-14.1,21.9C304.7-790.6,314.7-790.6,314.7-797.1L314.7-797.1z"/>
			</g>
		</g>
	</g>
	<g id="Layer_31">
		<g>
			<path class="st10" d="M291.5-788.6c0.2,0.2,0.3,0.7,0.4,0.9c0.2,0.6,0.4,1.3,0.6,1.9c1.1,2.6,3.3,4.4,4.8,6.7
				c1.4,2,3.2,3.6,4.9,5.4c2.2,2.3,5.4,4,8.4,5c2.7,0.9,5.3,1.6,8.1,2.1c3.2,0.6,6.6,0.7,9.9,0.7c4.2,0,8.2-0.2,12.2-1.3
				c3-0.8,5.6-2.5,8.2-4.2c1-0.6,1.9-1.2,2.8-1.9c1.3-1,2.6-1.7,3.8-2.8c1-0.9,2-1.7,2.8-2.7c0.7-0.9,1.4-1.8,2.1-2.7
				c0.6-0.8,1.1-1.7,1.7-2.6c0.6-0.9,1.2-1.7,1.6-2.7c0.3-0.7,0.5-1.4,0.9-2c0.5-0.9,0.8-1.9,1.3-2.9c1.2-2.1,1.8-4.5,1.8-7
				c0-0.7,0.7-2.1-0.3-2.3c-0.9-0.2-2.1,1.2-2.7,1.7c-0.7,0.6-1.5,1-2.3,1.5c-0.7,0.4-1.5,0.8-2.3,1.1c-1.3,0.4-2.5,0.8-3.8,1.2
				c-1.3,0.4-2.7,0.7-4,1.1c-3.5,1.2-7.1,2.1-10.8,3c-0.7,0.2-1.4,0.3-2.2,0.4c-1.2,0.1-2.3,0.5-3.5,0.6c-1.6,0.3-3.3,0.5-5,0.5
				c-0.7,0-1.4,0.1-2.1,0.2c-1,0.1-2,0-2.9,0c-2.3,0-4.5,0-6.8,0c-1,0-1.9-0.2-2.9-0.2c-0.9,0-1.8,0-2.7,0c-1.1,0-2.3-0.2-3.4-0.2
				c-0.9,0-1.8,0-2.7,0c-1.1,0-2.2,0-3.3-0.1c-1.4-0.2-2.8,0.1-4.1-0.2c-0.4-0.1-0.7-0.1-1-0.1c-0.3,0-0.6-0.2-0.9-0.2
				c-0.5-0.1-0.9,0-1.4-0.1c-0.5-0.1-1-0.1-1.6-0.1c-1,0-2,0.1-2.2,1.2c-0.3,1.5,0.5,2.7,1.5,3.7c1,0.9,2.1,1.7,3.3,2.3
				c1.2,0.6,2.4,1.4,3.6,2c3.3,1.5,6.6,2.4,10.2,2.7c3.4,0.3,7.3,0.1,10.6-0.9c1.7-0.5,3.3-1.1,5-1.5c2.4-0.6,4.8-1.3,7.2-2.1
				c2.2-0.8,4.4-1.8,6.5-2.9c1.4-0.8,2.7-1.8,4-2.6c0.5-0.3,1-0.6,1.5-0.9c0.7-0.4,1.3-1,2.1-1.3c0.7,0.6-0.3,2.7-0.5,3.4
				c-0.6,1.9-1.3,3.5-2.3,5.2c-1.2,1.8-2.6,3-4.3,4.2c-0.7,0.5-1.4,1-2.2,1.3c-1.3,0.7-3,1-4.4,1.4c-2.4,0.7-5,0.9-7.4,1.1
				c-1.5,0.1-3.2,0.4-4.7,0.3c-1.2-0.1-1.9-1.1-3.1-0.5c-0.5,0.3-1.1,0.8-1,1.4c0.1,1.7,2.5,1.7,3.6,1.8c3.2,0.2,6.4-1.3,9.2-2.6
				c3.1-1.5,6.1-3.1,9.1-4.9c2.5-1.5,5.1-2.9,7.4-4.6c1.3-1,2.6-2,3.8-3.1c0.8-0.7,1.6-1.5,2.4-2.1c0.5-0.4,1-0.4,1.6-0.6
				c0.7,0.7-1.6,2.6-2.1,3.1c-0.7,0.7-1.4,1.8-2.4,2.1c-0.1-0.4,0.3-0.8,0.5-1c0.6-0.8,1.3-1.7,2.1-2.4c0.5-0.4,1-0.8,1.5-1.3
				c0.4-0.4,0.8-0.9,1.3-1.3c0,0.3-1,1.2-1.3,1.4c0.3,0.1,0.6-0.1,0.9-0.5c0.7-0.5,1.4-0.9,2.1-1.4c0.6-0.5,1-1,1.4-1.5
				c0.3-0.4,1.3-0.9,1.3-1.3c-0.8,0.5-1.6,1.1-2.3,1.8c-1.5,1.2-3.2,2.2-5,2.9c-3.5,1.3-7,2.5-10.5,3.6c-1.3,0.4-2.6,0.9-3.9,1.2
				c-2.2,0.5-4.3,1.2-6.5,1.6c-2.8,0.5-5.7,1-8.5,1.5c-3.3,0.6-6.6,0.8-10,1c-2.3,0.2-4.6,0.1-6.8,0.1c-1.7,0-3.1-0.5-4.6-1.2
				c-1.4-0.6-2.8-1.6-4.1-2.3c-0.7-0.4-1.4-0.9-2.2-1.3c-0.6-0.3-1.3-0.6-1.8-1.1c-0.5-0.5-0.9-1.1-1.4-1.6
				c-0.4-0.4-0.7-0.9-1.2-1.2c-0.4-0.3-1.2-1.2-1.7-1.2c0.6,0.7,1.5,0.9,2.3,1.1c2.1,0.6,4.3,0.9,6.4,1.2c3,0.4,5.9,1,8.8,1.5
				c3.7,0.6,7.5,0.9,11.3,1.1c3.5,0.2,7,0.4,10.5,0.3c2.6,0,5.3-0.3,8-0.5c2.2-0.2,4.5-0.5,6.6-1.1c0.8-0.2,1.6-0.5,2.5-0.7
				c0.4-0.1,1-0.1,1.3-0.4c-0.1,0-0.1,0-0.2-0.1"/>
			<g>
				<path class="st10" d="M286.6-787.3c3.3,8,9.3,16.3,17,20.8c8.6,5.1,19.7,6.1,29.4,5.5c10.1-0.6,18.5-5.1,26.2-11.6
					c6.3-5.4,12.2-15,13.4-23.3c0.5-3.5,1.1-7.4-2.5-9.4c-4.4-2.5-7.6,2.2-11.2,3.7c-8.6,3.5-18.6,5.8-27.8,6.6
					c-9.3,0.8-18.8,0-28.1-0.4c-3.6-0.2-7.7-1.5-11.2,0c-4.1,1.9-4.7,7-2.4,10.7c2.3,3.8,7.3,6.2,11.2,7.8
					c5.4,2.3,11.5,3.2,17.3,2.6c12.1-1.2,23.1-6.7,33.2-12.9c-2.4-1-4.9-2-7.3-3c-0.3-0.9,0.4-1.3-0.2,0c-0.3,0.7-0.4,1.4-0.7,2.1
					c-0.9,2.1-2.1,3.7-3.9,5c-3.6,2.6-8.8,3-13.1,3.3c-3.4,0.2-6.4-1.3-9.5,0.9c-2.9,2.1-3.6,6.1-1.4,9c4.6,6,14.5,1.8,19.8-0.7
					c4.1-2,8.1-4.3,12.1-6.7c1.9-1.2,3.7-2.4,5.5-3.8c1.4-1.1,3.2-3.4,4.8-3.9c-2.1-1.2-4.1-2.3-6.2-3.5c0,0.2,0.1,0.4,0.1,0.5
					c0.2-1.3,0.3-2.6,0.5-3.9c-0.5,0.9-1.9,2.4-2.8,2.9c2.4,1.9,4.9,3.8,7.3,5.6c-1.1,1.6-1,1.6,0.3-0.1c0.5-0.5,0.9-1,1.5-1.5
					c0.8-0.8,1.6-1.5,2.4-2.2c-2.6-2-5.2-4-7.9-6.1c-0.2,0.1-0.3,0.3-0.5,0.4c-4.2,4,1.2,10.5,6.1,7.9c2.6-1.4,4.8-3.3,6.7-5.5
					c3.4-4-1.1-11.4-6.1-7.9c-10.2,7.4-23.3,10.1-35.6,12c-5.6,0.9-13.7,2.3-18.9-0.2c-2.2-1.1-4.6-2.4-6.4-4
					c-1.6-1.4-2.7-2.9-4.6-4.1c-5.6-3.4-10.2,5-5,8.6c4.2,2.9,10.4,2.9,15.3,3.7c6,1,11.8,1.7,17.9,1.9c9.6,0.4,20.6,0.7,29.6-3.1
					c4.2-1.8,2.5-8-1.2-9.1c-0.1,0-0.1,0-0.2-0.1c-6.2-1.9-8.8,7.8-2.7,9.6c0.1,0,0.1,0,0.2,0.1c-0.4-3-0.8-6.1-1.2-9.1
					c-6.9,3-17.1,2.1-24.6,1.8c-5.1-0.2-10.1-0.7-15.2-1.6c-3.8-0.6-9.6-0.4-12.9-2.7c-1.7,2.9-3.4,5.8-5,8.6c2,1.2,3.2,3.4,5.1,4.7
					c2.6,1.7,5.5,3.4,8.4,4.6c6.4,2.6,14.4,1.4,21.1,0.5c14.1-1.9,29.4-5,41-13.5c-2-2.6-4-5.2-6.1-7.9c-1.3,1.6-2.8,3-4.7,3.9
					c2,2.6,4,5.2,6.1,7.9c0.8-0.8,1.4-1.6,2.1-2.4c3.5-4.8-3.8-9.6-7.9-6.1c-2.5,2.3-5.8,4.8-6.8,8.2c-1.2,4.2,3.6,7.8,7.3,5.6
					c3.8-2.2,7.6-6.3,6.8-10.9c-0.5-2.6-3.8-4.2-6.2-3.5c-2.6,0.8-4.2,2.3-6.2,4c-3,2.5-6.1,4.5-9.5,6.5c-3,1.8-13.9,9.6-17.3,7
					c0.8,1,1.5,2,2.3,3c0,0.3,0,0.7,0,1c-0.8,1-1.5,2-2.3,3c-0.6,0.5-1.7,0,0,0.4c0.9,0.3,2,0.2,2.9,0.2c2.5,0,5.1-0.4,7.5-0.8
					c4.3-0.6,8.6-1.6,12.2-4c4.9-3.3,11.9-11.9,9.5-18.4c-1.1-2.9-4.4-4.8-7.3-3c-5.1,3.1-9.8,6.3-15.6,8.1
					c-6.1,1.9-12.4,4.1-18.8,3.5c-3.1-0.3-6.1-1.2-8.9-2.6c-1-0.5-2-1.1-3-1.7c-0.6-0.3-1.2-0.7-1.7-1.2c-0.9,1.2-1.9,2.4-2.8,3.6
					c0.1,0.3,5.7,0.7,6.3,0.7c2.7,0.2,5.4,0.1,8,0.2c10.5,0.2,20.5,0.8,31-1c5.4-0.9,10.6-2.6,15.8-4.2c2.3-0.7,4.7-1.3,6.9-2.3
					c1.8-0.8,3.8-3.1,5.6-3.5c-1.6-0.4-3.2-0.9-4.9-1.3c0.2,0.2,0.4,0.4,0.5,0.5c-0.5-1.2-1-2.4-1.5-3.5
					c-1.3,13.9-14.2,27.6-28.2,29.3c-7.9,0.9-16.5,0.3-23.9-2.8c-6.3-2.6-12.2-9.8-14.8-16C293.9-795.8,284.2-793.3,286.6-787.3
					L286.6-787.3z"/>
			</g>
		</g>
	</g>
	<path class="st5" d="M534.5-651.5l-16.3,18.9c-1.6,1.9-2.5,4.3-2.5,6.8v23.6c0,5.7-4.6,10.3-10.3,10.3h-25.6
		c-5.7,0-10.3-4.6-10.3-10.3v-165.7c0-5.7,4.6-10.3,10.3-10.3h25.6c5.7,0,10.3,4.6,10.3,10.3v47.4c0,9.6,11.9,14,18.2,6.8
		l152.4-176.2c8.3-9.6,22.6-11.1,32.8-3.5l0,0c8.2,6.2,9.5,18,2.8,25.8L579.2-702.8c-3.2,3.7-3.4,9-0.5,12.9l60,81.6
		c5,6.8,0.1,16.5-8.3,16.5h-32.1c-3.3,0-6.5-1.6-8.4-4.3l-39.1-54.6C546.9-656.2,538.9-656.6,534.5-651.5z"/>
	<g>
		<path class="st1" d="M730.1-871.2c-0.3-2.3-1.8-2.5-3.7-2.5c-1.7,0-3.3,0.1-4.9,0.3c-2.4,0.3-4.9,0.2-6.9,1.7
			c-6.5,4.6-9.4,19.9-1.1,24.2c5.9,3,12.9-0.5,16.7-5.2c3.1-3.7,4.4-10,3-14.7c-0.9-3.1-5.1-5.3-8-6.3c-4.9-1.6-11.3,2.2-13.1,6.8
			c-2,5.2-1.9,11.3,2.9,14.9c4.2,3.1,10.6,2.3,13.8-1.8c2.6-3.4,3.5-7.6,2-11.5c-1.8-4.5-8.4-6.5-12.4-3.3c-2.2,1.7-4,6.5-4.5,9.1
			c-0.7,3.6,0.2,6.4,2.9,9c1.8,1.8,4,3.6,6.5,1.9c2.1-1.4,3.2-4.8,3.9-7.1c0.6-2.3,2.4-8.8-0.6-10.3c-4.7-2.4-9.2,4.4-10,8.4
			c-0.5,2.3-0.1,5.5,1.4,7.4c1.8,2.3,6.5,3.6,9.1,1.9c2-1.3,2.6-4.8,3.1-7c0.6-2.5,1.5-5.7,1.2-8.3c-0.5-5.1-6.6-5.2-10.2-3.7
			c-2.8,1.1-5.9,3.2-6.7,6.4c-0.7,2.9,1.1,4.9,3.9,5.1"/>
		<g>
			<path class="st10" d="M731.8-871.2c-0.1-7-9.9-6.1-14.7-5.5c-6.5,0.8-10.4,6.3-12.3,12.2c-1.8,5.8-1.7,12.9,2.2,17.8
				c4.7,5.9,12.9,6.4,19.4,3.3c14.9-7.1,18.2-31.2-0.4-35.8c-17.2-4.3-28.4,20.5-15.2,31.4c6.1,5.1,15.5,4.7,21.2-0.8
				c5.9-5.6,7.5-16.3,1.8-22.6c-4.8-5.2-13.4-6.4-19-1.9c-5.8,4.6-8.9,14.8-6,21.6c3.3,8,13.5,13.6,20.1,5.9
				c3.9-4.5,6.4-13.7,4.9-19.6c-2.2-8.2-12.1-8.7-17.6-3.4c-5.3,5.2-7.8,13.8-4.1,20.6c4.1,7.5,16.7,9.1,21.2,1.2
				c3.6-6.3,6.1-18.7-0.1-24c-6.1-5.2-16.2-2.2-21.2,3.1c-6.8,7.2-2.6,17.9,7.5,16.5c3.9-0.6,4.3-6.6,1.1-8.2c-1-0.5-0.5-0.4,1-1.5
				c0.8-0.6,2.6-1.6,3.7-1.4c1.3,0.3,0.8,0.2,0.3,2.5c-0.4,1.8-0.8,3.6-1.4,5.3c-0.1,0.7-0.4,1.3-0.7,1.9c0.5-0.7,0.2-1-0.8-1.1
				c-0.5-1-0.5-2.1-0.2-3.2c0.3-1.2,2-2.5,2.1-3.4c0.2-1.5-1.8-2.1-2.5-1.3c-0.2,0.2-1.9,8.6-2.3,8.1c2.6,0.3,3,0,1.2-1.2
				c-0.7-0.6-1.2-1.3-1.4-2.1c-0.3-1.4,0.5-3.4,1.1-4.7c0.8-1.8,2.5-4.4,4.5-1.8c2.1,2.6-1,7-3.8,7.4c-7.5,0.9-5.6-12.4,1.2-12.6
				c9.8-0.2,5,12.5,0,15.6c-7.1,4.3-10.7-1.6-9.4-8.1c0.5-2.4,1.6-5.6,3.5-7.2c1.3-1.1,10.7-3.9,11.8-2.1
				C729.4-868.8,731.9-869.4,731.8-871.2L731.8-871.2z"/>
		</g>
	</g>
	<g>
		<g>
			<path class="st5" d="M723.1-840.7c0.2,3.8-0.6,7.6-0.4,11.5c0.2,4.1,0.4,8.1,0.4,12.2c0,9.5,0,19,0,28.4c0,4.4,0,8.7,0,13.1
				c0,4.6-0.7,8.8-1.2,13.3c-1,8.5,0.4,17.1,0.3,25.6c0,1.9,3,1.9,3,0c0.1-9-1.5-18-0.1-27c1.3-8.3,1-16.6,1-25c0-9.5,0-19,0-28.4
				c0-4.1-0.3-8.1-0.4-12.2c-0.1-3.9,0.6-7.7,0.4-11.5C726-842.6,723-842.6,723.1-840.7L723.1-840.7z"/>
		</g>
	</g>
	<g>
		<path class="st1" d="M730.4-736.3c0-0.1-0.1-0.2-0.1-0.3c-0.8-0.1-1.2-0.8-1.9-1.1c-1-0.4-2.4-0.2-3.5-0.2c-2.3,0-3.7,2-4.5,4
			c-0.4,1.1-1,2.2-1.1,3.4c0,1.1-0.3,2.9,0.4,3.7c1,1.4,3.3,1.4,4.8,1.1c1.9-0.3,3-1.4,4-3c0.7-1.1,1.3-3.4,0.3-4.4
			c-2.4-2.4-7.4-1.3-8.8,1.6c-0.9,1.9-0.5,4,1.5,4.7c2.5,0.8,5.3,0,6.6-2.4c0.5-0.9,1.1-3.2,0.6-4.2c-0.9-1.6-2.5-2.7-4.3-2.2
			c-2.2,0.7-3.8,3.9-3.5,6.1c0.3,2.1,3.4,3.4,5.2,2.4c1.8-1,2.5-4,1.6-5.7c-1.2-2.2-3.7-1.8-5.2-0.1c-0.7,0.8-1.3,1.7-1.4,2.8
			c-0.1,1.1,0.7,1.4,1.8,1.5c2.4,0,4.7-3.4,5.3-5.5c-1.1,0.5-2.5,2-3,3.1c-0.6-0.1-1.2-1.2-1.1-1.9c0,0.8,0,1.5,0,2.3"/>
		<g>
			<path class="st10" d="M731.9-736.7c-0.5-2.2-4-2.7-5.9-2.7c-2.7,0-4.7,0.9-6.1,3.3c-2.3,3.8-4,11.5,2.4,12c2.6,0.2,5-0.6,6.7-2.6
				c1.4-1.7,2.7-4.6,1.5-6.7c-2.3-4.2-9.5-2.7-11.6,0.9c-3,5.3,3.1,9.1,7.7,6.7c4.3-2.2,5.6-9.2,0.3-11.2c-4.8-1.8-9.5,5.4-6.7,9.4
				c3,4.4,9.1,1.9,9.4-3c0.1-2.5-1.4-5.1-4.1-5.3c-2.7-0.1-5.2,2.4-5.7,4.9c-0.6,2.8,1.9,4.3,4.4,3.5c2.8-0.8,4.6-3.9,5.6-6.4
				c0.5-1.3-1.1-2.3-2.2-1.7c-1.5,0.8-2.7,2.1-3.6,3.6c0.7-0.2,1.4-0.4,2.1-0.5c-0.1-0.2-0.2-0.4-0.4-0.6c-0.2-1.9-3-2-3,0
				c0,0.8,0,1.5,0,2.3c0,1.9,3,1.9,3,0c0-0.8,0-1.5,0-2.3c-1,0-2,0-3,0c0.1,1.4,0.6,2.4,1.8,3.1c0.7,0.4,1.7,0.2,2.1-0.5
				c0.6-1.1,1.4-1.9,2.5-2.5c-0.7-0.6-1.5-1.1-2.2-1.7c-0.5,1.3-1.2,2.7-2.3,3.6c-0.5,0.4-1.3,1.1-1.6,0.5c-0.3-0.7,1-1.8,1.6-2.1
				c3.5-1.6,1.9,7.3-1.6,3.6c-1-1.1-0.4-2.9,0.4-3.9c1.4-1.8,4.1-1.3,4,1.2c-0.1,1.2-0.8,2.4-1.8,3c-1.3,0.8-4.3,1.2-4.6-1
				c-0.3-2.6,4.3-4.2,6.1-2.9c1.4,1,0.2,3-0.6,4c-1,1.1-2.3,1.6-3.7,1.5c-3.6-0.2-1.6-5.4-0.5-7.3c1-1.7,2.2-2.2,4.1-2.1
				c1.4,0.1,2.3,0.9,3.6,1.3c-0.3-0.3-0.7-0.7-1-1c0,0.1,0.1,0.2,0.1,0.3C729.4-734,732.3-734.8,731.9-736.7L731.9-736.7z"/>
		</g>
	</g>
	<g>
		<g>
			<path class="st6" d="M724.5-723c0.1,0,0.2,0,0.3,0.1c-0.4-0.5-0.7-1-1.1-1.4c0,1.7-0.4,4.1-0.9,5.8c-0.3,0.9,0.5,2,1.4,1.9
				c4.2-0.4,7.6-0.4,9.2,4.6c0.6,1.8,1,3.9,0.7,5.8c-0.8,4.8-5.2,6.4-8.9,2.9c-1.4-1.3-3.5,0.8-2.1,2.1c5.8,5.4,13.8,2,14.1-5.8
				c0.1-3.7-0.9-8.5-3.6-11.3c-2.9-3-5.8-1.6-9.3-1.3c0.5,0.6,1,1.3,1.4,1.9c0.6-2.1,1.1-4.5,1-6.6c0-0.6-0.5-1.3-1.1-1.4
				c-0.1,0-0.2,0-0.3-0.1C723.4-726.3,722.6-723.4,724.5-723L724.5-723z"/>
		</g>
	</g>
	<g>
		<g>
			<path class="st6" d="M718.1-870c1.8,0.9,3.7-1.3,5.3-1.8c4.9-1.6,7.8,3.8,8.2,8c0.2,1.9,3.2,1.9,3,0c-0.3-4.3-2.2-8.7-6.3-10.8
				c-3.6-1.8-7,0.4-10,2.1c0.5,0,1,0,1.5,0c-0.1,0-0.1-0.1-0.2-0.1C717.9-873.5,716.4-870.9,718.1-870L718.1-870z"/>
		</g>
	</g>
	<g>
		<g>
			<path class="st6" d="M314.7-802.7c0,0.1,0,0.1,0,0.2c1,0,2,0,3,0c0-6,7.1-11.8,12.8-12.9c-0.6-0.3-1.2-0.7-1.8-1
				c0,0.1,0,0.2,0,0.2c0.3,1.9,3.2,1.1,2.9-0.8c0-0.1,0-0.2,0-0.2c-0.1-0.8-1.1-1.2-1.8-1c-7,1.3-15,8.4-15,15.8c0,1.9,3,1.9,3,0
				c0-0.1,0-0.1,0-0.2C317.7-804.6,314.7-804.6,314.7-802.7L314.7-802.7z"/>
		</g>
	</g>
	<g class="st7">
		<g class="st8">
			<path class="st6" d="M649.8-730.8C649.8-730.8,649.8-730.8,649.8-730.8c0.2,0.2,0.5,0.4,0.8,0.7c0.1,0.1,0.1,0.3,0.1,0.4
				c0-0.5,0,0.1,0-0.2c0-0.1,0,0,0,0c0,0.1,0.2-0.2,0-0.1c0,0,0.2-0.1,0.1-0.1c0,0,0.2-0.1,0.1,0c0.2-0.1,0.1,0.1,0,0
				c0,0-0.2-0.2,0,0.1c0.6,0.6,1.5,0.6,2.1,0c0.6-0.6,0.6-1.6,0-2.1c-0.6-0.6-1.3-0.9-2.2-0.9c-0.8,0-1.6,0.4-2.2,0.9
				c-1.1,1-1.6,3.6,0.3,4.1c0.8,0.2,1.6-0.3,1.8-1C651.1-729.7,650.6-730.6,649.8-730.8L649.8-730.8z"/>
		</g>
	</g>
	<g id="anker">
		<g>
			<g>
				<path class="st5" d="M334.2-788.4c0-0.1,0-0.1,0-0.2c-0.3,0.1-0.6,0.2-0.9,0.3c0.9,1.3,1.1,3.3,1.5,4.8c0.3,1.7,0.6,3.4,1,5.1
					c0.8,3.6,1.7,7.2,2.4,10.9c0.3-0.1,0.6-0.2,1-0.3c-0.1-0.4-0.1-0.7-0.2-1.1c-0.1-0.6-1.1-0.4-1,0.3c0.1,0.4,0.1,0.7,0.2,1.1
					c0.1,0.6,1.1,0.4,1-0.3c-0.8-3.9-1.8-7.8-2.6-11.8c-0.6-2.8-0.6-6.9-2.4-9.2c-0.3-0.4-0.9-0.3-0.9,0.3c0,0.1,0,0.1,0,0.2
					C333.2-787.7,334.2-787.7,334.2-788.4L334.2-788.4z"/>
			</g>
		</g>
		<g>
			<g>
				<path class="st5" d="M327.5-777.6c0,0,0-0.1,0-0.1c-0.3,0.1-0.6,0.2-1,0.3c1.3,6,5.6,11.8,12.6,10.3c2.6-0.6,3.7-2.6,4.6-4.9
					c0.6-1.5,1-3,1-4.6c0-1.2,0.5-3.7-0.2-4.5c0.4,0.5,1.1-0.2,0.7-0.7c-0.3-0.3-0.4-0.3-0.8-0.4c-0.2,0-0.4,0.1-0.4,0.2
					c-0.6,1.1-0.2,3.3-0.2,4.5c0,2.5-0.7,5.5-2.2,7.6c-2,2.7-6.7,2.2-9.2,0.5c-2.8-1.9-4.1-5.2-4.8-8.4c-0.1-0.6-1.1-0.4-1,0.3
					c0,0,0,0.1,0,0.1C326.7-776.7,327.6-776.9,327.5-777.6L327.5-777.6z"/>
			</g>
		</g>
		<g>
			<g>
				<path class="st5" d="M341.9-778.7c0.8-0.1,1.5-0.1,2.3-0.1c0.6,0,1.3-0.1,1.9,0c0.3,0,0.6-0.3,0.5-0.6c-0.4-1.3-1-2.8-2.5-2.7
					c-1.4,0.1-2.9,1.8-2.7,3.2c0.1,0.4,0.6,0.4,0.8,0.2c0.3-0.2,0.5-0.5,0.7-0.8c0.2-0.2,0.6-0.7,0.9-0.7c0.1,0,0.6,0.1,0.5,0.1
					c0.2-0.2-0.3-0.3-0.3-0.3c-0.3-0.2-0.6-0.2-0.9-0.2c0,0.3,0,0.7,0,1c0.3,0,0.7,0.1,1,0.2c0-0.3,0-0.6,0-1c-0.1,0-0.2,0-0.3,0
					c-0.6,0.1-0.4,1.1,0.3,1c0.1,0,0.2,0,0.3,0c0.5-0.1,0.5-0.9,0-1c-0.4-0.1-0.8-0.2-1.3-0.2c-0.6,0-0.7,1,0,1
					c0.6,0,1.2,0.6,1.9,0.2c0.6-0.3,0.5-0.9,0.1-1.3c-1.5-1.5-2.6,0.4-3.7,1.3c0.3,0.1,0.6,0.1,0.8,0.2c-0.1-0.4,0.4-1,0.6-1.3
					c0.3-0.4,0.9-0.8,1.5-0.6c0.8,0.2,1,1.3,1.2,1.9c0.2-0.2,0.3-0.4,0.5-0.6c-0.7,0-1.5,0-2.2,0c-0.8,0-1.5,0-2.3,0.1
					C341-779.5,341.3-778.6,341.9-778.7L341.9-778.7z"/>
			</g>
		</g>
		<g>
			<g>
				<path class="st5" d="M324.5-777.3C324.4-777.3,324.4-777.3,324.5-777.3c-0.7,0.1-0.4,1.1,0.2,1c0.9-0.2,1.8-0.3,2.7-0.5
					c0.4-0.1,0.7-0.1,1.1-0.3c0.3-0.1,0.6-0.4,1-0.5c0.5-0.1,0.4-0.8,0-1c-0.8-0.3-1.2-1.1-2-1.4c-0.6-0.2-1.4-0.2-1.9,0.1
					c-1,0.4-1.3,2.3-1,3.2c0.1,0.3,0.7,0.3,0.9,0c0.2-0.4,0.3-0.8,0.6-1.1c0.2-0.3,0.5-0.5,0.8-0.6c0.3-0.1,0.7,0,0.9-0.1
					c0.2,0.1,0.3,0.1,0.2-0.1c0.1-0.1,0-0.2-0.1-0.1c-0.1-0.1-0.6,0-0.9,0c-0.4-0.1-0.7-0.1-1.1,0c-0.3,0.1-0.5,0.4-0.3,0.7
					c0.3,0.5,0.9,0.4,1.4,0.6c0-0.3,0-0.6,0-1c-0.2,0.1-0.5,0.1-0.7,0.1c0.2,0.1,0.3,0.2,0.5,0.4c0,0,0-0.1,0-0.1
					c0.2-0.6-0.8-0.9-1-0.3c-0.1,0.3-0.1,0.4,0,0.7c0.1,0.2,0.3,0.4,0.5,0.4c0.3,0,0.6-0.1,1-0.2c0.5-0.1,0.5-0.8,0-1
					c-0.1,0-0.8-0.1-0.8-0.1c-0.1,0.2-0.2,0.5-0.3,0.7c0.8-0.3,1.7,0.4,2.5-0.3c0.5-0.4,0.4-1-0.1-1.3c-0.7-0.4-1.7-0.3-2.4,0
					c-0.9,0.4-1.3,1.2-1.6,2c0.3,0,0.6,0,0.9,0c-0.1-0.3,0.1-1.2,0.2-1.4c0.2-0.4,0.6-0.5,1.1-0.5c0.9,0.1,1.5,1.1,2.3,1.4
					c0-0.3,0-0.6,0-1c-0.3,0.1-0.5,0.2-0.7,0.3c-0.4,0.2-0.9,0.3-1.4,0.4C326.2-777.5,325.3-777.4,324.5-777.3c0,0.3,0.1,0.7,0.2,1
					c0,0,0,0,0.1,0C325.4-776.4,325.1-777.4,324.5-777.3L324.5-777.3z"/>
			</g>
		</g>
		<g>
			<g>
				<path class="st5" d="M333.3-793.9c-3.2,0.8-2.1,7.6,0.9,6.1c1.3-0.6,1.6-3.1,0.6-4.1c-1-1.1-2.9-1.4-3.3,0.3
					c-0.3,1.4,0.2,3.3,2,3.3c1.6,0,2.3-2,1.8-3.3c-0.5-1.3-2.3-1.3-3-0.2c-0.7,1-1.1,3.3,0.7,3.1c0.9-0.1,2.4-1.8,1.4-2.6
					c-0.5-0.4-1.3,0-1.6,0.5c-0.5,0.8,0,1.3,0.6,1.8c0.3,0.2,0.9,0.1,0.9-0.4c0-0.1,0-0.2,0-0.2c-0.1-0.6-1.1-0.6-1,0
					c0,0.1,0,0.2,0,0.2c0.3-0.1,0.6-0.2,0.9-0.4c-0.2-0.1-0.5-0.9-0.4-0.9c0,0-0.2,0.6-0.2,0.6c-0.2,0.3-0.6,0.6-0.8,0
					c-0.1-0.4,0.5-1.5,0.9-1.6c1-0.2,1.1,1.3,0.7,1.9c-0.3,0.5-1,0.6-1.4,0.2c-0.4-0.3-0.4-0.9-0.3-1.4c0-0.5,0.1-1,0.7-0.9
					c0.3,0,0.8,0.3,1,0.6c0.5,0.6,0.3,2.9-0.9,2.5c-0.7-0.2-0.8-1.3-0.8-2c0-1,0.1-2.1,1.2-2.4C334.2-793,333.9-794,333.3-793.9
					L333.3-793.9z"/>
			</g>
		</g>
		<g>
			<g>
				<path class="st5" d="M331.4-781.4c0,0.3,8.4-2,9.1-2.1c0.6-0.1,0.4-1.1-0.3-1c-0.1,0-0.2,0-0.3,0.1c-0.6,0.1-0.4,1.1,0.3,1
					c0.1,0,0.2,0,0.3-0.1c-0.1-0.3-0.2-0.6-0.3-1c-1.8,0.4-3.6,0.9-5.4,1.5c-1.3,0.4-2.9,0.5-4.2,1.1c-0.2,0.1-0.3,0.3-0.2,0.4
					c0,0,0,0.1,0,0.1C330.4-780.8,331.4-780.8,331.4-781.4L331.4-781.4z"/>
			</g>
		</g>
	</g>
</g>
<g id="band">
	<g>
		<g>
			<path class="st10" d="M42.5-555.5c-0.9,0-1.7,0-2.5-0.1c-0.7,0-1.3-0.1-1.8-0.1c-2.7,0-6-0.2-9.6-1.1c-3.5-1-6.4-2.1-9-3.7
				c-0.4-0.2-0.8-0.5-1.2-0.7c-2-1.2-4.6-2.6-6.9-4.9l-0.4-0.4c-2-2-4.2-4.2-6-7.3c-0.3-0.5-0.6-1-1-1.6c-1.3-1.9-2.8-4.4-3.6-7.4
				c-0.8-3-0.5-5.8-0.3-8.1c0.1-0.8,0.1-1.5,0.1-2c0-3.3,0.8-6.1,1.5-8.4c0.1-0.4,0.3-0.9,0.4-1.3c0.9-3.1,2.3-5.6,3.5-7.5
				c0.2-0.4,0.5-0.8,0.7-1.2L7-612c1.3-2.2,2.8-4.7,5.2-7.1c2.2-2.2,4.7-4,7.8-5.8c2.4-1.4,5.3-2.9,9-3.8c0.4-0.1,1.1-0.3,1.7-0.6
				c2-0.7,4.7-1.8,8-1.7c3.4,0,6.1,1.2,8.1,2.1c0.5,0.2,1.2,0.5,1.5,0.6c3.5,0.9,6.3,2.1,9,3.7c2.7,1.6,5.1,3.5,7.6,6
				c0.2,0.2,0.8,0.5,1.2,0.8c1.8,1.1,4.6,2.8,6.4,6c1.7,3,1.9,6,2.1,8.2c0,0.6,0.1,1.4,0.2,1.7c0.7,2.7,1.4,5.9,1.4,9.7
				c0,3.5-0.4,6.7-1.3,9.7c-0.8,3.1-2.4,5.3-3.6,7.2c-0.4,0.5-0.7,1.1-1,1.5c-0.2,0.3-0.5,1-0.7,1.6c-0.8,1.9-1.9,4.6-4.2,6.9
				c-2.7,2.6-5.2,4.6-7.9,6.1c-2.8,1.6-5.7,2.3-8,2.9c-0.5,0.1-1,0.2-1.4,0.4C46-555.6,44.1-555.4,42.5-555.5z M16.7-586.9
				c0.2,0.5,0.9,1.7,1.5,2.5c0.5,0.7,1,1.5,1.5,2.4c0.7,1.1,1.9,2.4,3.3,3.8l0.4,0.4c0.6,0.6,1.8,1.3,3.2,2.1c0.5,0.3,1,0.5,1.4,0.8
				c1.4,0.8,2.9,1.4,5,2c1.4,0.4,2.9,0.5,5.3,0.6c0.9,0,1.8,0,2.6,0.1c1.1,0.1,2.3,0.1,2.9,0c0.6-0.2,1.2-0.3,1.7-0.4
				c1.4-0.3,2.9-0.7,3.6-1.1c1.3-0.8,2.7-1.9,4.3-3.4c0.2-0.3,0.4-1,0.7-1.5c0.4-1.1,1-2.4,1.8-3.8c0.5-0.9,1-1.7,1.5-2.3
				c0.6-0.8,1.2-1.8,1.3-2.3c0.4-1.6,0.7-3.4,0.7-5.4c0-1.5-0.2-3.1-0.8-5.4c-0.4-1.7-0.6-3.3-0.7-4.6c0-0.3,0-0.6-0.1-0.9
				c-0.2-0.1-0.4-0.2-0.6-0.4c-1.2-0.8-2.8-1.7-4.2-3.2c-1.5-1.5-2.7-2.5-4.2-3.3c-1.4-0.8-2.9-1.4-4.9-2c-1.5-0.4-2.9-1-3.9-1.5
				c-0.5-0.2-1.1-0.5-1.5-0.6c-0.5,0.1-1.3,0.4-1.9,0.7c-1,0.4-2.1,0.8-3.3,1.1c-1.4,0.4-2.8,1-4.9,2.2c-1.9,1.1-3.2,2-4.3,3.2
				c-0.8,0.8-1.5,2.1-2.4,3.6l-0.5,0.9c-0.3,0.5-0.6,1-0.9,1.5c-0.8,1.3-1.4,2.3-1.7,3.2c-0.1,0.5-0.3,1-0.4,1.6
				c-0.4,1.5-0.8,2.8-0.8,3.8c0,1.3-0.1,2.4-0.2,3.4C16.8-588.5,16.7-587.3,16.7-586.9z M38.5-614.4L38.5-614.4L38.5-614.4z
				 M38.2-614.4L38.2-614.4L38.2-614.4z"/>
		</g>
		<g>
			<g>
				<path class="st6" d="M59.8-595.6c-0.1,0-0.3,0-0.4,0c0,3.3,0,6.7,0,10c3.1,0,6.5,0.4,9.6-0.3c2.2-0.5,3.7-0.1,6-0.1
					c6.4,0.1,6.4-9.9,0-10c-2.5,0-4.6-0.6-7.1,0c-2.7,0.7-5.6,0.4-8.4,0.4c-6.4,0-6.4,10,0,10c0.1,0,0.3,0,0.4,0
					C66.2-585.6,66.2-595.6,59.8-595.6L59.8-595.6z"/>
			</g>
		</g>
		<g>
			<g>
				<path class="st6" d="M34-570.7c0,2.3,0.3,4.7-0.1,7c-0.4,2.5-0.5,4.8-0.5,7.3c0,6.4,10,6.4,10,0c0-2.2,0.2-4.1,0.6-6.2
					c0.5-2.6,0-5.5,0-8.1C44-577.1,34-577.1,34-570.7L34-570.7z"/>
			</g>
		</g>
		<g>
			<g>
				<path class="st6" d="M-0.1-593.4c2.5,0.9,4.8,2,7.3,2.8c1.4,0.5,2.8,0.8,4.2,1.2c0.7,0.2,1.3,0.4,2,0.6c0.4,0.1,1.5,0.8,0.4,0.1
					c5.4,3.5,10.4-5.1,5-8.6c-2.2-1.5-5.5-1.8-8-2.6c-2.9-0.9-5.5-2.1-8.3-3.1c-2.5-0.9-5.5,1.1-6.2,3.5
					C-4.3-596.8-2.6-594.4-0.1-593.4L-0.1-593.4z"/>
			</g>
		</g>
		<g>
			<g>
				<path class="st6" d="M42.2-635.2c0,0-0.1,0-0.1,0c-1.7,0.2-3,2-3.5,3.5c-0.9,2.9-1.9,5.8-2.8,8.7c-0.8,2.6-1.1,5.5-1.6,8.1
					c3-0.4,6.1-0.8,9.1-1.2c0-0.1-0.1-0.2-0.1-0.2c-3.1-5.6-11.7-0.6-8.6,5c0,0.1,0.1,0.2,0.1,0.2c2,3.6,8.2,3,9.1-1.2
					c0.6-2.7,0.8-5.5,1.6-8.1c0.9-2.9,1.9-5.8,2.8-8.7c-1.2,1.2-2.3,2.3-3.5,3.5c0,0,0.1,0,0.1,0c2.7-0.4,4.1-3.8,3.5-6.2
					C47.6-634.6,44.9-635.6,42.2-635.2L42.2-635.2z"/>
			</g>
		</g>
	</g>
</g>
<g id="KLEIN">
	<path class="st3" d="M161.2,167.1l0.1,6.3c0.2,7.6-5.8,13.9-13.4,14.1l-93.3,2.2c-7.6,0.2-13.8-5.8-14-13.4l-0.1-6.3
		c-0.2-7.6,5.8-13.9,13.4-14.1l14.4-0.3c7.6-0.2,13.5-6.5,13.4-14.1l-1.3-56.9c-0.2-9.2-9.3-15.6-18-12.7l-3.9,1.3
		c-8.7,2.9-17.8-3.5-18-12.7l-0.2-9.4c-0.1-5.8,3.4-11.1,8.9-13.2l42.8-16c1.4-0.5,2.9-0.8,4.5-0.9l8.8-0.2
		c7.6-0.2,13.8,5.8,14,13.4l2.5,106.4c0.2,7.6,6.5,13.6,14,13.4l11.5-0.3C154.8,153.5,161.1,159.5,161.2,167.1z"/>
	<path class="st3" d="M279.1,25.1l0.3,12c0,1.3-0.2,2.6-0.7,3.9L220.6,179c-1.4,3.4-4.8,5.7-8.5,5.8l-24.5,0.5
		c-6.8,0.1-11.5-6.8-8.9-13.2l44.7-104.7c2.7-6.3-2-13.3-8.9-13.2l-47.5,1c-5.2,0.1-9.5-4-9.6-9.2l-0.4-18.3c-0.1-5.2,4-9.5,9.2-9.6
		l103.1-2.2C274.7,15.8,279,19.9,279.1,25.1z"/>
	<g id="D_1_">
		<path class="st5" d="M101.5,116.4c0,22.2-16.7,37.5-40.2,37.5H38.9c-4.1,0-7.4-3.3-7.4-7.5V86.7c0-4.1,3.3-7.5,7.4-7.5h22.4
			C84.7,79.3,101.5,94.5,101.5,116.4z M82.8,116.4c0-11.5-9.3-20.4-21.4-20.4h-3.9c-4.1,0-7.4,3.3-7.4,7.5v26.3
			c0,4.1,3.3,7.5,7.4,7.5h3.9C73.5,137.2,82.8,128.2,82.8,116.4z"/>
	</g>
	<g id="O_2_">
		<path class="st5" d="M189.9,116.6c0,21.7-17,38.7-39.4,38.7s-39.4-17-39.4-38.7s17-38.7,39.4-38.7S189.9,94.9,189.9,116.6z
			 M171.2,116.6c0-11.7-8.6-21.4-20.7-21.4c-12,0-20.7,9.7-20.7,21.4c0,11.7,8.6,21.4,20.7,21.4C162.5,138,171.2,128.3,171.2,116.6z
			"/>
		<g class="st7">
			<g class="st8">
				<path class="st5" d="M131.9,99.2c1.7,0,3.4-0.7,4.6-1.9c1.1-1.1,2-3,1.9-4.6c-0.1-1.7-0.6-3.4-1.9-4.6c-1.3-1.2-2.8-1.9-4.6-1.9
					c-1.7,0-3.4,0.7-4.6,1.9c-1.1,1.1-2,3-1.9,4.6c0.1,1.7,0.6,3.4,1.9,4.6C128.6,98.4,130.1,99.2,131.9,99.2L131.9,99.2z"/>
			</g>
		</g>
		<g class="st7">
			<g class="st8">
				<path class="st5" d="M126.2,95.5c0,0,0,0.1,0.1,0.1c-0.2-0.5-0.4-1.1-0.7-1.6c0.3,0.9,0.4,1.6,0.9,2.5c2.7-2.7,5.5-5.5,8.2-8.2
					c0,0,0,0-0.1,0c0.4,0.3,0.8,0.6,1.2,0.9c0,0-0.1-0.1-0.1-0.2c0.3,0.4,0.6,0.8,0.9,1.2c-0.2-0.2-0.3-0.5-0.4-0.7
					c0.2,0.5,0.4,0.9,0.6,1.4c-0.1-0.2-0.1-0.3-0.1-0.5c0.1,0.5,0.1,1,0.2,1.5c0-0.2,0-0.3,0-0.5c-0.1,0.5-0.1,1-0.2,1.5
					c0-0.2,0.1-0.3,0.1-0.5c0.1-0.5,0.1-1,0.2-1.4c0-0.7-0.1-1.4-0.5-2.1c-0.4-1-1.2-2-2.2-2.6c-0.8-0.4-1.8-0.7-2.7-0.7
					c-1.3-0.1-2.9,0.6-3.8,1.6c-1.4,1.5-2.1,3.1-2.2,5.1c0,0.9,0.2,1.9,0.3,2.8c0.3,1,0.8,1.9,1.5,2.6c0.5,0.6,1.2,1,1.9,1.2
					c0.7,0.4,1.5,0.5,2.3,0.5c1.1,0,2.1-0.3,3-0.8c0.8-0.5,1.3-0.9,1.8-1.6c0.2-0.3,0.4-0.6,0.7-0.9c-0.3,0.4-0.7,0.8-1,1.3
					c0.2-0.2,0.4-0.4,0.5-0.6c0.4-0.5,0.7-0.9,1.1-1.4c0.2-0.5,0.5-1.1,0.7-1.6c0.1-0.6,0.2-1.2,0.2-1.8c-0.1-0.6-0.2-1.2-0.2-1.8
					c-0.2-0.5-0.5-1.1-0.7-1.6c-0.4-0.5-0.7-0.9-1.1-1.4c-0.5-0.4-0.9-0.7-1.4-1.1c-0.8-0.5-1.6-0.8-2.5-0.8c-0.6-0.2-1.2-0.2-1.8,0
					c-0.6,0-1.2,0.2-1.7,0.5c-0.6,0.2-1.1,0.4-1.5,0.9c-0.5,0.3-0.9,0.7-1.2,1.2c-0.4,0.4-0.7,0.9-0.9,1.5c-0.3,0.5-0.5,1.1-0.5,1.7
					c-0.2,0.6-0.2,1.2,0,1.8C125.4,93.9,125.7,94.7,126.2,95.5L126.2,95.5z"/>
			</g>
		</g>
		<g class="st7">
			<g class="st8">
				<path class="st6" d="M133,100.5c1.2,0,2.4-0.2,3.5-0.8c1.1-0.4,2.1-1,2.9-1.9c0.9-0.8,1.5-1.8,1.9-2.9c0.6-1.1,0.8-2.2,0.8-3.5
					c-0.1-0.8-0.2-1.6-0.3-2.4c-0.4-1.5-1.2-2.9-2.3-4c-1.8-1.6-3.9-2.6-6.4-2.6c-1.2,0-2.4,0.2-3.5,0.8c-1.1,0.4-2.1,1-2.9,1.9
					c-0.9,0.8-1.5,1.8-1.9,2.9c-0.6,1.1-0.8,2.2-0.8,3.5c0.1,0.8,0.2,1.6,0.3,2.4c0.4,1.5,1.2,2.9,2.3,4
					C128.4,99.5,130.5,100.5,133,100.5L133,100.5z"/>
			</g>
		</g>
		<g class="st7">
			<g class="st8">
				<path class="st6" d="M166.8,80.8c0,0-0.1,0-0.1,0c-1.8,0-3.4,0.4-4.9,1.3c-1.1,0.6-2,1.5-2.7,2.5c-0.9,0.9-1.4,2-1.7,3.3
					c-0.5,1.7-0.5,3.5,0,5.2c0,0,0,0.1,0,0.1c0.3,0.8,0.7,1.6,1,2.3c0.5,0.7,1,1.3,1.5,2c0.7,0.5,1.3,1,2,1.5c0.8,0.3,1.6,0.7,2.3,1
					c0.9,0.1,1.7,0.2,2.6,0.4c0.9-0.1,1.7-0.2,2.6-0.4c0.8-0.3,1.6-0.7,2.3-1c1.1-0.6,2.1-1.5,2.8-2.5c0.6-0.6,1-1.3,1.3-2.2
					c0.4-0.8,0.7-1.6,0.7-2.5c0.2-0.9,0.2-1.7,0-2.6c0-0.9-0.2-1.7-0.7-2.5c-0.2-0.8-0.7-1.6-1.3-2.2c-0.4-0.7-1-1.3-1.8-1.8
					c-0.6-0.6-1.3-1-2.2-1.3C169.4,81,168.1,80.7,166.8,80.8L166.8,80.8z"/>
			</g>
		</g>
		<g class="st7">
			<g class="st8">
				<path class="st5" d="M134.5,95.9c2.1,0,4.1-1.8,4-4c-0.1-2.2-1.8-4-4-4c-2.1,0-4.1,1.8-4,4C130.6,94.1,132.3,95.9,134.5,95.9
					L134.5,95.9z"/>
			</g>
		</g>
		<g class="st7">
			<g class="st8">
				<path class="st5" d="M169.4,95.3c1.1,0,2.2-0.5,3-1.2c0.7-0.7,1.3-2,1.2-3c-0.1-2.3-1.9-4.3-4.3-4.3c-1.1,0-2.2,0.5-3,1.2
					c-0.7,0.7-1.3,2-1.2,3C165.3,93.4,167,95.3,169.4,95.3L169.4,95.3z"/>
			</g>
		</g>
	</g>
	<g>
		<path class="st9" d="M131.3,73.4c0.4-0.5,1-0.6,1.6-0.8c0.3-0.1,0.6-0.2,0.8-0.3c0.3-0.1,0.6-0.2,0.9-0.3c0.4-0.1,0.8-0.2,1.2-0.4
			c0.2-0.1,0.3-0.1,0.4-0.1c0.3,0,0.5-0.2,0.8-0.2c0.2,0,0.3-0.1,0.5-0.1c0.2,0,0.3,0,0.5,0c0.1,0,0.2-0.1,0.4-0.1
			c0.1,0,0.2,0,0.4,0c0.2,0,0.3-0.1,0.5-0.1c0.2,0,0.4-0.1,0.6-0.1c0.2,0,0.5-0.1,0.7-0.1c0.4-0.1,0.7,0,1.1-0.1
			c0.2-0.1,0.5,0,0.7,0c0.2,0,0.4-0.1,0.6-0.1c0.5,0,0.9,0,1.4,0c0.3,0,0.7,0,1,0c0.4,0,0.7-0.1,1.1-0.1c0.2,0,0.3,0,0.5-0.1
			c0.2,0,0.3,0,0.5,0c0.3,0,0.6,0,0.9,0c0.4,0,0.7,0,1.1,0c0.4,0,0.7-0.1,1-0.1c0.4,0,0.8-0.1,1.2-0.2c0.4-0.1,0.9-0.1,1.3-0.2
			c0.3-0.1,0.7,0,1.1,0c0.4,0,0.8,0,1.2,0c0.9,0,1.8-0.1,2.7,0.1c0.3,0.1,0.7,0.1,1,0.2c0.2,0.1,0.3,0.2,0.5,0.4
			c0.1,0.2,0.2,0.3,0.3,0.5c0.1,0.5-0.4,0.8-0.8,1c-0.6,0.3-1.2,0.5-1.9,0.6c-0.6,0.1-1.3,0.1-1.9,0.2c-0.5,0.1-0.9,0.1-1.4,0.2
			c-0.4,0.1-0.7,0.2-1.1,0.3c-1.7,0.4-3.5,0.4-5.3,0.4c-1.3,0-2.6,0-3.9,0c-0.9,0-1.9-0.1-2.8,0.1c-0.1,0-0.1,0.1-0.2,0.1
			c-0.1,0-0.2,0-0.4,0c-0.2,0-0.3,0.1-0.5,0.1c-0.3,0-0.6,0.1-0.9,0.1c-0.3,0-0.6,0.1-0.9,0.1c-0.3,0-0.6,0.1-1,0.2
			c-0.4,0.1-0.8,0.1-1.2,0.1c-0.7,0.1-1.3,0.1-1.9-0.1c-0.3-0.1-0.6-0.1-0.8-0.2c-0.2,0-0.5-0.1-0.7-0.2c-0.2,0-0.4-0.1-0.6-0.1
			c-0.2,0-0.4-0.2-0.6,0"/>
		<g>
			<path class="st9" d="M133.2,76.6c2.8-2.1,6.7-2.1,9.8-2.3c2-0.1,4.1-0.1,6-0.2c1.2-0.1,2.5-0.3,3.7-0.4c0.8-0.1,4.3,0.5,3.8-0.7
				c-0.1-1-0.3-1.9-0.4-2.9c-0.1,0.2-0.1,0.4-0.2,0.6c0.6-0.7,1.1-1.5,1.7-2.2c-1.7,1.3-7.3,1.5-9.3,1.5c-2.3,0.1-7.2,0.1-8.2,0.2
				c-1.7,0.2-3.6,0.7-5.3,0.6c-1.7-0.1-2.9-1-4.7-0.4c-4.6,1.4-2.6,8.6,2,7.2c-0.9,0.3-1.9-0.3-0.5,0.2c0.7,0.2,1.5,0.4,2.2,0.4
				c1.6,0.2,3,0,4.6-0.2c3.4-0.4,7-0.2,10.9-0.4c3.8-0.2,19.8-2,13-9.6c-2.1-2.3-6.3-2-9.1-1.8c-3.1,0.2-6.2,0.5-9.3,0.6
				c-4.5,0.2-10.3,0.4-14.3,3.4C125.6,73,129.3,79.5,133.2,76.6L133.2,76.6z"/>
		</g>
	</g>
	<g>
		<path class="st3" d="M138.2,72.4c0-0.3,0-0.6,0-0.9c0-0.4,0.1-0.7,0.2-1.1c0.1-0.5,0.4-0.9,0.6-1.3c0.1-0.2,0.2-0.3,0.3-0.4
			c0.1-0.2,0.2-0.3,0.3-0.5c0.2-0.3,0.4-0.6,0.7-0.8c0.3-0.3,0.6-0.6,0.9-0.9c0.1-0.1,0.2-0.2,0.3-0.3c0.1-0.1,0.3-0.2,0.4-0.3
			c0.1-0.1,0.2-0.2,0.3-0.3c0.1-0.1,0.2-0.1,0.4-0.2c0.2-0.1,0.5-0.2,0.7-0.3c0.2-0.1,0.5-0.2,0.7-0.3c0.2-0.1,0.5-0.3,0.7-0.3
			c0.3,0,0.5-0.1,0.8-0.1c0.2-0.1,0.6,0,0.8,0c0.3,0,0.7,0,1,0c0.3,0,0.6-0.1,0.9,0.1c0.4,0.2,0.7,0.5,1,0.7
			c0.2,0.2,0.5,0.3,0.8,0.3c0.3,0.1,0.7,0.3,0.9,0.5c0.5,0.4,1.1,0.8,1.5,1.3c0.3,0.3,0.4,0.6,0.5,1c0.1,0.3,0.3,0.6,0.3,1
			c0,0.3,0.1,0.8,0,1c-0.1,0.2-0.3,0.3-0.4,0.4c-0.1,0.1-0.3,0.3-0.4,0.4c-0.1,0.1-0.2,0.1-0.3,0.2c-0.3,0.1-0.5,0.2-0.7,0.3
			c-0.4,0.2-0.9,0.3-1.3,0.5c-0.6,0.2-1.1,0.4-1.7,0.5c-0.3,0.1-0.6,0.2-0.9,0.3c-0.3,0.1-0.6,0.1-0.9,0.1c-0.6,0.1-1.1,0-1.6,0.1
			c-0.5,0.1-1,0.2-1.5,0.2c-0.3,0-0.7,0-1-0.1c-0.2-0.1-0.5-0.1-0.7-0.2c-0.3-0.1-0.4-0.1-0.5-0.4c-0.2-0.6,0.1-1.2,0.5-1.6
			c0.1-0.2,0.3-0.4,0.5-0.5c0.3-0.4,0.7-0.5,1.2-0.7c0.6-0.3,1.2-0.6,1.8-0.7c0.5,0,1.1-0.1,1.6-0.1c0.3,0,0.8-0.1,1,0.2
			c0.2,0.3,0.2,0.8,0,1.1c-0.3,0.6-0.7,1-1.2,1.2c-0.4,0.2-1,0.3-1.4-0.1c-0.4-0.4-0.3-1-0.1-1.4c0.4-0.7,1.2-1.1,1.9-1.2
			c0.4-0.1,1-0.2,1.4,0.2c0.4,0.3,0.3,0.8,0.1,1.2c-0.2,0.4-0.5,0.6-0.8,0.9c-0.5,0.5-1,0.9-1.6,1.2c-1,0.5-2.4,0.4-3.2-0.5
			c0.3-0.2,0.8-0.3,1.2-0.2c0.7,0.1,0.5,0.7,0.2,1.2c-0.3,0.5-0.9,1-1.4,1.2c-0.5,0.2-0.9,0.1-1.4,0.1c-0.4,0-1,0.2-1.4,0
			c-0.2-0.1-0.5-0.3-0.7-0.4c-0.1-0.1-0.4-0.2-0.5-0.3c0.1,0,0.3,0.1,0.4,0.1c0.3,0.1,0.5,0.1,0.8,0.2c0.5,0.1,1,0.1,1.5,0.1
			c0.6,0,1.1,0,1.7-0.1c0.5-0.1,0.9-0.1,1.4-0.2c0.5-0.1,0.9-0.2,1.4-0.2c0.3,0,0.5-0.1,0.8-0.2c0.3,0,0.5-0.1,0.8-0.1
			c0.2,0,0.5,0,0.7-0.2c0.5-0.3,1-0.6,1.5-0.8c0.4-0.2,0.9-0.3,1.4-0.4c0.4-0.2,0.9-0.3,1.3-0.4c0.2,0,0.4-0.2,0.6-0.3
			c0.1-0.1,0.2-0.2,0.3-0.3c0.1-0.1,0.2-0.1,0.2-0.2c0,0-0.1,0-0.1,0"/>
		<g>
			<path class="st3" d="M143.2,72.4c0-0.8,0.2-0.8,0.7-1.4c0.1-0.2,1.4-1.4,0.6-0.7c1-0.9,1.3-1.1,0.8-0.6c-0.4,0.3-0.2,0.3,0.5-0.1
				c0.8,0,1.6-0.1,2.4,0c-0.8-0.2-1.7-0.5-2.5-0.7c0.3,0.2,1.6,1.3,2.2,1.3c0.6,0.4,0.7,0.3,0.2-0.5c0.2,0.2,0.2,0.4,0.1,0.6
				c0.5-1.2,1-2.4,1.5-3.5c-0.9,1,1.2-0.1-0.3,0.2c-0.9,0.2-1.8,0.7-2.8,0.9c-1.1,0.3-2.7,0.6-3.8,0.2c1,0.8,2,1.5,3,2.3
				c-0.1-0.1-0.1-0.2-0.2-0.3c0.2,0.8,0.5,1.7,0.7,2.5c0-0.3,0-0.6,0-0.9c-0.2,0.8-0.5,1.7-0.7,2.5c0.3-0.4,1.2-0.3,1.7-0.3
				c-0.8-0.2-1.7-0.5-2.5-0.7c0.2,0.1,0.3,0.2,0.5,0.2c-0.8-1-1.5-2-2.3-3c0.1,0.2,0.1,0.4,0.2,0.5c0-0.9,0-1.8,0-2.7
				c0,0-0.1,0.1-0.1,0.1c0.6-0.6,1.2-1.2,1.8-1.8c-0.1,0-0.2,0.1-0.2,0.1c0.9,0,1.8,0,2.7,0c-0.2-0.1-0.4-0.2-0.7-0.3
				c1.2,1.2,2.3,2.3,3.5,3.5c-0.1-0.2-0.2-0.5-0.3-0.7c0,0.9,0,1.8,0,2.7c0.1-0.2,0.1-0.5,0.2-0.7c-0.4,0.7-0.9,1.5-1.3,2.2
				c-0.5,0.1-1.1,0.2-1.6,0.2c-1-0.8-2-1.5-3-2.3c0.1,0.2,0.2,0.4,0.3,0.6c-0.2-1.3-0.3-2.6-0.5-3.9c0.1-0.7,0.4-0.9,1.1-0.7
				c0.7,0.4,1.5,0.9,2.2,1.3c-0.2-0.2-0.5-0.4-0.7-0.6c-0.7,2.8-1.5,5.6-2.2,8.4c0,0-0.1,0-0.1,0c-0.8-0.2-1.7-0.5-2.5-0.7
				c0.1,0.1,0.3,0.2,0.4,0.2c-0.8-1.4-1.7-2.9-2.5-4.3c0,0.2,0,0.3,0,0.5c0.2-0.8,0.5-1.7,0.7-2.5c0.5-1.1,2.6-0.4-0.2-0.6
				c0.8,0.2,1.7,0.5,2.5,0.7c-0.4-0.2-0.8-0.4-1.2-0.7c-1.3,3-2.6,6.1-3.9,9.1c3.4,0.9,6.8,0.4,10.2-0.2c1.6-0.3,2.9-0.9,4.4-1.5
				c0.7-0.3,1.5-0.4,2.3-0.7c0.4-0.2,3.2-1.9,1.7-1c3.2-2.1,3.4-8.5-1.2-9.1c0,0-0.1,0-0.1,0c-2.7-0.4-5.4,0.6-6.2,3.5
				c-0.6,2.3,0.8,5.8,3.5,6.2c0,0,0.1,0,0.1,0c-0.4-3-0.8-6.1-1.2-9.1c-0.5,0.3-2,1-0.9,0.7c1-0.3-0.5,0-0.7,0
				c-1.3,0.3-2.4,1-3.6,1.4c-1.7,0.5-4,0.8-5.7,0.3c-5.8-1.6-8.2,5.9-3.9,9.1c3.6,2.6,9.3,1.7,11.9-1.9c3.5-5-1-10.6-6.6-8.8
				c-3.2,1-5.3,5.9-2.2,8.4C144,79,150,77.9,153,72.8c3.3-5.7-3.1-10.5-8.4-8.3c-5.5,2.4-6.1,11.3,0.8,12.2
				c5.5,0.7,10.4-6.6,6.1-10.9c-3.5-3.5-10.2-1.5-13.1,1.8c-4.3,4.8-0.8,10.8,5.2,10.8c3.8,0,8.9-0.9,12-3.2
				c4.4-3.2,3.1-9.2-0.7-12.3c-4.3-3.5-9.6-4.4-14.7-1.5c-1.4,0.8-2.6,1.7-4,3.5c-1.9,2.2-2.9,4.7-2.9,7.7
				C133.2,78.9,143.2,78.9,143.2,72.4L143.2,72.4z"/>
		</g>
	</g>
	<g>
		<path class="st10" d="M131,75.8c0.1,0.1,0.1,0.3,0.2,0.4c0.1,0.2,0.1,0.5,0.3,0.7c0.5,1,1.3,1.7,1.9,2.6c0.5,0.8,1.3,1.4,1.9,2.1
			c0.9,0.9,2.1,1.6,3.3,2c1.1,0.4,2.1,0.6,3.2,0.9c1.3,0.2,2.6,0.3,3.9,0.3c1.7,0,3.2-0.1,4.8-0.5c1.2-0.3,2.2-1,3.2-1.7
			c0.4-0.2,0.7-0.5,1.1-0.8c0.5-0.4,1-0.7,1.5-1.1c0.4-0.3,0.8-0.7,1.1-1.1c0.3-0.3,0.6-0.7,0.8-1.1c0.2-0.3,0.4-0.7,0.7-1
			c0.2-0.3,0.5-0.7,0.6-1.1c0.1-0.3,0.2-0.5,0.3-0.8c0.2-0.4,0.3-0.8,0.5-1.1c0.5-0.8,0.7-1.8,0.7-2.8c0-0.3,0.3-0.8-0.1-0.9
			c-0.4-0.1-0.8,0.5-1.1,0.7c-0.3,0.2-0.6,0.4-0.9,0.6c-0.3,0.2-0.6,0.3-0.9,0.4c-0.5,0.1-1,0.3-1.5,0.5c-0.5,0.2-1.1,0.3-1.6,0.4
			c-1.4,0.5-2.8,0.8-4.3,1.2c-0.3,0.1-0.6,0.1-0.9,0.1c-0.5,0-0.9,0.2-1.4,0.3c-0.7,0.1-1.3,0.2-2,0.2c-0.3,0-0.5,0.1-0.8,0.1
			c-0.4,0-0.8,0-1.2,0c-0.9,0-1.8,0-2.7,0c-0.4,0-0.8-0.1-1.1-0.1c-0.4,0-0.7,0-1.1,0c-0.5,0-0.9-0.1-1.3-0.1c-0.4,0-0.7,0-1.1,0
			c-0.4,0-0.9,0-1.3,0c-0.5-0.1-1.1,0-1.6-0.1c-0.1,0-0.3,0-0.4,0c-0.1,0-0.2-0.1-0.4-0.1c-0.2,0-0.4,0-0.6,0c-0.2,0-0.4,0-0.6,0
			c-0.4,0-0.8,0-0.9,0.5c-0.1,0.6,0.2,1.1,0.6,1.5c0.4,0.4,0.8,0.7,1.3,0.9c0.5,0.2,0.9,0.6,1.4,0.8c1.3,0.6,2.6,0.9,4,1.1
			c1.4,0.1,2.9,0,4.2-0.4c0.7-0.2,1.3-0.4,2-0.6c1-0.2,1.9-0.5,2.8-0.9c0.9-0.3,1.7-0.7,2.6-1.1c0.6-0.3,1.1-0.7,1.6-1
			c0.2-0.1,0.4-0.2,0.6-0.3c0.3-0.2,0.5-0.4,0.8-0.5c0.3,0.2-0.1,1.1-0.2,1.3c-0.2,0.7-0.5,1.4-0.9,2c-0.5,0.7-1,1.2-1.7,1.7
			c-0.3,0.2-0.6,0.4-0.9,0.5c-0.5,0.3-1.2,0.4-1.8,0.5c-1,0.3-2,0.4-2.9,0.4c-0.6,0.1-1.2,0.2-1.9,0.1c-0.5,0-0.8-0.4-1.2-0.2
			c-0.2,0.1-0.4,0.3-0.4,0.6c0,0.7,1,0.7,1.4,0.7c1.3,0.1,2.5-0.5,3.7-1c1.2-0.6,2.4-1.2,3.6-1.9c1-0.6,2-1.1,2.9-1.8
			c0.5-0.4,1-0.8,1.5-1.2c0.3-0.3,0.6-0.6,1-0.8c0.2-0.1,0.4-0.2,0.6-0.3c0.3,0.3-0.6,1-0.8,1.2c-0.3,0.3-0.6,0.7-0.9,0.8
			c0-0.2,0.1-0.3,0.2-0.4c0.3-0.3,0.5-0.7,0.8-0.9c0.2-0.2,0.4-0.3,0.6-0.5c0.2-0.2,0.3-0.4,0.5-0.5c0,0.1-0.4,0.5-0.5,0.6
			c0.1,0,0.2,0,0.3-0.2c0.3-0.2,0.6-0.4,0.8-0.6c0.2-0.2,0.4-0.4,0.6-0.6c0.1-0.1,0.5-0.3,0.5-0.5c-0.3,0.2-0.6,0.5-0.9,0.7
			c-0.6,0.5-1.3,0.9-2,1.1c-1.4,0.5-2.8,1-4.2,1.4c-0.5,0.2-1,0.4-1.5,0.5c-0.9,0.2-1.7,0.5-2.6,0.6c-1.1,0.2-2.2,0.4-3.4,0.6
			c-1.3,0.2-2.6,0.3-3.9,0.4c-0.9,0.1-1.8,0.1-2.7,0c-0.7,0-1.2-0.2-1.8-0.5c-0.6-0.2-1.1-0.6-1.6-0.9c-0.3-0.2-0.6-0.4-0.9-0.5
			c-0.2-0.1-0.5-0.2-0.7-0.4c-0.2-0.2-0.4-0.4-0.6-0.6c-0.2-0.2-0.3-0.4-0.5-0.5c-0.1-0.1-0.5-0.5-0.7-0.5c0.2,0.3,0.6,0.4,0.9,0.4
			c0.8,0.2,1.7,0.4,2.5,0.5c1.2,0.2,2.3,0.4,3.5,0.6c1.5,0.3,3,0.4,4.5,0.4c1.4,0.1,2.8,0.1,4.1,0.1c1,0,2.1-0.1,3.1-0.2
			c0.9-0.1,1.8-0.2,2.6-0.4c0.3-0.1,0.7-0.2,1-0.3c0.2,0,0.4,0,0.5-0.2c0,0,0,0-0.1,0"/>
		<g>
			<path class="st10" d="M127.4,76.8c3.9,9.5,14.3,14,24.1,11.1c6.1-1.8,16.8-11.7,12.8-18.9c-0.7-1.3-2.7-2.3-4.2-1.7
				c-6.1,2.4-11.3,4.5-18.1,4.3c-3.7-0.1-10.3-2.1-13,1.1c-4.7,5.5,4.9,9.9,9,10.5c6.1,0.8,12.4-2,17.5-5.2
				c-1.9-1.1-3.8-2.2-5.6-3.2c0.2,3.1-5,2.7-6.6,2.8c-2.4,0.1-3.3,0.4-4.8,2.4c-1,1.4-0.5,3.4,0.6,4.5c2.5,2.7,6,1.9,9,0.5
				c1.9-0.9,3.9-1.9,5.7-3.1c1-0.7,2.8-2.5,3.6-2.9c-1.5-1.5-3.1-3.1-4.6-4.6c0.3-0.8,0-0.6-0.8,0.4c2,1.5,3.9,3,5.9,4.5
				c0.3-0.6,1.1-1.1,1.6-1.6c-2-1.5-3.9-3-5.9-4.5c0-0.1,0.1-0.1,0.1-0.2c-3.2,3,0.9,7.9,4.5,5.9c1.1-0.6,2.2-1.5,3-2.5
				c2.5-3-0.9-8.7-4.5-5.9c-4.1,3.2-10.2,4.3-15.3,4.8c-4.4,0.4-5.4-1.2-8.8-3.3c-1.3,2.2-2.5,4.3-3.8,6.5
				c6.9,3.4,18.4,3.6,25.7,1.4c3.6-1.1,3.6-6.1,0-7.2c0,0,0,0-0.1,0c-4.6-1.4-6.6,5.8-2,7.2c0,0,0,0,0.1,0c0-2.4,0-4.8,0-7.2
				c-2.9,0.9-6,1-9,0.9c-3.3-0.1-7.9,0-10.9-1.5c-4.3-2.1-7.9,3.9-3.8,6.5c4.2,2.6,6.7,4.8,12.6,4.3c6.3-0.5,13.9-1.8,19.1-5.8
				c-1.5-2-3-3.9-4.5-5.9c-0.4,0.5-0.9,1-1.5,1.3c1.5,2,3,3.9,4.5,5.9c0.4-0.4,0.8-0.9,1.1-1.3c2.6-3.5-2.9-7.4-5.9-4.5
				c-1,1-2.1,1.9-2.7,3.1c-2,3.8,2.7,7.3,5.9,4.5c1.3-1.2,2.1-2.1,2.8-3.7c1-2.5-2-5.6-4.6-4.6c-1.8,0.7-3.1,2-4.7,3.1
				c-0.6,0.4-6.7,3.8-6.3,4.2c0.2,1.5,0.4,3,0.6,4.5c0.1-0.2,0.3-0.4,0.4-0.6c-1.1,0.6-2.2,1.2-3.2,1.9c6.2-0.1,15.7-1.7,15.2-10.2
				c-0.2-2.7-3.1-4.9-5.6-3.2c-2.5,1.6-4.7,2.7-7.5,3.5c-1.6,0.5-8.5,2-8.9-0.6c-0.3,1.2-0.6,2.4-1,3.6c-1.2,1.5-1.7,0.2,0.2,0.8
				c1.1,0.4,2.8,0.1,4,0.1c2.9,0.1,5.8,0.3,8.7,0.1c2.8-0.2,5.5-0.9,8.2-1.7c1.6-0.5,3.2-0.8,4.7-1.5c0.4-0.2,3.7-1.9,2-1.3
				c-1.4-0.6-2.8-1.1-4.2-1.7c0.1,0.1,0.1,0.3,0.2,0.4c-0.1-1-0.3-1.9-0.4-2.9c-0.8,4.6-3.5,8.8-8.2,10.4
				c-5.4,1.8-12.6-0.4-14.9-5.8C132.8,70.4,125.6,72.3,127.4,76.8L127.4,76.8z"/>
		</g>
	</g>
	<path class="st5" d="M227,130.1l-6.4,7.5c-0.6,0.7-1,1.7-1,2.7v9.4c0,2.3-1.8,4.1-4.1,4.1h-10.1c-2.3,0-4.1-1.8-4.1-4.1V84
		c0-2.3,1.8-4.1,4.1-4.1h10.1c2.3,0,4.1,1.8,4.1,4.1v18.8c0,3.8,4.7,5.6,7.2,2.7L287,35.7c3.3-3.8,8.9-4.4,12.9-1.4v0
		c3.2,2.4,3.7,7.1,1.1,10.2l-56.3,65.3c-1.2,1.4-1.3,3.6-0.2,5.1l23.7,32.3c2,2.7,0.1,6.5-3.3,6.5h-12.7c-1.3,0-2.6-0.6-3.3-1.7
		l-15.5-21.6C231.9,128.2,228.7,128.1,227,130.1z"/>
	<g>
		<path class="st1" d="M304.2,43.1c-0.1-0.9-0.7-1-1.5-1c-0.7,0-1.3,0-2,0.1c-0.9,0.1-1.9,0.1-2.7,0.7c-2.6,1.8-3.7,7.9-0.4,9.6
			c2.3,1.2,5.1-0.2,6.6-2.1c1.2-1.5,1.7-4,1.2-5.8c-0.4-1.2-2-2.1-3.1-2.5c-1.9-0.6-4.5,0.9-5.2,2.7c-0.8,2-0.8,4.5,1.1,5.9
			c1.7,1.2,4.2,0.9,5.5-0.7c1-1.3,1.4-3,0.8-4.6c-0.7-1.8-3.3-2.6-4.9-1.3c-0.9,0.7-1.6,2.6-1.8,3.6c-0.3,1.4,0.1,2.6,1.1,3.6
			c0.7,0.7,1.6,1.4,2.6,0.8c0.8-0.6,1.3-1.9,1.5-2.8c0.2-0.9,0.9-3.5-0.2-4.1c-1.9-1-3.6,1.8-3.9,3.3c-0.2,0.9,0,2.2,0.6,2.9
			c0.7,0.9,2.6,1.4,3.6,0.8c0.8-0.5,1-1.9,1.2-2.8c0.3-1,0.6-2.3,0.5-3.3c-0.2-2-2.6-2-4-1.5c-1.1,0.4-2.3,1.3-2.6,2.5
			c-0.3,1.1,0.4,2,1.5,2"/>
		<g>
			<path class="st10" d="M305.5,43.4c0.8-3.5-3.4-3.9-5.8-3.9c-3.5,0-5.7,2.3-6.8,5.4c-1,2.7-1,6,0.7,8.5c2.3,3.3,6.7,3.8,10.1,2.1
				c3.5-1.7,5.6-5.1,5.9-8.9c0.3-4.2-2.3-7.5-6.3-8.7c-8.5-2.7-14.8,9.4-8.7,15.4c3.2,3.1,8.4,3.2,11.7,0.1c3.1-2.9,3.7-8.2,1-11.5
				c-2.6-3.3-7.8-3.9-11-1c-2.7,2.5-4,7.3-2.6,10.7c1.8,4.3,7.5,7.2,11.2,3.3c2.2-2.4,3.4-6.9,2.7-10.1c-1.2-4.9-7.3-5.4-10.5-2.3
				c-2.7,2.7-4,7.3-2,10.7c2.5,4.2,9.3,5,11.9,0.5c1.9-3.3,2.7-9.2-0.3-12c-3.2-3-8.7-1.6-11.4,1.4c-1.7,1.9-2.4,4.9-1.1,7.2
				c1.5,2.6,4.4,2.9,6.9,1.8c2-0.9,2.1-3.9,0.7-5.3c0.2,0.2,0.4,0.7,0.4,0.9c-0.1,1.1-0.3,1.5-0.4,1.1c0-0.1,0-0.1,0.2-0.2
				c0.4,0.1,0.1-0.4,0.6-0.2c-0.3-0.1-0.6-0.2-0.9-0.2c-0.4-0.5-0.8-1-1.2-1.5c-0.1,0-0.2,0.8-0.2,0.9c-0.1,0.4-0.5,1.6-0.4,1.5
				c0.6-0.4,1.3-0.7,1.9-1.1c-1,0.4,0.2,0.1,0.5,0.2c0.7,0.3,1,0.7,0.9,1.2c0,0.2,0,0.1,0-0.4c0,0.1,0,0.2,0,0.3
				c-0.2,0.3-0.1,0.2,0.2-0.3c0,0,0,0.1-0.1,0.1c-0.8,0.4-1.6,0.5-2.6,0.2c-0.5-0.5-1.1-1.1-1.6-1.6c-0.5-0.8,0.2-0.8-0.3-0.3
				c0.3-0.3,0-0.2-0.1,0.3c-0.1,0.3-0.2,0.7-0.3,1c-0.2,1-0.4,0.1,0.1-0.1c0.8-0.2,1.5-0.4,2.3-0.6c-0.2,0-0.4,0-0.5,0
				c0.8,0.2,1.5,0.4,2.3,0.6c-1.8-0.8,0.4,0.7-0.5,0.5c-0.1,0,0.4-1.4,0.4-1.4c0.2-0.7,0.6-0.2,0-0.1c-0.7,0.2-1.6,1.2-2.1-0.2
				c0,0-1.3,0.3,0.3-0.2c0.1,0,0.2,0.2,0.2,0.2c0.2-0.1-0.4,0.7,0.1-0.1c0.1-0.2,0-0.4,0.1-0.7c-0.1,0.3,0.2-0.3,0.3-0.3
				c0.1,0-1.4-0.1,0.2,0.1c0.6,0.1,0.3,0.6,0.3,0.1c-0.1-0.8-0.3,0.6-0.3,0.7c-0.1,0.6-0.4,1-0.9,1.4c-0.4,0.3-1,0.7-1.5,0.6
				c0.1,0,0.1,0.3,0-0.3c-0.2-1,0.1-2.2,0.6-3.2c0.1-0.2,0.7-0.8,0.3-0.5c0.3-0.2,0.8-0.2,1.2-0.3c0.5-0.1,1-0.2,1.5-0.4
				c0.2-0.1,0.4-0.1,0.6-0.2c0.5-0.1,0.5-0.2-0.1-0.2C304,44.7,305.3,44.4,305.5,43.4L305.5,43.4z"/>
		</g>
	</g>
	<g>
		<g>
			<path class="st5" d="M300.9,55.1c0.1,13.7-0.2,27.5-0.4,41.2c0,1.4,2.2,1.4,2.2,0c0.2-13.7,0.5-27.5,0.4-41.2
				C303.2,53.7,300.9,53.7,300.9,55.1L300.9,55.1z"/>
		</g>
	</g>
	<g>
		<path class="st1" d="M304.4,96.5c0,0,0-0.1,0-0.1c-0.3,0-0.5-0.3-0.7-0.4c-0.4-0.1-1-0.1-1.4-0.1c-0.9,0-1.5,0.8-1.8,1.6
			c-0.2,0.4-0.4,0.9-0.4,1.3c0,0.4-0.1,1.1,0.1,1.5c0.4,0.6,1.3,0.5,1.9,0.4c0.7-0.1,1.2-0.6,1.6-1.2c0.3-0.5,0.5-1.3,0.1-1.8
			c-0.9-0.9-2.9-0.5-3.5,0.6c-0.4,0.7-0.2,1.6,0.6,1.8c1,0.3,2.1,0,2.6-0.9c0.2-0.4,0.4-1.3,0.2-1.6c-0.3-0.6-1-1.1-1.7-0.9
			c-0.9,0.3-1.5,1.5-1.4,2.4c0.1,0.8,1.3,1.3,2.1,0.9c0.7-0.4,1-1.6,0.6-2.3c-0.5-0.9-1.5-0.7-2.1,0c-0.3,0.3-0.5,0.7-0.6,1.1
			c-0.1,0.4,0.3,0.6,0.7,0.6c0.9,0,1.8-1.4,2.1-2.2c-0.4,0.2-1,0.8-1.2,1.2c-0.3-0.1-0.5-0.5-0.4-0.7c0,0.3,0,0.6,0,0.9"/>
		<g>
			<path class="st10" d="M305.8,96.1c-0.1-0.3-0.2-0.6-0.4-0.8c-0.2-0.2-0.4-0.3-0.7-0.4c0.1,0,0.3,0.2,0,0
				c-0.7-0.4-1.3-0.5-2.1-0.5c-1.4,0-2.5,0.5-3.2,1.8c-1.3,2.2-1.6,5.9,1.7,6.1c1.3,0.1,2.5-0.4,3.3-1.4c0.8-1,1.3-2.5,0.7-3.7
				c-1.3-2.3-5-1.7-6.1,0.4c-0.7,1.2-0.6,2.9,0.6,3.7c1,0.7,2.5,0.7,3.7,0.2c2.4-1.2,2.7-5,0-6c-2.7-1-5.3,2.7-3.8,5
				c0.7,1,2.1,1.6,3.2,1.3c1.3-0.3,2.1-1.6,2.2-2.9c0.1-1.5-1-3-2.5-3c-1.5,0-2.8,1.2-3.1,2.6c-0.5,1.8,1.2,3,2.9,2.5
				c1.4-0.4,2.4-1.9,2.8-3.2c0.5-1.3-1.1-2.3-2.2-1.7c-0.7,0.4-1.3,1-1.7,1.7c0.7-0.2,1.4-0.4,2.1-0.5c0.1,0.2,0.2,0.4,0.3,0.6
				c-0.2-1.9-3-2-3,0c0,0.3,0,0.6,0,0.9c0,1.9,3,1.9,3,0c0-0.3,0-0.6,0-0.9c-1,0-2,0-3,0c0.1,0.9,0.4,1.6,1.2,2
				c0.7,0.4,1.7,0.2,2.1-0.5c0.2-0.3,0.4-0.5,0.7-0.7c-0.7-0.6-1.5-1.1-2.2-1.7c-0.1,0.3-0.3,0.6-0.4,0.8c-0.1,0.1-0.2,0.2-0.3,0.3
				c0,0.1,0.5,0.1,0.7,0.4c0.1,0.3,0.1,0.5,0.2,0.8c0,0,0.1-0.3,0.1-0.3c0,0,0-0.1,0.1-0.1c-0.1,0-0.1,0-0.2,0
				c-0.3-0.3-0.3-0.4-0.3-0.3c0,0,0,0.1,0,0.1c0,0-0.1,0.3-0.1,0.3c0-0.2,0.4-0.2,0.2,0c-0.1,0.1,0.3-0.6,0.3-0.6
				c0,0-0.2,0.1-0.1-0.2c0,0.2-0.1,0.5-0.2,0.7c-0.1,0.1-0.7,0.1-0.7,0.1c0.1,0.1,0.1,0.2,0.2,0.3c0,0,0-0.1,0-0.1
				c0,0,0.1-0.1,0.2-0.1c0.2-0.1,0.7-0.1,0.8-0.2c0.1-0.1,0.1,0.5,0-0.2c-0.1-0.6-0.1,0-0.1,0c-0.2,0.2-0.2,0.5-0.5,0.6
				c-0.2,0.1-0.5,0-0.7,0.1c0.2,0.4,0.3,0.4,0.2,0.2c0-0.1,0-0.3,0-0.4c0-0.1,0-0.2,0.1-0.4c0.1-0.3,0.3-0.9,0.6-1.2
				c0.2-0.2,0.4-0.1,0.8-0.1c0.2,0,0.2,0,0-0.1c0.1,0.1,0.2,0.2,0.3,0.2c0.2,0.1,0.5,0.3,0.7,0.3c-0.3-0.3-0.7-0.7-1-1
				c0,0,0,0.1,0,0.1C303.4,98.8,306.3,98,305.8,96.1L305.8,96.1z"/>
		</g>
	</g>
	<g>
		<g>
			<path class="st6" d="M301.9,102.3c0,0,0.1,0,0.1,0c-0.3-0.4-0.6-0.7-0.8-1.1c0,0.6-0.2,1.5-0.3,2.2c-0.2,0.7,0.4,1.5,1.1,1.4
				c1.5-0.1,2.5-0.4,3.1,1.4c0.2,0.7,0.4,1.4,0.2,2.2c-0.3,1.4-1.5,1.8-2.6,0.8c-1.1-1-2.7,0.6-1.6,1.6c2.6,2.5,6.4,0.9,6.5-2.7
				c0-1.6-0.4-3.6-1.6-4.8c-1.2-1.3-2.5-0.8-4-0.7c0.4,0.5,0.7,0.9,1.1,1.4c0.3-0.9,0.4-1.9,0.4-2.8c0-0.5-0.3-1-0.8-1.1
				c0,0-0.1,0-0.1,0C301.1,99.8,300.5,102,301.9,102.3L301.9,102.3z"/>
		</g>
	</g>
	<g>
		<g>
			<path class="st6" d="M299.4,43.7c0.8,0.4,1.5-0.5,2.2-0.7c1.8-0.6,2.9,1.5,3,3c0.1,1,1.6,1,1.5,0c-0.1-1.8-0.9-3.5-2.6-4.4
				c-1.5-0.8-2.9,0.1-4.1,0.8c0.3,0,0.5,0,0.8,0c0,0-0.1,0-0.1,0C299.3,41.9,298.6,43.2,299.4,43.7L299.4,43.7z"/>
		</g>
	</g>
	<g>
		<g>
			<path class="st6" d="M140,67.6C140,67.6,140,67.6,140,67.6c0.5,0.1,1,0.1,1.5,0.1c0-2.3,2.8-4.5,4.9-4.9
				c-0.3-0.2-0.6-0.3-0.9-0.5c0,0,0,0.1,0,0.1c0.2,0.9,1.6,0.5,1.4-0.4c0,0,0-0.1,0-0.1c-0.1-0.4-0.6-0.6-0.9-0.5
				C143.2,61.8,140,64.6,140,67.6c0,1,1.5,1,1.5,0.1c0,0,0,0,0-0.1C141.5,66.6,140,66.6,140,67.6L140,67.6z"/>
		</g>
	</g>
	<g id="anker_2_">
		<g>
			<g>
				<path class="st5" d="M148.2,75.9C148.2,75.8,148.2,75.8,148.2,75.9c-0.3,0-0.6,0.1-0.9,0.2c0.7,0.9,0.7,2.5,0.9,3.6
					c0.3,1.5,0.7,3,1,4.6c0.3-0.1,0.6-0.2,1-0.3c0-0.1-0.1-0.3-0.1-0.4c-0.1-0.6-1.1-0.4-1,0.3c0,0.1,0.1,0.3,0.1,0.4
					c0.1,0.6,1.1,0.4,1-0.3c-0.4-1.7-0.8-3.4-1.1-5.1c-0.2-1-0.2-2.4-0.9-3.3c-0.3-0.4-0.9-0.3-0.9,0.3c0,0,0,0,0,0.1
					C147.2,76.5,148.2,76.5,148.2,75.9L148.2,75.9z"/>
			</g>
		</g>
		<g>
			<g>
				<path class="st5" d="M145.5,80.1C145.5,80.1,145.5,80,145.5,80.1c-0.3,0-0.7,0.1-1,0.2c0.6,2.5,2.5,5,5.4,4.3
					c1.1-0.3,1.6-1.2,2-2.2c0.2-0.6,0.4-1.2,0.4-1.9c0-0.6-0.1-1.3,0-1.8c-0.2,0.1-0.3,0.2-0.5,0.4c-0.1,0-0.1,0-0.2-0.1
					c0.4,0.5,1.1-0.2,0.7-0.7c-0.2-0.2-0.3-0.2-0.5-0.2c-0.2,0-0.4,0.2-0.5,0.4c-0.5,1.4,0.3,3-0.8,4.4c-0.8,1.1-2.3,1.1-3.3,0.4
					C146.2,82.5,145.8,81.2,145.5,80.1c-0.2-0.7-1.1-0.4-1,0.2c0,0,0,0,0,0C144.7,81,145.7,80.7,145.5,80.1L145.5,80.1z"/>
			</g>
		</g>
		<g>
			<g>
				<path class="st5" d="M151,80c0.5-0.1,1.1,0,1.6,0c0.3,0,0.6-0.3,0.5-0.6c-0.2-0.7-0.5-1.3-1.3-1.3c-0.7,0.1-1.4,0.8-1.3,1.5
					c0,0.4,0.5,0.6,0.9,0.4c0.1-0.1,0.2-0.2,0.3-0.3c0.1-0.2,0.1-0.1,0.1-0.3c0-0.2,0.1-0.3,0.1-0.5c0.2-0.2-0.2-0.2-0.4-0.2
					c0,0.3,0,0.7,0,1c0.1,0,0.2,0,0.3,0.1c0-0.3,0-0.6,0-1c0,0-0.1,0-0.1,0c-0.6,0.1-0.4,1.1,0.3,1c0,0,0.1,0,0.1,0
					c0.5-0.1,0.5-0.9,0-1c-0.2,0-0.4-0.1-0.6-0.1c-0.7,0-0.6,0.9,0,1c0.2,0,0.6,0.2,0.9,0c0.3-0.2,0.4-0.6,0.1-0.9
					c-0.2-0.3-0.6-0.4-1-0.3c-0.4,0.1-0.7,0.5-1,0.8c0.3,0.1,0.6,0.2,0.9,0.4c0-0.2,0.2-0.6,0.5-0.5c0.1,0,0.2,0.4,0.2,0.5
					c0.2-0.2,0.3-0.4,0.5-0.6c-0.6,0-1.2,0-1.8,0.1C150.1,79.1,150.4,80.1,151,80L151,80z"/>
			</g>
		</g>
		<g>
			<g>
				<path class="st5" d="M144,80C144,80,143.9,80,144,80c-0.7,0.1-0.4,1.1,0.2,1c0.4-0.1,0.7-0.1,1.1-0.2c0.3-0.1,0.6-0.2,0.8-0.3
					c0.4-0.1,0.5-0.7,0.1-0.9c-0.3-0.1-0.5-0.5-0.9-0.6c-0.3-0.1-0.7-0.1-0.9,0c-0.6,0.2-0.8,1.1-0.6,1.6c0.1,0.4,0.7,0.5,0.9,0.1
					c0.1-0.2,0.1-0.3,0.3-0.4c0.1-0.1,0.1-0.1,0.2-0.1c0.2,0.1,0.2,0,0-0.2c0-0.1,0-0.3,0.1-0.4c0.1-0.1-0.1-0.1-0.2-0.1
					c-0.2,0-0.3,0-0.4,0c-0.3,0.1-0.5,0.5-0.3,0.7c0.2,0.3,0.4,0.3,0.7,0.4c0-0.3,0-0.6,0-1c-0.1,0-0.1,0-0.2,0
					c0.2,0.1,0.3,0.2,0.5,0.4c0,0,0,0.1,0,0.1c0.2-0.6-0.8-0.9-1-0.3c-0.1,0.1,0,0.3,0,0.4c0.1,0.2,0.3,0.4,0.5,0.4
					c0.2,0,0.3,0,0.5-0.1c0.5-0.1,0.5-0.8,0-1c-0.2,0-0.3-0.1-0.2,0.1c-0.1,0.2-0.2,0.5-0.3,0.7c0.2-0.1,0.4,0.1,0.6,0
					c0.2,0,0.3-0.1,0.4-0.2c0.3-0.2,0.3-0.7,0-0.9c-0.3-0.3-0.8-0.3-1.1-0.1c-0.5,0.2-0.7,0.5-0.9,1c0.3,0,0.6,0.1,0.9,0.1
					c-0.1-0.3,0-0.5,0.2-0.4c0.3,0.1,0.4,0.4,0.7,0.5c0-0.3,0.1-0.6,0.1-0.9c-0.3,0.1-0.5,0.2-0.8,0.3C144.7,79.9,144.3,79.9,144,80
					c0.1,0.3,0.2,0.6,0.2,1c0,0,0,0,0,0C144.9,80.8,144.6,79.8,144,80L144,80z"/>
			</g>
		</g>
		<g>
			<g>
				<path class="st5" d="M147.5,73.4c-1.7,0.4-1,3.8,0.6,3c0.7-0.4,0.8-1.6,0.3-2.1c-0.6-0.5-1.6-0.6-1.8,0.3
					c-0.2,0.8,0.2,1.8,1.2,1.7c0.8-0.1,1.2-1.1,0.8-1.8c-0.3-0.7-1.3-0.7-1.7-0.1c-0.4,0.6-0.4,1.8,0.6,1.7c0.6-0.1,1.3-1.2,0.6-1.6
					c-0.3-0.2-0.8,0-1,0.3c-0.3,0.4-0.1,0.8,0.2,1.1c0.3,0.2,0.9,0.1,0.9-0.4c0,0,0-0.1,0-0.1c-0.1-0.6-1.1-0.6-1,0c0,0,0,0.1,0,0.1
					c0.3-0.1,0.6-0.2,0.9-0.4c-0.2-0.1-0.8-0.3-0.7-0.1c0,0,0,0,0.1,0.1c0.1,0.1,0.2,0.1,0.2-0.1c0,0,0.1-0.1,0.1-0.1
					c0,0-0.1,0.3-0.1,0.3c-0.2,0.1-0.1-0.4-0.1-0.5c0,0-0.1,0.1-0.1,0.1c0,0,0.1,0,0.1,0.1c0,0,0.1,0.1,0.2,0.1c0,0,0,0.4,0,0.4
					c-0.1,0.1,0,0-0.1-0.1c-0.2-0.3-0.1-0.9,0.2-1C148.3,74.2,148.1,73.2,147.5,73.4L147.5,73.4z"/>
			</g>
		</g>
		<g>
			<g>
				<path class="st5" d="M147.1,78.6C147.1,78.6,147.1,78.6,147.1,78.6c-0.1,0.1-0.2,0.2-0.2,0.4c0.2-0.1,0.6-0.1,0.8-0.2
					c0.3-0.1,0.6-0.2,0.9-0.3c0.6-0.2,1.3-0.4,1.9-0.5c0.6-0.1,0.4-1.1-0.3-1c0,0-0.1,0-0.1,0c-0.6,0.1-0.4,1.1,0.3,1
					c0,0,0.1,0,0.1,0c-0.1-0.3-0.2-0.6-0.3-1c-0.7,0.2-1.4,0.4-2.1,0.6c-0.6,0.2-1.2,0.2-1.7,0.4c-0.2,0.1-0.3,0.3-0.2,0.4
					c0,0,0,0,0,0.1C146.1,79.3,147.1,79.3,147.1,78.6L147.1,78.6z"/>
			</g>
		</g>
	</g>
	<g>
		<path class="st10" d="M32.7,168.1c-0.3,0-0.7,0-1,0c-0.3,0-0.5,0-0.7,0c-1.1,0-2.4-0.1-3.8-0.5c-1.4-0.4-2.5-0.8-3.6-1.5
			c-0.2-0.1-0.3-0.2-0.5-0.3c-0.8-0.5-1.8-1-2.7-1.9l-0.1-0.1c-0.8-0.8-1.7-1.7-2.4-2.9c-0.1-0.2-0.2-0.4-0.4-0.6
			c-0.5-0.8-1.1-1.7-1.4-2.9c-0.3-1.2-0.2-2.3-0.1-3.2c0-0.3,0.1-0.6,0.1-0.8c0-1.3,0.3-2.4,0.6-3.3c0-0.2,0.1-0.3,0.1-0.5
			c0.3-1.2,0.9-2.2,1.4-3c0.1-0.2,0.2-0.3,0.3-0.5l0.2-0.3c0.5-0.9,1.1-1.9,2-2.8c0.9-0.9,1.8-1.6,3.1-2.3c0.9-0.5,2.1-1.1,3.5-1.5
			c0.2,0,0.4-0.1,0.7-0.2c0.8-0.3,1.9-0.7,3.2-0.7c1.3,0,2.4,0.5,3.2,0.8c0.2,0.1,0.5,0.2,0.6,0.2c1.4,0.4,2.5,0.8,3.5,1.5
			c1.1,0.6,2,1.4,3,2.4c0.1,0.1,0.3,0.2,0.5,0.3c0.7,0.4,1.8,1.1,2.5,2.4c0.7,1.2,0.8,2.4,0.8,3.2c0,0.2,0,0.6,0.1,0.7
			c0.3,1.1,0.6,2.3,0.5,3.8c0,1.4-0.2,2.6-0.5,3.9c-0.3,1.2-0.9,2.1-1.4,2.8c-0.1,0.2-0.3,0.4-0.4,0.6c-0.1,0.1-0.2,0.4-0.3,0.6
			c-0.3,0.8-0.7,1.8-1.7,2.7c-1,1-2.1,1.8-3.1,2.4c-1.1,0.6-2.2,0.9-3.2,1.1c-0.2,0-0.4,0.1-0.6,0.1
			C34.1,168.1,33.3,168.1,32.7,168.1z M22.5,155.7c0.1,0.2,0.4,0.7,0.6,1c0.2,0.3,0.4,0.6,0.6,1c0.3,0.5,0.8,1,1.3,1.5l0.1,0.1
			c0.3,0.3,0.7,0.5,1.3,0.8c0.2,0.1,0.4,0.2,0.6,0.3c0.5,0.3,1.1,0.6,2,0.8c0.6,0.2,1.1,0.2,2.1,0.2c0.4,0,0.7,0,1,0
			c0.4,0,0.9,0,1.1,0c0.2-0.1,0.5-0.1,0.7-0.2c0.6-0.1,1.1-0.3,1.4-0.4c0.5-0.3,1.1-0.7,1.7-1.3c0.1-0.1,0.2-0.4,0.3-0.6
			c0.2-0.4,0.4-0.9,0.7-1.5c0.2-0.3,0.4-0.7,0.6-0.9c0.2-0.3,0.5-0.7,0.5-0.9c0.2-0.7,0.3-1.4,0.3-2.2c0-0.6-0.1-1.2-0.3-2.1
			c-0.2-0.7-0.2-1.3-0.3-1.8c0-0.1,0-0.2,0-0.4c-0.1,0-0.2-0.1-0.2-0.1c-0.5-0.3-1.1-0.7-1.7-1.3c-0.6-0.6-1.1-1-1.6-1.3
			c-0.6-0.3-1.1-0.6-2-0.8c-0.6-0.2-1.1-0.4-1.6-0.6c-0.2-0.1-0.4-0.2-0.6-0.2c-0.2,0-0.5,0.2-0.8,0.3c-0.4,0.1-0.8,0.3-1.3,0.4
			c-0.6,0.1-1.1,0.4-1.9,0.9c-0.7,0.4-1.3,0.8-1.7,1.3c-0.3,0.3-0.6,0.8-1,1.4l-0.2,0.3c-0.1,0.2-0.2,0.4-0.4,0.6
			c-0.3,0.5-0.6,0.9-0.7,1.3c-0.1,0.2-0.1,0.4-0.2,0.6c-0.2,0.6-0.3,1.1-0.3,1.5c0,0.5,0,1-0.1,1.4C22.5,155,22.5,155.5,22.5,155.7z
			 M31.1,144.8L31.1,144.8L31.1,144.8z M31,144.8L31,144.8L31,144.8z"/>
	</g>
	<g>
		<g>
			<path class="st6" d="M39.5,152.9c-0.1,0-0.1,0-0.2,0c0,0.8,0,1.7,0,2.5c1.2,0,2.4,0.2,3.6-0.1c0.9-0.2,1.6-0.1,2.6-0.1
				c1.6,0,1.6-2.5,0-2.5c-0.9,0-1.7-0.2-2.6,0c-1.2,0.3-2.3,0.2-3.5,0.2c-1.6,0-1.6,2.5,0,2.5c0.1,0,0.1,0,0.2,0
				C41.1,155.5,41.1,153,39.5,152.9L39.5,152.9z"/>
		</g>
	</g>
	<g>
		<g>
			<path class="st6" d="M30,162.1c0,1,0.1,2-0.1,3c-0.1,0.9-0.2,1.8-0.2,2.7c0,1.6,2.5,1.6,2.5,0c0-0.9,0.1-1.8,0.2-2.7
				c0.1-1,0-2,0-3C32.6,160.5,30.1,160.5,30,162.1L30,162.1z"/>
		</g>
	</g>
	<g>
		<g>
			<path class="st6" d="M16.1,152.4c1,0.4,1.9,0.8,2.9,1.1c0.8,0.3,2.2,0.5,2.8,0.8c1.3,0.9,2.6-1.3,1.3-2.2c-0.8-0.5-2.1-0.7-3-0.9
				c-1.1-0.4-2.2-0.8-3.3-1.2C15.2,149.4,14.6,151.8,16.1,152.4L16.1,152.4z"/>
		</g>
	</g>
	<g>
		<g>
			<path class="st6" d="M32.8,137.2C32.7,137.2,32.7,137.2,32.8,137.2c-0.5,0.1-0.8,0.5-0.9,0.9c-0.3,1.2-0.7,2.3-1.1,3.4
				c-0.3,1-0.4,2.2-0.6,3.2c0.8-0.1,1.5-0.2,2.3-0.3c0,0,0-0.1-0.1-0.1c-0.8-1.4-2.9-0.2-2.2,1.3c0,0,0,0.1,0.1,0.1
				c0.5,0.9,2.1,0.8,2.3-0.3c0.2-1.1,0.3-2.2,0.6-3.2c0.4-1.2,0.8-2.3,1.1-3.4c-0.3,0.3-0.6,0.6-0.9,0.9c0,0,0,0,0.1,0
				C35,139.4,34.3,137,32.8,137.2L32.8,137.2z"/>
		</g>
	</g>
</g>
<g id="Purple-03">
	<g>
		
			<image style="overflow:visible;" width="212" height="233" xlink:href="BEB339C9D8421BE6.png"  transform="matrix(1 0 0 1 -77.3437 -911.4053)">
		</image>
	</g>
</g>
<g id="purple-04" class="st7">
	<g class="st8">
		
			<image style="overflow:visible;" width="215" height="155" xlink:href="BEB339C9D8421BFA.png"  transform="matrix(1 0 0 1 341.6562 -651.4053)">
		</image>
	</g>
</g>
<g id="Layer_28">
	<g>
		<g>
			<path class="st2" d="M-133-300.4c4.4,10.7,10.4,16.7,20.9,20.8c1.2,0.5,3.6,1.9,4.9,1.7c-0.9,0.1-4.8-2.8-1.6-0.5
				c1.1,0.8,2.2,1.4,3.3,2.1c9.6,6.5,19.3,12.4,30,16.9c10.1,4.3,21.3,6.7,31.9,9.4c10.7,2.7,21.4,5.6,32.3,7.5
				c12.6,2.2,25.4,3.8,38.1,5.3c11.3,1.3,22.6,0.5,33.9,0.4c23.6-0.2,47.2,0.3,70.7-1.5c24.8-1.8,49.1-5.3,73.2-11.4
				c11.3-2.9,22.7-4.6,34.2-6.7c11.2-2.1,21.8-5.9,32.8-8.8c22.7-6.1,46.1-10.3,69.2-14.5c5.6-1,11.4-2.1,17.1-2.7
				c-0.9,0.1-5.1,0.6-0.2,0.1c1.4-0.2,2.9-0.3,4.3-0.5c3.2-0.4,6.4-0.7,9.6-1c11.5-1,23-1.6,34.5-1.6c12.1-0.1,24.2-0.1,36.3-1
				c5.3-0.4,10.5-0.9,15.8-1c5.4-0.1,12.5-0.9,17.7,0.7c-0.8-0.2-5.3-1-0.5,0c1.4,0.3,2.7,0.5,4.1,0.8c2.8,0.6,5.5,1.2,8.2,1.9
				c5.5,1.3,10.9,2.8,16.4,4.2c12.1,3.1,24.1,5.8,36.4,7.4c6.2,0.8,12.5,1.3,18.6,2.4c-5.3-0.9,2.7,0.4,4.3,0.6
				c3.2,0.5,6.5,1.1,9.7,1.7c11.2,2.1,22.6,3.1,33.7,5.6c22.6,5.1,45.3,9.2,68,14.1c25,5.4,49.7,10.4,75.1,13.6
				c23.1,2.9,46.3,5,69.4,7.4c12,1.3,23.9,2.2,36,2.2c12.8,0,25.3-2.5,37.9-4.7c1.4-0.2,2.7-0.4,4.1-0.7c3.6-0.7-4.2-0.1-0.4,0.1
				c3.9,0.2,8.9-1.1,12.9-1.9c6-1.1,11.7-3,17.6-4.4c11.1-2.6,22.3-4.6,33.4-7.6c10.2-2.7,20.2-6.7,30.6-8.6c4.5-0.8,9-1.5,13.3-3
				c9.3-3.3,15.8-8.6,21.5-16.6c3.7-5.2-2.7,3,1.3-1.7c2.3-2.8,4.9-5.4,6.7-8.6c3.7-6.5,6.3-15.1,5.9-22.7c0,0.2-0.9,5.3-0.2,2.2
				c0.4-2.1,0.7-4.3,0.9-6.4c0.5-3.5,0.9-7,1.1-10.5c0.3-5.9,0.2-11.8,0.1-17.7c-0.2-11.6,0.3-23.2,0.1-34.7
				c-0.2-11.2-2.6-21.9-13.1-28.2c-8.2-5-16.8-4.2-25.8-2.6c-1.9,0.3-3.7,0.7-5.6,1c-1.4,0.2-2.7,0.4-4.1,0.6
				c-4.8,0.7-0.4,0.1,0.5-0.1c-5.8,1.3-12.2,1.5-18.1,2c-12.2,1-24.5,0.9-36.7,1c-11.9,0-23.8,0.1-35.6,1.2
				c-11.8,1.1-23.4,2.7-35.2,3.7c-12,1-24.1,1.5-36.2,0.9c-11.6-0.6-23.1-2-34.7-2.6c-24-1.3-47.9-1.8-71.9-2.1
				c-11.5-0.1-22.9,0.9-34.4,1.6c-11.4,0.7-23,0.7-34.4,0.7c-4.9,0-10.5,0.3-15.4-0.8c5.9,1.3-1.9-0.4-3.5-0.8
				c-3.3-0.7-6.7-1.5-10-2.2c-12.5-3-25-4.8-37.8-6.1c-11.6-1.2-23-2.2-34.7-2.3c-11.8-0.1-23.6,1.3-35.4,1.6
				c-23.9,0.7-47.7,0.8-71.6,3c-23.3,2.1-46.7,1.3-70,2.8c-48.5,3.2-97.1,6.9-145.7,8.7c-48.8,1.9-97.7,2.3-146.5,2.3
				c-24.4,0-48.9,0-73.3,0c-11.7,0-23.5-0.4-35.2,0.8c-12,1.3-23.8,2.3-35.8,2.5c-10.8,0.1-21.6,1-32.4,0.8c-1.3,0-2.6-0.1-3.9-0.1
				c-4.2-0.1,0.9,0.3,0.9,0.2c-0.3,0.4-2.8-0.9-3-0.7c0-0.1,6.1,2.6,1.8,0.7c-10.1-4.3-20.4-6.3-30.6-0.6
				c-12.5,6.9-16,21.8-15.3,34.9c0.1,1.1,0.1,2.1,0.2,3.2c-0.3-3.2,1.6,11.7,1.9,11.5c0.1-0.1-0.3-5.2-0.4-0.9c0,1.4,0,2.7,0.1,4.1
				c0.2,3.6,0.9,7.7,1.9,11.2c2.5,8.3,7.2,16.1,14.8,20.6c6.1,3.6,12.8,4.3,19.7,4.5c1,0,3.9,0.7,4.7,0.2c-0.6,0.4-7.2-1.4-2.1-0.1
				c0.9,0.2,1.9,0.4,2.8,0.6c2.5,0.6,5,1.3,7.4,2.1c0.8,0.3,4.8,1.4,1.4,0.4c-3.6-1.1,1.4,0.6,2.1,0.9
				c23.5,10.1,50.2,11.9,75.5,11.8c47.3-0.2,94.7,5,141.9-1.3c21-2.8,49.3-7.7,56.9-30.9c2.8-8.6-0.6-17.9-6.4-24.3
				c-8.8-9.6-21.1-12-33.4-13.4c-2-0.2-4-0.4-6-0.6c-0.9-0.1-3.5-0.5,0.6,0.1c4.7,0.7,0,0-1.2-0.2c-6.8-1-13.6-1.9-20.4-2.5
				c-21.7-2.1-43.6-3.1-65.4-3.2c-10.8-0.1-21.7,0-32.5-0.3c-5-0.1-10.1-0.3-15.1-0.7c-2.5-0.2-5-0.4-7.5-0.6
				c-1.4-0.1-2.9-0.3-4.3-0.4c-4.9-0.4,2.2,0.4-0.8-0.1c-21.1-3.5-46.4-13.6-66.6-1.3c-16.3,9.9-18.7,31.7-7.5,46.3
				c7.6,9.8,18.7,15.2,30.5,18.5c9.9,2.8,20.2,4.1,30.4,5.6c12.2,1.8,24.5,3.7,36.7,5c21.8,2.3,43.8,1,65.7,0
				c21.6-1,43.5,0.4,65-1.3c12-1,23.8-2.5,35.8-2.9c7.4-0.3,14.8-1,22.1-2.3c2.7-0.5,5.3-1.1,7.9-1.7c1.3-0.3,2.6-0.6,4-0.8
				c1.3-0.2,6.1-1.4,0.4-0.1c6.7-1.5,13.5-1.7,20.2-3.6c5.3-1.5,10.5-3.5,15.8-5.3c5.3-1.8,10.6-3.4,15.9-5.2
				c2.6-0.9,5.1-1.7,7.7-2.4c0.8-0.2,2.9-1,3.9-0.8c-0.9,0.1-1.8,0.3-2.8,0.4c1.3-0.1,2.6-0.1,3.8,0c13.1,0.5,25.6-11.9,25-25
				c-0.7-14.6-11-23.7-25-25c-13.3-1.3-25,5-37.5,7.9c-3.1,0.7-6.2,1.3-9.3,1.8c-2.6,0.4-4.2,0.8-0.6,0.1c-1.4,0.2-2.8,0.4-4.2,0.5
				c-8.1,1-16.3,1.9-24.4,3.2c-6.5,1.1-13,2.3-19.5,3.4c-3.3,0.6-6.5,1.1-9.8,1.6c-1.4,0.2-2.9,0.5-4.3,0.7c-0.6,0.1-6.6,1-3.2,0.5
				c3-0.4-1.6,0.2-2.1,0.3c-1.8,0.2-3.7,0.4-5.5,0.6c-3.3,0.3-6.6,0.6-9.9,0.9c-3.3,0.3-6.6,0.5-9.9,0.9c-2.9,0.3-6,0.5-8.8,1.1
				c-4.6,1,2.7,0.5,3.8,0.7c2,15.2,4,30.5,6,45.7c2.2-1.4,4.4-2.8,6.7-4c1.1-0.6,2.3-1.2,3.5-1.7c-3,1.2-3.3,1.3-0.7,0.3
				c4.8-1.6,9.7-3.2,14.7-4.4c5-1.2,10.1-2.1,15.2-3c2.6-0.4,5.1-0.9,7.7-1.3c2.2-0.4,6.1-1.3,1.7-0.3c5.3-1.3,11.5-1.1,16.9-1.4
				c5.8-0.4,11.5-0.4,17.3-0.6c12.6-0.2,25.1-1.8,37.5-4.1c22.2-4.2,44.4-8.3,66.8-11.5c2.5-0.4,5.1-0.7,7.6-1.1
				c-6.1,0.8,3.2-0.4,4.2-0.5c5.8-0.7,11.6-1.4,17.4-2c11.6-1.2,23.3-2.1,34.9-2.8c-4.2-15.5-8.4-31.1-12.6-46.6
				c0.9-0.5,5.6-1.7,2.2-1c-1.3,0.3-2.6,0.6-3.8,0.9c-2,0.4-4,0.7-6,1c-6.2,1.2-12.2,3-18.2,4.6c-12.4,3.3-25.4,3.7-37.6,7.5
				c-12.5,3.8-21.7,17.6-17.5,30.8c4.6,14.1,16.9,19.6,30.8,17.5c10.6-1.7,21-4.4,31.4-6.9c4.9-1.2,9.8-2.3,14.7-3.1
				c1.4-0.2,2.9-0.6,4.3-0.7c-1,0.1-5.1,0.6-0.1,0.1c2.9-0.3,5.8-0.6,8.8-0.9c11-1,21.9-1,32.9-1.1c11-0.1,22-1.3,33-1.7
				c21.7-0.9,43.5,0,65.2,0c22.1,0,44.3-0.5,66.4-0.2c21.2,0.3,42.4,3.3,63.7,4.2c5.5,0.2,11.1,0.5,16.6,0.9
				c2.6,0.2,5.1,0.4,7.7,0.7c1.4,0.2,3,0.3,4.4,0.5c-2.3-0.4-2.6-0.4-0.1,0c12.2,1.7,24.5,3.9,36.8,4.3c10.6,0.4,21.2-0.2,31.8-0.4
				c4.9-0.1,9.8-0.2,14.8,0c2.5,0.1,5.1,0.3,7.6,0.5c1.4,0.1,2.9,0.3,4.3,0.4c1.2,0.1,6.2,0.2,0.9,0.1c5,0.1,10.3,1.6,15.1,2.5
				c5.8,1,11.5,2.1,17.3,3c12,1.9,24.1,3.3,36.2,4.3c12.4,1,25,1.6,37.4,0.8c11.6-0.7,22.9-3.2,34.5-3.3c12.4-0.1,24.9,0,37.3,0
				c5.9,0,11.7,0,17.6-0.1c3.3,0,6.6-0.1,9.9,0c1.1,0,2.2,0.1,3.3,0.1c6.7,0.1-2.9,1-7.7-2.5c-3-3-6-6-9-9c-0.5-1.3-1-2.5-1.4-3.8
				c-0.4-4.5-0.6-5.3-0.5-2.5c-0.2,1.6-0.2,3.2-0.3,4.8c-0.1,1.4-0.3,2.9-0.3,4.3c-0.1,5.6,1.5-5.7,0.2-0.8
				c-0.1,0.4-0.3,0.8-0.4,1.3c0.6-2.6,1.9-4.9,3.9-6.7c-3.3,3.4,5.3-3.3,1-0.7c-4.3,2.6,6.2-1.4-0.2,0c-2.4,0.5-4.7,1.3-7,1.7
				c-1.8,0.4-5.4,2-0.4,0.1c-1.6,0.6-4.4,0.3-6.1,0.4c-4.1,0.1-8.2,0-12.3-0.3c-2.1-0.1-4.1-0.3-6.2-0.6c-1-0.1-7.9-0.9-1.6-0.1
				c-4.5-0.5-8.9-1.3-13.4-2c-36.9-5.5-74.2-7.8-111.4-10c-35.6-2.1-71.4-4.5-107-5c-17.5-0.2-35.1,0.1-52.6-1.1
				c-3.7-0.2-7.3-0.6-10.9-0.9c-7.2-0.6,5.1,1.1-1.9-0.2c-2.1-0.4-4.2-0.7-6.4-1.2c-9.2-1.8-18.2-4.2-27.4-5.8
				c-40.7-7-82.3-10.4-123.5-11.3c-10.5-0.2-21.7,7.9-24.1,18.4c-2.3,10,1.2,23.7,11.5,28.2c14.6,6.5,29.1,8.1,44.9,9.9
				c14.4,1.6,28.8,3,43.2,3.9c14.4,0.9,28.8,1.3,43.2,2.7c3.3,0.3,6.6,0.7,10,1.1c2.2,0.3,4.4,0.5,6.6,0.8c1,0.1,4.9,0.7,0,0
				c7.4,1,14.7,2.1,22.1,3.2c30.1,4.5,60.1,9.8,90.6,11.3c14.3,0.7,28.5,1.1,42.8,1.7c14.1,0.6,28.4,0,42.4,1.3
				c4.2,0.4,8.4,0.9,12.5,1.3c1.4,0.1,2.8,0.2,4.2,0.3c6,0.4-3.7-0.9,1.7,0.2c7.6,1.5,15.1,3.3,22.5,5.3c7.7,2,15.4,4,23,6.3
				c8.7,2.6,15.9,5.7,25.2,6.4c-2.2-16.4-4.4-32.7-6.6-49.1c-2.7,1-5.5,1.9-8.3,2.5c-1.3,0.3-2.6,0.5-3.8,0.8
				c-3.5,0.7,4.4-0.2,0.8-0.2c-5.9,0-11.5,0.3-17.4-0.4c-11.9-1.3-23.8-2.7-35.7-3.8c-12.2-1.1-24.5-1.8-36.7-3.2
				c-13-1.5-25.9-3.3-39-3.4c-13.1-0.1-25.6,11.6-25,25c0.6,13.6,11,24.9,25,25c13.1,0.1,26,1.8,39,3.4c12.9,1.5,25.9,2.2,38.9,3.4
				c25.1,2.4,51.1,8.3,75.6-0.9c11.8-4.4,19.7-14.4,17.9-27.4c-1.7-12.8-12-20.8-24.6-21.7c6,0.4,2.3,0.3,0.5-0.3
				c-1.5-0.5-2.9-1-4.3-1.6c-2.7-1-5.3-2-8.1-2.8c-7-2.1-14-3.9-21-5.8c-14.5-3.9-28.7-6.8-43.7-8.1c-28.1-2.4-56.4-2.7-84.6-3.7
				c-6.6-0.2-13.2-0.5-19.8-0.9c-7-0.4-14.7-0.1-21.6-1.7c5.3,1.2,0.7,0.1-0.8-0.1c-1.8-0.3-3.5-0.5-5.3-0.8
				c-2.8-0.5-5.6-0.9-8.4-1.4c-7.5-1.2-15-2.3-22.5-3.3c-29.8-4.2-59.4-8.7-89.5-10.3c-16.2-0.9-32.5-1.8-48.6-3.5
				c-7.2-0.8-14.3-1.7-21.5-2.4c-3.6-0.4,0-0.9,1,0.2c-0.4-0.4-4.9-0.8-5.5-1c-1.5-0.3-3-0.7-4.5-1.1c-1.5-0.4-7.8-3-1.6-0.2
				c-4.2,15.5-8.4,31.1-12.6,46.6c20.8,0.5,41.5,1.7,62.2,3.6c10.6,1,21.2,2.2,31.8,3.5c3,0.4-0.8-0.1-1.2-0.2
				c1.1,0.1,2.2,0.3,3.3,0.5c2.5,0.4,5.1,0.7,7.6,1.1c5.4,0.8,10.7,1.7,16,2.9c21.5,4.6,42.6,8,64.6,8.6c20.5,0.6,41,0.1,61.5,1.1
				c42.2,2,84.3,3.9,126.4,7.1c10.4,0.8,20.8,1.7,31.3,2.7c5.2,0.5,10.4,1,15.6,1.6c2,0.2,4.4,0.1,6.3,0.7c-0.8-0.2-5.4-0.8-0.5-0.1
				c1.4,0.2,2.7,0.4,4.1,0.6c22.3,3.3,44.2,6.8,66.6,2.1c11.8-2.5,22.6-7.6,30.1-17.2c7.1-9.2,7.7-19.5,8.6-30.7
				c1.2-14.9-5.1-30.7-20.7-35.1c-9.8-2.7-21.4-1.2-31.4-1.1c-20.1,0.2-40.8-1.4-60.8,0.9c-10.3,1.2-20.3,2.6-30.7,2.6
				c-10.3,0.1-20.6-0.5-30.9-1.4c-4.8-0.4-9.5-0.9-14.3-1.5c-1.1-0.1-2.2-0.2-3.3-0.4c4.9,1,1.2,0.2,0.1,0c-2.9-0.4-5.8-0.9-8.6-1.4
				c-11.6-2-23.1-4.1-34.7-5.6c-20-2.6-39.7-0.8-59.7-1.1c-4.9-0.1-9.8-0.3-14.7-0.9c-1.1-0.1-2.2-0.3-3.3-0.4
				c-3-0.3,0.8,0.1,1.2,0.2c-2.9-0.3-5.8-0.8-8.7-1.2c-11.7-1.7-23.4-3.2-35.2-3.8c-10.7-0.6-21.4-0.9-32.1-1.6
				c-9.8-0.7-19.6-2.3-29.4-2.7c-20.5-1-41.2-0.1-61.7-0.1c-20.7,0-41.4,0-62.1-0.2c-20.9-0.2-41.8,1.6-62.7,1.9
				c-21.8,0.3-43.6,2.9-64.8,8c-9.7,2.4-19.4,4.9-29.3,6.4c4.4,16.1,8.9,32.1,13.3,48.2c12.9-4,26.6-4.5,39.6-8
				c11.9-3.2,24.8-4.4,35.9-9.9c21.9-11.1,11.8-48-12.6-46.6c-37.9,2.1-75.7,7.3-113.1,13.9c-9,1.6-18,3.2-26.9,4.9
				c-4.2,0.8-9.3,2.5-13.7,2.4c0.3,0,4.3-0.5,1.4-0.2c-1.1,0.1-2.1,0.3-3.2,0.4c-2.5,0.3-5,0.4-7.5,0.5c-19.4,0.3-38.4,1.4-57.6,4.6
				c-19.6,3.3-39.1,7.6-56.1,18.5c-8.5,5.5-13.3,14.7-11.9,24.9c1.2,8.8,8.3,19.4,17.9,20.8c6.7,1,12.3,1.9,19,0.2
				c2.7-0.7,1.3-0.1-0.7-0.2c1.8,0.1,3.7-0.3,5.5-0.5c6.6-0.6,13.2-1,19.8-1.8c15.4-1.8,30.6-4.5,45.8-7.1c3.2-0.6,6.4-1.1,9.6-1.6
				c2.8-0.4,1.7-0.4-0.4,0c1.7-0.4,3.5-0.4,5.2-0.6c8.1-1,16.3-1.9,24.4-3.4c5.8-1,11.4-2.6,16.9-4.5c3.1-1,6.1-1.9,9.2-2.9
				c3.9-1.2-0.5,0.6-1.1-0.1c0.1,0.1,5.1,0.1,5.4,0.1c0-16.7,0-33.3,0-50c-19.1-0.7-37.9,9-55.8,14.5c-2.2,0.7-4.4,1.3-6.6,1.8
				c-1.4,0.3-8.3,2-2.2,0.6c-6.1,1.4-12.5,1.6-18.6,3c-2,0.4-4,0.8-5.9,1.3c-1.2,0.3-4.6,1.5,0.7,0.1c-1,0.3-2.1,0.2-3.1,0.3
				c-4.9,0.4-9.7,0.4-14.6,0.6c-9.5,0.4-19,1.9-28.5,2.7c-9.6,0.8-19.4,0.6-29,0.5c-20.1-0.2-40.1,1.2-60.1,1.8
				c-9.9,0.3-19.7,0.4-29.6-0.1c-4.4-0.2-9.9,0.2-14.1-1.2c0.3,0.1,4.2,0.6,1.2,0.2c-1.1-0.1-2.1-0.3-3.2-0.5
				c-2.9-0.4-5.7-0.8-8.6-1.2c-9.3-1.3-18.7-2.7-28-4.3c-4.1-0.7-8.2-1.5-12.2-2.6c-2.2-0.6-4.2-1.3-6.4-2.1c-2.8-1,1.6,0.5,1.6,0.7
				c0,0-2.1-1.2-2.3-1.3c-3.4-1.7,1.1,0.9,1.6,1.4c-0.9-0.8-1.6-2.4,0.1,0.4c1.6,2.6,3.4,6.9,3.4,10.1c-1.6,2.8-3.2,5.6-4.8,8.4
				c-0.9,5.6-3.8,8.9-8.6,10c0.4,0.1,1.4-0.3,1.8-0.4c2.6-0.5-3.9,0.4-3.5,0.5c2,0.2,4.3-0.3,6.3-0.2c1,0,2,0.2,3,0.2
				c3.1,0.1-1.6-0.2-1.6-0.2c1.3-0.6,5.9,1.2,7.1,1.5c4.7,1.1,9.3,2.3,14,3.1c20.7,3.7,41.6,4.3,62.5,4.4
				c21.9,0.1,43.7,0.8,65.6,2.1c5.3,0.3,10.7,0.7,16,1.3c1.4,0.1,2.8,0.3,4.3,0.4c0.6,0.1,5.1,0.8,2,0.2c-3-0.6,0.4,0.1,0.9,0.1
				c2.2,0.3,4.5,0.7,6.7,1c2.5,0.3,5,0.6,7.5,0.9c0.7,0.1,1.5,0.1,2.2,0.2c4.1,0.4,0.6,0.4-1.3-0.3c1.4,0.5,3.6,1,5.1,1.1
				c3,0.3-4.5-2.5-2.1-0.9c2.3,1.5-4.6-4.4-1.4-1c-2.1-8.1-4.3-16.2-6.4-24.3c-0.1,0.2,4.8-10.7,8.4-11.3c-0.4,0.1-1.7,0.9-2.1,1.2
				c-3.2,2,2-0.9,2.5-1c-0.7,0.1-1.6,0.6-2.3,0.8c-4.3,1.5-8.7,2.8-13.2,3.7c-2.6,0.6-5.3,1-8,1.4c-1.2,0.2-4.9,0.9,0.7-0.1
				c-1.4,0.2-2.8,0.4-4.1,0.5c-6.1,0.7-12.3,1.1-18.4,1.4c-24,1-48.3,1.1-72.3-0.2c-23.3-1.2-46.6-0.3-69.8-2
				c-4.8-0.4-0.4,0.1,0.4,0.1c-1.3-0.1-2.8-0.4-4.1-0.7c-2.8-0.5-5.5-1.1-8.3-1.8c-2.7-0.7-5.4-1.3-8.2-1.9c-1.3-0.3-2.7-0.7-4-0.9
				c-6.3-1.2,4,2-1.4-0.3c-11.7-4.9-23.4-8.9-36.2-9.4c-1.8-0.1-3.5-0.2-5.3-0.2c-0.2,0-0.4,0-0.6,0c4.2-0.2,7.7,1.4,10.5,4.8
				c2,1.4,3.9,2.8,5.9,4.2c1.4,3.6,1.8,4.5,1.2,2.7c-0.1-0.9-0.4-1.9-0.7-2.7c-0.9-2.7-0.1,5.4,0.4,1.7c0.6-4.3-0.4-9.4-1.4-13.5
				c-0.1-0.3-0.5-2.7-0.8-3.1c2.3,2.9,0.5,5.8,0.5,3.3c0.1-1.5-0.2-3.1-0.2-4.6c0-0.9,0.1-1.7,0.1-2.6c0-4-0.3,2.7-0.4,2.9
				c0.1-0.4,0.2-0.7,0.3-1.1c-8.2,4.9-16.5,9.8-24.7,14.6c-3.3-1.5-4.1-1.8-2.4-1.1c2.2,1,4.4,1.9,6.7,2.8c11.1,4.1,24,3,35.6,2.5
				c11.6-0.6,23.2-0.2,34.7-0.9c12.4-0.8,24.6-2.7,37.1-2.7c12.3-0.1,24.6,0,36.9,0c25.2,0,50.4,0.1,75.6,0
				c50-0.2,100-0.9,149.9-3.4c49.3-2.5,98.5-7.9,147.9-8.3c24.3-0.2,48.4-3.1,72.7-4.3c12.5-0.6,25-0.6,37.5-0.7
				c11.8-0.1,23.5-1.6,35.3-1.7c12-0.1,23.9,0.9,35.9,2.1c2.8,0.3,5.6,0.5,8.4,0.9c1.4,0.2,2.8,0.3,4.2,0.5c-5.3-0.8-1.4-0.2-0.4,0
				c6.2,1.1,12.2,2.6,18.3,4c23.7,5.4,48.4,5.5,72.6,4c12.2-0.8,24.2-1.7,36.5-1.6c12.2,0.2,24.3,0.2,36.5,0.5
				c12.2,0.4,24.3,1.1,36.5,1.7c12.4,0.7,24.7,2.3,37,2.6c24.4,0.7,48.3-3.8,72.6-5.3c24.8-1.5,49.7,0.3,74.4-2.5
				c7-0.8,14.1-1.7,21.1-2.7c2.8-0.4,5.5-0.8,8.2-1.3c0.8-0.2,1.7-0.3,2.5-0.5c0.2,0,0.4-0.1,0.6-0.1c-4.6,1.2-9,0.4-13.3-2.3
				c-3-3-6-6-9-9c0.2,0.5,0.5,0.9,0.7,1.4c-1.1-4.2-2.3-8.4-3.4-12.6c-0.3,19.8,1.2,40-0.3,59.7c-0.1,0.8,0.1,2.3-0.3,3.1
				c1.7-3.5,0.3-2.6,0-0.5c-0.6,3.3-1,6.7-1.4,10c-0.1,0.8-0.4,2.2-0.3,3c0,0.3,0.8-5.8,0.3-3.1c-0.5,2.7,1.6-2.9,1.8-3.6
				c1-2.5,0-0.1-0.8,0.8c-2.3,2.7-4.5,5.5-6.6,8.4c-1.2,1.6-2.9,2.7,1-1.1c-0.1,0.1,4.4-3,2-1.6c-2.2,1.3,2.2-1,2.3-1
				c-0.3-0.1-2.7,0.8-3.2,0.9c-2.3,0.5-4.6,0.9-6.8,1.3c-8.9,1.6-17.4,4.9-26.2,7.3c-9.6,2.7-19.2,5.1-28.9,7
				c-10.2,2-20.1,4.9-30.3,7c-2.9,0.6,1.1-0.1,1.4-0.2c-2.9,0.5-5.9,0.7-8.7,1.1c-2.1,0.3-4.1,0.6-6.2,1c-5.1,0.9-10.3,1.8-15.4,2.8
				c-3.7,0.7,4.2-0.2,0.4-0.1c-1,0-2.1,0.2-3.1,0.3c-2.5,0.2-5,0.2-7.6,0.2c-5.5,0-10.9-0.2-16.4-0.5c-10.2-0.6-20.3-1.7-30.4-2.9
				c-20.6-2.4-41.2-4.1-61.8-6.6c-3-0.4,0.9,0.1,1.2,0.2c-1.4-0.2-2.9-0.4-4.3-0.6c-2.2-0.3-4.3-0.6-6.5-1
				c-5.4-0.8-10.8-1.8-16.1-2.8c-10.3-1.9-20.5-4.4-30.7-6.7c-19.8-4.4-40-7.2-59.8-12c-19.4-4.7-39.4-7.9-59.2-10.7
				c-6.6-0.9-13.2-1.8-19.8-2.6c-1.4-0.2-8.6-0.7-3.2-0.4c-2.7-0.1-5.6-0.9-8.3-1.4c-9.7-1.8-19.2-4.4-28.7-6.9
				c-21-5.4-41.6-8.8-63.3-7.1c-20.8,1.7-41.6,0.9-62.3,2c-21.6,1.2-43.2,4-64.4,8.2c-20.6,4.1-41.5,7.7-61.8,13
				c-9.6,2.5-19,5.9-28.7,8.1c-9.5,2.1-19.2,3.2-28.8,5.2c-9.9,2.1-19.6,5-29.5,7.1c-2.5,0.5-5,1-7.5,1.4c-1.1,0.2-2.2,0.5-3.2,0.5
				c5-0.2,1.3-0.2,0.2,0c-5.4,0.7-10.8,1.3-16.2,1.8c-20.2,2-40.5,2.7-60.8,2.7c-19.8,0-40.3,1.9-59.9-0.7c-2.4-0.3-4.9-0.6-7.3-0.9
				c-1-0.1-2.1-0.3-3.1-0.4c-4.8-0.6-0.6,0,0.3,0c-5.3-0.5-10.6-1.5-15.7-2.5c-9.5-1.7-18.8-4.3-28.2-6.7c-8.6-2.2-17.4-4.3-25.8-7
				c-5.7-1.8,2.4,1.5-1.9-0.7c-2.1-1.1-4.2-2.1-6.3-3.3c-4.4-2.4-8.7-5.1-12.9-7.9c-3.1-2.1-6.1-4.3-9.5-6c-3-1.5-6.2-2.7-9.4-3.8
				c-0.7-0.2-1.9-0.8-2.6-0.8c1.9,0.1,5.8,2.6,6.7,3.6c2.1,3.7,4.3,7.4,6.4,11c-0.1-0.3-0.3-0.7-0.4-1c-2.6-6.3-5.4-11.4-11.5-14.9
				c-5.4-3.1-13.3-4.5-19.3-2.5C-127.1-327.4-138.3-313.4-133-300.4L-133-300.4z"/>
		</g>
	</g>
</g>
</svg>
