<?xml version="1.0" encoding="utf-8"?>
<!-- Generator: Adobe Illustrator 21.0.0, SVG Export Plug-In . SVG Version: 6.00 Build 0)  -->
<svg version="1.1" id="Layer_28" xmlns="http://www.w3.org/2000/svg" xmlns:xlink="http://www.w3.org/1999/xlink" x="0px" y="0px"
	 viewBox="0 0 1133.1 182.7" style="enable-background:new 0 0 1133.1 182.7;" xml:space="preserve">
<style type="text/css">
	.st0{fill:#CCFBF8;}
</style>
<g>
	<g>
		<path class="st0" d="M-17,107.1c4.4,10.7,10.4,16.7,20.9,20.8c1.2,0.5,3.6,1.9,4.9,1.7c-0.9,0.1-4.8-2.8-1.6-0.5
			c1.1,0.8,2.2,1.4,3.3,2.1c9.6,6.5,19.3,12.4,30,16.9c10.1,4.3,21.3,6.7,31.9,9.4c10.7,2.7,21.4,5.6,32.3,7.5
			c12.6,2.2,25.4,3.8,38.1,5.3c11.3,1.3,22.6,0.5,33.9,0.4c23.6-0.2,47.2,0.3,70.7-1.5c24.8-1.8,49.1-5.3,73.2-11.4
			c11.3-2.9,22.7-4.6,34.2-6.7c11.2-2.1,21.8-5.9,32.8-8.8c22.7-6.1,46.1-10.3,69.2-14.5c5.6-1,11.4-2.1,17.1-2.7
			c-0.9,0.1-5.1,0.6-0.2,0.1c1.4-0.2,2.9-0.3,4.3-0.5c3.2-0.4,6.4-0.7,9.6-1c11.5-1,23-1.6,34.5-1.6c12.1-0.1,24.2-0.1,36.3-1
			c5.3-0.4,10.5-0.9,15.8-1c5.4-0.1,12.5-0.9,17.7,0.7c-0.8-0.2-5.3-1-0.5,0c1.4,0.3,2.7,0.5,4.1,0.8c2.8,0.6,5.5,1.2,8.2,1.9
			c5.5,1.3,10.9,2.8,16.4,4.2c12.1,3.1,24.1,5.8,36.4,7.4c6.2,0.8,12.5,1.3,18.6,2.4c-5.3-0.9,2.7,0.4,4.3,0.6
			c3.2,0.5,6.5,1.1,9.7,1.7c11.2,2.1,22.6,3.1,33.7,5.6c22.6,5.1,45.3,9.2,68,14.1c25,5.4,49.7,10.4,75.1,13.6
			c23.1,2.9,46.3,5,69.4,7.4c12,1.3,23.9,2.2,36,2.2c12.8,0,25.3-2.5,37.9-4.7c1.4-0.2,2.7-0.4,4.1-0.7c3.6-0.7-4.2-0.1-0.4,0.1
			c3.9,0.2,8.9-1.1,12.9-1.9c6-1.1,11.7-3,17.6-4.4c11.1-2.6,22.3-4.6,33.4-7.6c10.2-2.7,20.2-6.7,30.6-8.6c4.5-0.8,9-1.5,13.3-3
			c9.3-3.3,15.8-8.6,21.5-16.6c3.7-5.2-2.7,3,1.3-1.7c2.3-2.8,4.9-5.4,6.7-8.6c3.7-6.5,6.3-15.1,5.9-22.7c0,0.2-0.9,5.3-0.2,2.2
			c0.4-2.1,0.7-4.3,0.9-6.4c0.5-3.5,0.9-7,1.1-10.5c0.3-5.9,0.2-11.8,0.1-17.7c-0.2-11.6,0.3-23.2,0.1-34.7
			c-0.2-11.2-2.6-21.9-13.1-28.2c-8.2-5-16.8-4.2-25.8-2.6c-1.9,0.3-3.7,0.7-5.6,1c-1.4,0.2-2.7,0.4-4.1,0.6
			c-4.8,0.7-0.4,0.1,0.5-0.1c-5.8,1.3-12.2,1.5-18.1,2c-12.2,1-24.5,0.9-36.7,1c-11.9,0-23.8,0.1-35.6,1.2
			c-11.8,1.1-23.4,2.7-35.2,3.7c-12,1-24.1,1.5-36.2,0.9c-11.6-0.6-23.1-2-34.7-2.6c-24-1.3-47.9-1.8-71.9-2.1
			c-11.5-0.1-22.9,0.9-34.4,1.6c-11.4,0.7-23,0.7-34.4,0.7c-4.9,0-10.5,0.3-15.4-0.8c5.9,1.3-1.9-0.4-3.5-0.8
			c-3.3-0.7-6.7-1.5-10-2.2c-12.5-3-25-4.8-37.8-6.1c-11.6-1.2-23-2.2-34.7-2.3c-11.8-0.1-23.6,1.3-35.4,1.6
			c-23.9,0.7-47.7,0.8-71.6,3c-23.3,2.1-46.7,1.3-70,2.8c-48.5,3.2-97.1,6.9-145.7,8.7c-48.8,1.9-97.7,2.3-146.5,2.3
			c-24.4,0-48.9,0-73.3,0c-11.7,0-23.5-0.4-35.2,0.8c-12,1.3-23.8,2.3-35.8,2.5c-10.8,0.1-21.6,1-32.4,0.8c-1.3,0-2.6-0.1-3.9-0.1
			c-4.2-0.1,0.9,0.3,0.9,0.2c-0.3,0.4-2.8-0.9-3-0.7c0-0.1,6.1,2.6,1.8,0.7c-10.1-4.3-20.4-6.3-30.6-0.6C-22,29-25.6,43.8-24.9,57
			c0.1,1.1,0.1,2.1,0.2,3.2c-0.3-3.2,1.6,11.7,1.9,11.5c0.1-0.1-0.3-5.2-0.4-0.9c0,1.4,0,2.7,0.1,4.1c0.2,3.6,0.9,7.7,1.9,11.2
			c2.5,8.3,7.2,16.1,14.8,20.6c6.1,3.6,12.8,4.3,19.7,4.5c1,0,3.9,0.7,4.7,0.2c-0.6,0.4-7.2-1.4-2.1-0.1c0.9,0.2,1.9,0.4,2.8,0.6
			c2.5,0.6,5,1.3,7.4,2.1c0.8,0.3,4.8,1.4,1.4,0.4c-3.6-1.1,1.4,0.6,2.1,0.9c23.5,10.1,50.2,11.9,75.5,11.8
			c47.3-0.2,94.7,5,141.9-1.3c21-2.8,49.3-7.7,56.9-30.9c2.8-8.6-0.6-17.9-6.4-24.3c-8.8-9.6-21.1-12-33.4-13.4c-2-0.2-4-0.4-6-0.6
			c-0.9-0.1-3.5-0.5,0.6,0.1c4.7,0.7,0,0-1.2-0.2c-6.8-1-13.6-1.9-20.4-2.5c-21.7-2.1-43.6-3.1-65.4-3.2c-10.8-0.1-21.7,0-32.5-0.3
			c-5-0.1-10.1-0.3-15.1-0.7c-2.5-0.2-5-0.4-7.5-0.6c-1.4-0.1-2.9-0.3-4.3-0.4c-4.9-0.4,2.2,0.4-0.8-0.1
			c-21.1-3.5-46.4-13.6-66.6-1.3c-16.3,9.9-18.7,31.7-7.5,46.3c7.6,9.8,18.7,15.2,30.5,18.5c9.9,2.8,20.2,4.1,30.4,5.6
			c12.2,1.8,24.5,3.7,36.7,5c21.8,2.3,43.8,1,65.7,0c21.6-1,43.5,0.4,65-1.3c12-1,23.8-2.5,35.8-2.9c7.4-0.3,14.8-1,22.1-2.3
			c2.7-0.5,5.3-1.1,7.9-1.7c1.3-0.3,2.6-0.6,4-0.8c1.3-0.2,6.1-1.4,0.4-0.1c6.7-1.5,13.5-1.7,20.2-3.6c5.3-1.5,10.5-3.5,15.8-5.3
			c5.3-1.8,10.6-3.4,15.9-5.2c2.6-0.9,5.1-1.7,7.7-2.4c0.8-0.2,2.9-1,3.9-0.8c-0.9,0.1-1.8,0.3-2.8,0.4c1.3-0.1,2.6-0.1,3.8,0
			c13.1,0.5,25.6-11.9,25-25c-0.7-14.6-11-23.7-25-25c-13.3-1.3-25,5-37.5,7.9c-3.1,0.7-6.2,1.3-9.3,1.8c-2.6,0.4-4.2,0.8-0.6,0.1
			c-1.4,0.2-2.8,0.4-4.2,0.5c-8.1,1-16.3,1.9-24.4,3.2c-6.5,1.1-13,2.3-19.5,3.4c-3.3,0.6-6.5,1.1-9.8,1.6c-1.4,0.2-2.9,0.5-4.3,0.7
			c-0.6,0.1-6.6,1-3.2,0.5c3-0.4-1.6,0.2-2.1,0.3c-1.8,0.2-3.7,0.4-5.5,0.6c-3.3,0.3-6.6,0.6-9.9,0.9c-3.3,0.3-6.6,0.5-9.9,0.9
			c-2.9,0.3-6,0.5-8.8,1.1c-4.6,1,2.7,0.5,3.8,0.7c2,15.2,4,30.5,6,45.7c2.2-1.4,4.4-2.8,6.7-4c1.1-0.6,2.3-1.2,3.5-1.7
			c-3,1.2-3.3,1.3-0.7,0.3c4.8-1.6,9.7-3.2,14.7-4.4c5-1.2,10.1-2.1,15.2-3c2.6-0.4,5.1-0.9,7.7-1.3c2.2-0.4,6.1-1.3,1.7-0.3
			c5.3-1.3,11.5-1.1,16.9-1.4c5.8-0.4,11.5-0.4,17.3-0.6c12.6-0.2,25.1-1.8,37.5-4.1C404,92,426.2,88,448.6,84.7
			c2.5-0.4,5.1-0.7,7.6-1.1c-6.1,0.8,3.2-0.4,4.2-0.5c5.8-0.7,11.6-1.4,17.4-2c11.6-1.2,23.3-2.1,34.9-2.8
			c-4.2-15.5-8.4-31.1-12.6-46.6c0.9-0.5,5.6-1.7,2.2-1c-1.3,0.3-2.6,0.6-3.8,0.9c-2,0.4-4,0.7-6,1c-6.2,1.2-12.2,3-18.2,4.6
			c-12.4,3.3-25.4,3.7-37.6,7.5c-12.5,3.8-21.7,17.6-17.5,30.8c4.6,14.1,16.9,19.6,30.8,17.5c10.6-1.7,21-4.4,31.4-6.9
			c4.9-1.2,9.8-2.3,14.7-3.1c1.4-0.2,2.9-0.6,4.3-0.7c-1,0.1-5.1,0.6-0.1,0.1c2.9-0.3,5.8-0.6,8.8-0.9c11-1,21.9-1,32.9-1.1
			c11-0.1,22-1.3,33-1.7c21.7-0.9,43.5,0,65.2,0c22.1,0,44.3-0.5,66.4-0.2c21.2,0.3,42.4,3.3,63.7,4.2c5.5,0.2,11.1,0.5,16.6,0.9
			c2.6,0.2,5.1,0.4,7.7,0.7c1.4,0.2,3,0.3,4.4,0.5c-2.3-0.4-2.6-0.4-0.1,0c12.2,1.7,24.5,3.9,36.8,4.3c10.6,0.4,21.2-0.2,31.8-0.4
			c4.9-0.1,9.8-0.2,14.8,0c2.5,0.1,5.1,0.3,7.6,0.5c1.4,0.1,2.9,0.3,4.3,0.4c1.2,0.1,6.2,0.2,0.9,0.1c5,0.1,10.3,1.6,15.1,2.5
			c5.8,1,11.5,2.1,17.3,3c12,1.9,24.1,3.3,36.2,4.3c12.4,1,25,1.6,37.4,0.8c11.6-0.7,22.9-3.2,34.5-3.3c12.4-0.1,24.9,0,37.3,0
			c5.9,0,11.7,0,17.6-0.1c3.3,0,6.6-0.1,9.9,0c1.1,0,2.2,0.1,3.3,0.1c6.7,0.1-2.9,1-7.7-2.5c-3-3-6-6-9-9c-0.5-1.3-1-2.5-1.4-3.8
			c-0.4-4.5-0.6-5.3-0.5-2.5c-0.2,1.6-0.2,3.2-0.3,4.8c-0.1,1.4-0.3,2.9-0.3,4.3c-0.1,5.6,1.5-5.7,0.2-0.8c-0.1,0.4-0.3,0.8-0.4,1.3
			c0.6-2.6,1.9-4.9,3.9-6.7c-3.3,3.4,5.3-3.3,1-0.7c-4.3,2.6,6.2-1.4-0.2,0c-2.4,0.5-4.7,1.3-7,1.7c-1.8,0.4-5.4,2-0.4,0.1
			c-1.6,0.6-4.4,0.3-6.1,0.4c-4.1,0.1-8.2,0-12.3-0.3c-2.1-0.1-4.1-0.3-6.2-0.6c-1-0.1-7.9-0.9-1.6-0.1c-4.5-0.5-8.9-1.3-13.3-2
			c-36.9-5.5-74.2-7.8-111.4-10c-35.6-2.1-71.4-4.5-107-5c-17.5-0.2-35.1,0.1-52.6-1.1c-3.7-0.2-7.3-0.6-10.9-0.9
			c-7.2-0.6,5.1,1.1-1.9-0.2c-2.1-0.4-4.2-0.7-6.4-1.2c-9.2-1.8-18.2-4.2-27.4-5.8c-40.7-7-82.3-10.4-123.5-11.3
			c-10.5-0.2-21.7,7.9-24.1,18.4c-2.3,10,1.2,23.7,11.5,28.2c14.6,6.5,29.1,8.1,44.9,9.9c14.4,1.6,28.8,3,43.2,3.9
			c14.4,0.9,28.8,1.3,43.2,2.7c3.3,0.3,6.6,0.7,10,1.1c2.2,0.3,4.4,0.5,6.6,0.8c1,0.1,4.9,0.7,0,0c7.4,1,14.7,2.1,22.1,3.2
			c30.1,4.5,60.1,9.8,90.6,11.3c14.3,0.7,28.5,1.1,42.8,1.7c14.1,0.6,28.4,0,42.4,1.3c4.2,0.4,8.4,0.9,12.5,1.3
			c1.4,0.1,2.8,0.2,4.2,0.3c6,0.4-3.7-0.9,1.7,0.2c7.6,1.5,15.1,3.3,22.5,5.3c7.7,2,15.4,4,23,6.3c8.7,2.6,15.9,5.7,25.2,6.4
			c-2.2-16.4-4.4-32.7-6.6-49.1c-2.7,1-5.5,1.9-8.3,2.5c-1.3,0.3-2.6,0.5-3.8,0.8c-3.5,0.7,4.4-0.2,0.8-0.2
			c-5.9,0-11.5,0.3-17.4-0.4c-11.9-1.3-23.8-2.7-35.7-3.8c-12.2-1.1-24.5-1.8-36.7-3.2c-13-1.5-25.9-3.3-39-3.4
			c-13.1-0.1-25.6,11.6-25,25c0.6,13.6,11,24.9,25,25c13.1,0.1,26,1.8,39,3.4c12.9,1.5,25.9,2.2,38.9,3.4
			c25.1,2.4,51.1,8.3,75.6-0.9c11.8-4.4,19.7-14.4,17.9-27.4c-1.7-12.8-12-20.8-24.6-21.7c6,0.4,2.3,0.3,0.5-0.3
			c-1.5-0.5-2.9-1-4.3-1.6c-2.7-1-5.3-2-8.1-2.8c-7-2.1-14-3.9-21-5.8c-14.5-3.9-28.7-6.8-43.7-8.1c-28.1-2.4-56.4-2.7-84.6-3.7
			c-6.6-0.2-13.2-0.5-19.8-0.9c-7-0.4-14.7-0.1-21.6-1.7c5.3,1.2,0.7,0.1-0.8-0.1c-1.8-0.3-3.5-0.5-5.3-0.8
			c-2.8-0.5-5.6-0.9-8.4-1.4c-7.5-1.2-15-2.3-22.5-3.3c-29.8-4.2-59.4-8.7-89.5-10.3c-16.2-0.9-32.5-1.8-48.6-3.5
			c-7.2-0.8-14.3-1.7-21.5-2.4c-3.6-0.4,0-0.9,1,0.2c-0.4-0.4-4.9-0.8-5.5-1c-1.5-0.3-3-0.7-4.5-1.1c-1.5-0.4-7.8-3-1.6-0.2
			c-4.2,15.5-8.4,31.1-12.6,46.6c20.8,0.5,41.5,1.7,62.2,3.6c10.6,1,21.2,2.2,31.8,3.5c3,0.4-0.8-0.1-1.2-0.2
			c1.1,0.1,2.2,0.3,3.3,0.5c2.5,0.4,5.1,0.7,7.6,1.1c5.4,0.8,10.7,1.7,16,2.9c21.5,4.6,42.6,8,64.6,8.6c20.5,0.6,41,0.1,61.5,1.1
			c42.2,2,84.3,3.9,126.4,7.1c10.4,0.8,20.8,1.7,31.3,2.7c5.2,0.5,10.4,1,15.6,1.6c2,0.2,4.4,0.1,6.3,0.7c-0.8-0.2-5.4-0.8-0.5-0.1
			c1.4,0.2,2.7,0.4,4.1,0.6c22.3,3.3,44.2,6.8,66.6,2.1c11.8-2.5,22.6-7.6,30.1-17.2c7.1-9.2,7.7-19.5,8.6-30.7
			c1.2-14.9-5.1-30.7-20.7-35.1c-9.8-2.7-21.4-1.2-31.4-1.1c-20.1,0.2-40.8-1.4-60.8,0.9c-10.3,1.2-20.3,2.6-30.7,2.6
			c-10.3,0.1-20.6-0.5-30.9-1.4c-4.8-0.4-9.5-0.9-14.3-1.5c-1.1-0.1-2.2-0.2-3.3-0.4c4.9,1,1.2,0.2,0.1,0c-2.9-0.4-5.8-0.9-8.6-1.4
			c-11.6-2-23.1-4.1-34.7-5.6c-20-2.6-39.7-0.8-59.7-1.1c-4.9-0.1-9.8-0.3-14.7-0.9c-1.1-0.1-2.2-0.3-3.3-0.4
			c-3-0.3,0.8,0.1,1.2,0.2c-2.9-0.3-5.8-0.8-8.7-1.2c-11.7-1.7-23.4-3.2-35.2-3.8c-10.7-0.6-21.4-0.9-32.1-1.6
			c-9.8-0.7-19.6-2.3-29.4-2.7c-20.5-1-41.2-0.1-61.7-0.1c-20.7,0-41.4,0-62.1-0.2c-20.9-0.2-41.8,1.6-62.7,1.9
			c-21.8,0.3-43.6,2.9-64.8,8c-9.7,2.4-19.4,4.9-29.3,6.4c4.4,16.1,8.9,32.1,13.3,48.2c12.9-4,26.6-4.5,39.6-8
			c11.9-3.2,24.8-4.4,35.9-9.9c21.9-11.1,11.8-48-12.6-46.6c-37.9,2.1-75.7,7.3-113.1,13.9c-9,1.6-18,3.2-26.9,4.9
			c-4.2,0.8-9.3,2.5-13.7,2.4c0.3,0,4.3-0.5,1.4-0.2c-1.1,0.1-2.1,0.3-3.2,0.4c-2.5,0.3-5,0.4-7.5,0.5c-19.4,0.3-38.4,1.4-57.6,4.6
			c-19.6,3.3-39.1,7.6-56.1,18.5c-8.5,5.5-13.3,14.7-11.9,24.9c1.2,8.8,8.3,19.4,17.9,20.8c6.7,1,12.3,1.9,19,0.2
			c2.7-0.7,1.3-0.1-0.7-0.2c1.8,0.1,3.7-0.3,5.5-0.5c6.6-0.6,13.2-1,19.8-1.8c15.4-1.8,30.6-4.5,45.8-7.1c3.2-0.6,6.4-1.1,9.6-1.6
			c2.8-0.4,1.7-0.4-0.4,0c1.7-0.4,3.5-0.4,5.2-0.6c8.1-1,16.3-1.9,24.4-3.4c5.8-1,11.4-2.6,16.9-4.5c3.1-1,6.1-1.9,9.2-2.9
			c3.9-1.2-0.5,0.6-1.1-0.1c0.1,0.1,5.1,0.1,5.4,0.1c0-16.7,0-33.3,0-50c-19.1-0.7-37.9,9-55.8,14.5c-2.2,0.7-4.4,1.3-6.6,1.8
			c-1.4,0.3-8.3,2-2.2,0.6c-6.1,1.4-12.5,1.6-18.6,3c-2,0.4-4,0.8-5.9,1.3c-1.2,0.3-4.6,1.5,0.7,0.1c-1,0.3-2.1,0.2-3.1,0.3
			c-4.9,0.4-9.7,0.4-14.6,0.6c-9.5,0.4-19,1.9-28.5,2.7c-9.6,0.8-19.4,0.6-29,0.5c-20.1-0.2-40.1,1.2-60.1,1.8
			c-9.9,0.3-19.7,0.4-29.6-0.1c-4.4-0.2-9.9,0.2-14.1-1.2c0.3,0.1,4.2,0.6,1.2,0.2c-1.1-0.1-2.1-0.3-3.2-0.5
			c-2.9-0.4-5.7-0.8-8.6-1.2c-9.3-1.3-18.7-2.7-28-4.3c-4.1-0.7-8.2-1.5-12.2-2.6c-2.2-0.6-4.2-1.3-6.4-2.1c-2.8-1,1.6,0.5,1.6,0.7
			c0,0-2.1-1.2-2.3-1.3c-3.4-1.7,1.1,0.9,1.6,1.4c-0.9-0.8-1.6-2.4,0.1,0.4c1.6,2.6,3.4,6.9,3.4,10.1c-1.6,2.8-3.2,5.6-4.8,8.4
			c-0.9,5.6-3.8,8.9-8.6,10c0.4,0.1,1.4-0.3,1.8-0.4c2.6-0.5-3.9,0.4-3.5,0.5c2,0.2,4.3-0.3,6.3-0.2c1,0,2,0.2,3,0.2
			c3.1,0.1-1.6-0.2-1.6-0.2c1.3-0.6,5.9,1.2,7.1,1.5c4.7,1.1,9.3,2.3,14,3.1c20.7,3.7,41.6,4.3,62.5,4.4c21.9,0.1,43.7,0.8,65.6,2.1
			c5.3,0.3,10.7,0.7,16,1.3c1.4,0.1,2.8,0.3,4.3,0.4c0.6,0.1,5.1,0.8,2,0.2c-3-0.6,0.4,0.1,0.9,0.1c2.2,0.3,4.5,0.7,6.7,1
			c2.5,0.3,5,0.6,7.5,0.9c0.7,0.1,1.5,0.1,2.2,0.2c4.1,0.4,0.6,0.4-1.3-0.3c1.4,0.5,3.6,1,5.1,1.1c3,0.3-4.5-2.5-2.1-0.9
			c2.3,1.5-4.6-4.4-1.4-1c-2.1-8.1-4.3-16.2-6.4-24.3c-0.1,0.2,4.8-10.7,8.4-11.3c-0.4,0.1-1.7,0.9-2.1,1.2c-3.2,2,2-0.9,2.5-1
			c-0.7,0.1-1.6,0.6-2.3,0.8c-4.3,1.5-8.7,2.8-13.2,3.7c-2.6,0.6-5.3,1-8,1.4c-1.2,0.2-4.9,0.9,0.7-0.1c-1.4,0.2-2.8,0.4-4.1,0.5
			c-6.1,0.7-12.3,1.1-18.4,1.4c-24,1-48.3,1.1-72.3-0.2c-23.3-1.2-46.6-0.3-69.8-2c-4.8-0.4-0.4,0.1,0.4,0.1
			c-1.3-0.1-2.8-0.4-4.1-0.7c-2.8-0.5-5.5-1.1-8.3-1.8c-2.7-0.7-5.4-1.3-8.2-1.9c-1.3-0.3-2.7-0.7-4-0.9c-6.3-1.2,4,2-1.4-0.3
			c-11.7-4.9-23.4-8.9-36.2-9.4c-1.8-0.1-3.5-0.2-5.3-0.2c-0.2,0-0.4,0-0.6,0c4.2-0.2,7.7,1.4,10.5,4.8c2,1.4,3.9,2.8,5.9,4.2
			c1.4,3.6,1.8,4.5,1.2,2.7C27,72,26.7,71,26.4,70.2c-0.9-2.7-0.1,5.4,0.4,1.7c0.6-4.3-0.4-9.4-1.4-13.5c-0.1-0.3-0.5-2.7-0.8-3.1
			c2.3,2.9,0.5,5.8,0.5,3.3c0.1-1.5-0.2-3.1-0.2-4.6c0-0.9,0.1-1.7,0.1-2.6c0-4-0.3,2.7-0.4,2.9c0.1-0.4,0.2-0.7,0.3-1.1
			C16.8,58.1,8.5,63,0.3,67.9C-3,66.4-3.8,66-2.1,66.8c2.2,1,4.4,1.9,6.7,2.8c11.1,4.1,24,3,35.6,2.5c11.6-0.6,23.2-0.2,34.7-0.9
			c12.4-0.8,24.6-2.7,37.1-2.7c12.3-0.1,24.6,0,36.9,0c25.2,0,50.4,0.1,75.6,0c50-0.2,100-0.9,149.9-3.4
			c49.3-2.5,98.5-7.9,147.9-8.3c24.3-0.2,48.4-3.1,72.7-4.3c12.5-0.6,25-0.6,37.5-0.7c11.8-0.1,23.5-1.6,35.3-1.7
			c12-0.1,23.9,0.9,35.9,2.1c2.8,0.3,5.6,0.5,8.4,0.9c1.4,0.2,2.8,0.3,4.2,0.5c-5.3-0.8-1.4-0.2-0.4,0c6.2,1.1,12.2,2.6,18.3,4
			c23.7,5.4,48.4,5.5,72.6,4c12.2-0.8,24.2-1.7,36.5-1.6c12.2,0.2,24.3,0.2,36.5,0.5c12.2,0.4,24.3,1.1,36.5,1.7
			c12.4,0.7,24.7,2.3,37,2.6c24.4,0.7,48.3-3.8,72.6-5.3c24.8-1.5,49.7,0.3,74.4-2.5c7-0.8,14.1-1.7,21.1-2.7
			c2.8-0.4,5.5-0.8,8.2-1.3c0.8-0.2,1.7-0.3,2.5-0.5c0.2,0,0.4-0.1,0.6-0.1c-4.6,1.2-9,0.4-13.3-2.3c-3-3-6-6-9-9
			c0.2,0.5,0.5,0.9,0.7,1.4c-1.1-4.2-2.3-8.4-3.4-12.6c-0.3,19.8,1.2,40-0.3,59.7c-0.1,0.8,0.1,2.3-0.3,3.1c1.7-3.5,0.3-2.6,0-0.5
			c-0.6,3.3-1,6.7-1.4,10c-0.1,0.8-0.4,2.2-0.3,3c0,0.3,0.8-5.8,0.3-3.1c-0.5,2.7,1.6-2.9,1.8-3.6c1-2.5,0-0.1-0.8,0.8
			c-2.3,2.7-4.5,5.5-6.6,8.4c-1.2,1.6-2.9,2.7,1-1.1c-0.1,0.1,4.4-3,2-1.6c-2.2,1.3,2.2-1,2.3-1c-0.3-0.1-2.7,0.8-3.2,0.9
			c-2.3,0.5-4.6,0.9-6.8,1.3c-8.9,1.6-17.4,4.9-26.2,7.3c-9.6,2.7-19.2,5.1-28.9,7c-10.2,2-20.1,4.9-30.3,7
			c-2.9,0.6,1.1-0.1,1.4-0.2c-2.9,0.5-5.9,0.7-8.7,1.1c-2.1,0.3-4.1,0.6-6.2,1c-5.1,0.9-10.3,1.8-15.4,2.8c-3.7,0.7,4.2-0.2,0.4-0.1
			c-1,0-2.1,0.2-3.1,0.3c-2.5,0.2-5.1,0.2-7.6,0.2c-5.5,0-10.9-0.2-16.4-0.5c-10.2-0.6-20.3-1.7-30.4-2.9
			c-20.6-2.4-41.2-4.1-61.8-6.6c-3-0.4,0.9,0.1,1.2,0.2c-1.4-0.2-2.9-0.4-4.3-0.6c-2.2-0.3-4.3-0.6-6.5-1
			c-5.4-0.8-10.8-1.8-16.1-2.8c-10.3-1.9-20.5-4.4-30.7-6.7c-19.8-4.4-40-7.2-59.8-12c-19.4-4.7-39.4-7.9-59.2-10.7
			c-6.6-0.9-13.2-1.8-19.8-2.6c-1.4-0.2-8.6-0.7-3.2-0.4c-2.7-0.1-5.6-0.9-8.3-1.4c-9.7-1.8-19.2-4.4-28.7-6.9
			c-21-5.4-41.6-8.8-63.3-7.1c-20.8,1.7-41.6,0.9-62.3,2c-21.6,1.2-43.2,4-64.4,8.2c-20.6,4.1-41.5,7.7-61.8,13
			c-9.6,2.5-19,5.9-28.7,8.1c-9.5,2.1-19.2,3.2-28.8,5.2c-9.9,2.1-19.6,5-29.5,7.1c-2.5,0.5-5,1-7.5,1.4c-1.1,0.2-2.2,0.5-3.2,0.5
			c5-0.2,1.3-0.2,0.2,0c-5.4,0.7-10.8,1.3-16.2,1.8c-20.2,2-40.5,2.7-60.8,2.7c-19.8,0-40.3,1.9-59.9-0.7c-2.4-0.3-4.9-0.6-7.3-0.9
			c-1-0.1-2.1-0.3-3.1-0.4c-4.8-0.6-0.6,0,0.3,0c-5.3-0.5-10.6-1.5-15.7-2.5c-9.5-1.7-18.8-4.3-28.2-6.7c-8.6-2.2-17.4-4.3-25.8-7
			c-5.7-1.8,2.4,1.5-1.9-0.7c-2.1-1.1-4.2-2.1-6.3-3.3c-4.4-2.4-8.7-5.1-12.9-7.9c-3.1-2.1-6.1-4.3-9.5-6c-3-1.5-6.2-2.7-9.4-3.8
			c-0.7-0.2-1.9-0.8-2.6-0.8c1.9,0.1,5.8,2.6,6.7,3.6c2.1,3.7,4.3,7.4,6.4,11c-0.1-0.3-0.3-0.7-0.4-1c-2.6-6.3-5.4-11.4-11.5-14.9
			c-5.4-3.1-13.3-4.5-19.3-2.5C-11.2,80.1-22.3,94.2-17,107.1L-17,107.1z"/>
	</g>
</g>
</svg>
