<?xml version="1.0" encoding="utf-8"?>
<!-- Generator: Adobe Illustrator 21.0.0, SVG Export Plug-In . SVG Version: 6.00 Build 0)  -->
<svg version="1.1" id="Layer_1" xmlns="http://www.w3.org/2000/svg" xmlns:xlink="http://www.w3.org/1999/xlink" x="0px" y="0px"
	 viewBox="0 0 28.9 47.9" style="enable-background:new 0 0 28.9 47.9;" xml:space="preserve">
<style type="text/css">
	.st0{fill:#525FE8;}
</style>
<g>
	<path class="st0" d="M14.1,0.5c-2.6,0-4.8,0.5-6.8,1.7c-2.1,1.2-3.8,2.8-5.1,5C1,9.3,0.4,11.5,0.4,14.1c0,2.1,0.6,4.4,1.4,7.1
		c0.7,2.2,0,5.2,1,7.5c1,2.3,3.3,4,4.3,6.2c1.2,2.4,2.5,4.6,3.5,6.5c2.1,3.8-0.2,6.2,3.5,6.1c3.7-0.1,1.2-2.4,3.2-6.2
		c1-1.9,3.1-3.7,4.2-6.1c1.1-2.2,1.5-4.8,2.4-7c1-2.4,1.3-4.9,2-7.1c0.9-2.8,2.9-5.1,2.9-7c0-2.6-0.4-5.5-1.6-7.6
		c-1.2-2.1-3.8-3.7-5.9-4.9C19.3,0.4,16.7,0.5,14.1,0.5z M14.1,21.7c-3.8,0-7.4-3.6-7.4-7.5c0-3.8,3.5-7.3,7.4-7.3
		c3.8,0,7.4,3.5,7.4,7.3C21.5,18.1,17.9,21.7,14.1,21.7z"/>
</g>
</svg>
