<?xml version="1.0" encoding="utf-8"?>
<!-- Generator: Adobe Illustrator 21.0.0, SVG Export Plug-In . SVG Version: 6.00 Build 0)  -->
<svg version="1.1" id="Layer_1" xmlns="http://www.w3.org/2000/svg" xmlns:xlink="http://www.w3.org/1999/xlink" x="0px" y="0px"
	 viewBox="0 0 29.4 47.3" style="enable-background:new 0 0 29.4 47.3;" xml:space="preserve">
<style type="text/css">
	.st0{fill:#525FE8;}
</style>
<g>
	<g>
		<g>
			<path class="st0" d="M20.4,20.3c-0.6-0.3-1.2-1.1-1.8-0.8c-1.3,0.7-2.5,1.3-4,1.3c-1.5,0-2.8-0.5-4.1-1.2
				c-0.6-0.3-1.2,0.4-1.8,0.7c-2.5,1.3-5.4,2.8-6.8,5.4C0.5,28.2,0,31.3,0,34.4c0,5.5,0.7,5.5,0.7,10.9c0,1.1,0.4,1.4,1.5,1.4
				c6.2,0,6.2,0,12.3,0s6.2,0.6,12.3,0.6c1.1,0,2.6-0.9,2.6-2c0-5.5-0.6-5.5-0.6-10.9c0-3.1-0.6-6.1-1.9-8.5
				C25.5,23.2,22.9,21.6,20.4,20.3z"/>
		</g>
		<g>
			<path class="st0" d="M14.6,0C9.6,0,6,4.2,6,9.2c0,3.1,1,6.1,3.4,7.7c1.4,1,3.3,1.1,5.1,1.1s3.8,0,5.2-1c2.4-1.6,3.5-4.7,3.5-7.8
				C23.3,4.2,19.6,0,14.6,0z"/>
		</g>
	</g>
</g>
</svg>
