<?xml version="1.0" encoding="utf-8"?>
<!-- Generator: Adobe Illustrator 21.0.0, SVG Export Plug-In . SVG Version: 6.00 Build 0)  -->
<svg version="1.1" id="Layer_1" xmlns="http://www.w3.org/2000/svg" xmlns:xlink="http://www.w3.org/1999/xlink" x="0px" y="0px"
	 viewBox="0 0 44.1 44.5" style="enable-background:new 0 0 44.1 44.5;" xml:space="preserve">
<style type="text/css">
	.st0{fill:#525FE8;}
	.st1{fill:none;stroke:#FFFFFF;stroke-miterlimit:10;}
	.st2{fill:#FFFFFF;}
</style>
<g>
	<path class="st0" d="M30.2,44c-8.1,0-8.1-0.5-16.2-0.5C6.7,43.6,1,37.3,1,30c0-8.1-0.5-8.1-0.5-16.2C0.5,6.5,6.7,1.3,14,1.3
		c8.1,0,8.1-0.8,16.2-0.8c7.3,0,13.4,6,13.4,13.3c0,8.1-0.7,8.1-0.7,16.2C42.9,37.3,37.5,44,30.2,44z"/>
	<path class="st1" d="M30.2,44c-8.1,0-8.1-0.5-16.2-0.5C6.7,43.6,1,37.3,1,30c0-8.1-0.5-8.1-0.5-16.2C0.5,6.5,6.7,1.3,14,1.3
		c8.1,0,8.1-0.8,16.2-0.8c7.3,0,13.4,6,13.4,13.3c0,8.1-0.7,8.1-0.7,16.2C42.9,37.3,37.5,44,30.2,44z"/>
</g>
<g>
	<g>
		<g>
			<path class="st2" d="M28.6,30.7c0,0.5-0.2,1-0.6,1.3c-0.3,0.3-0.8,0.5-1.2,0.8c-0.7,0.5-1.4,0.9-2.2,1.3
				c-0.8,0.4-1.6,0.9-2.4,1.1c-0.8,0.3-1.7,0.3-2.4,0.3c-0.7,0-1.2-0.2-1.7-0.4c-0.5-0.2-0.6-0.6-0.9-0.9c-0.3-0.3-0.5-0.6-0.6-1.1
				c-0.1-0.5-0.3-1-0.3-1.5c0-0.8-0.3-1.8-0.1-2.8c0.4-2.2,0.9-3.4,1-3.6c0.2-0.5,0.7-1.7,1.2-3.6c0.5-1.5,0.7-2.5,0.8-3
				c0.1-0.3,0.1-0.7,0.4-1c0.3-0.2,0.5-0.5,0.9-0.7c0.3-0.1,0.8,0,1.1-0.1c0.4-0.1,0.7,0,1,0c0.5,0,1.1-0.2,1.3,0
				c0.2,0.2,0.3,0.6,0.3,1c0,0.3-0.1,0.7-0.2,1.2c-0.1,0.5-0.5,1-0.7,1.7c-0.2,0.7-0.1,1.6-0.4,2.6c-0.3,1-0.6,1.9-0.7,2.6
				c-0.1,0.7-0.3,1.5-0.5,2.2s-0.4,1.3-0.4,1.9c0,0.6-0.1,1,0.1,1.4c0.1,0.3,0.4,0.7,0.8,0.7c0.5,0,1-0.3,1.6-0.6
				c0.6-0.3,1.1-0.8,1.7-1.2c0.6-0.5,1.1-1,1.6-1.5c1.1-1.3,1.2-0.9,1.4,0.1C28.6,29.7,28.6,29.7,28.6,30.7z M19.9,11.4
				c0-0.3,0-0.7,0.2-1.1c0.1-0.4,0.4-0.7,0.7-1.1c0.3-0.3,0.7-0.6,1.2-0.8C22.4,8.2,23,8,23.7,8c0.4,0,0.9,0.2,1.3,0.3
				c0.4,0.1,0.7,0.3,1,0.6c0.3,0.2,0.3,0.6,0.5,0.9c0.2,0.3,0.3,0.7,0.3,1.1c0,0.4,0,0.8-0.1,1.2c-0.1,0.4-0.1,1-0.4,1.3
				c-0.3,0.3-0.9,0.3-1.4,0.5c-0.5,0.2-1,0.2-1.6,0.2c-1.1,0-1.9-0.1-2.4-0.6C20.3,12.9,19.9,12.3,19.9,11.4z"/>
		</g>
	</g>
</g>
</svg>
