<?xml version="1.0" encoding="utf-8"?>
<!-- Generator: Adobe Illustrator 21.0.0, SVG Export Plug-In . SVG Version: 6.00 Build 0)  -->
<svg version="1.1" id="Layer_1" xmlns="http://www.w3.org/2000/svg" xmlns:xlink="http://www.w3.org/1999/xlink" x="0px" y="0px"
	 viewBox="0 0 36.2 34.3" style="enable-background:new 0 0 36.2 34.3;" xml:space="preserve">
<style type="text/css">
	.st0{fill:none;stroke:#FFFFFF;stroke-width:3;stroke-miterlimit:10;}
	.st1{fill:#FFFFFF;}
</style>
<g>
	<path class="st0" d="M20,4.7c-1.5-1.4-3.2-2.4-5-2.8c-1.9-0.4-4-0.6-5.9,0C7.4,2.4,5.6,3.7,4.3,5.2c-1.4,1.5-2.2,3.4-2.6,5.2
		c-0.4,1.9-0.2,3.9,0.4,5.8c0.6,1.8,1.7,3.4,3.2,4.7c1.5,1.4,3.2,2.3,5,2.7c1.9,0.4,3.8,0.2,5.7-0.4c1.8-0.6,3.5-1.5,4.8-3
		c1.4-1.5,2-3.3,2.4-5.1c0.4-1.9,1-4,0.4-5.8C23.1,7.5,21.5,6,20,4.7z"/>
</g>
<g>
	<path class="st1" d="M21.1,20.4c-0.6,0.7-1.3,1-2.1,1.5c1.8,2.3,1.9,2.2,4.1,4.1c2.2,2,2.4,1.7,4.6,3.6s2.2,2,4.3,3.9
		c1.1,1,2.4,1,3.4-0.1c1-1.1,1-2.6-0.1-3.6c-2.2-2-2.1-2.1-4.2-4c-2.2-2-2-2.2-4.2-4.1s-2-2.3-4.4-3.9
		C22.2,18.6,21.7,19.7,21.1,20.4z"/>
</g>
</svg>
