<?xml version="1.0" encoding="utf-8"?>
<!-- Generator: Adobe Illustrator 21.0.0, SVG Export Plug-In . SVG Version: 6.00 Build 0)  -->
<svg version="1.1" id="Layer_1" xmlns="http://www.w3.org/2000/svg" xmlns:xlink="http://www.w3.org/1999/xlink" x="0px" y="0px"
	 viewBox="0 0 44.1 51.5" style="enable-background:new 0 0 44.1 51.5;" xml:space="preserve">
<style type="text/css">
	.st0{fill:#FFFFFF;}
</style>
<g>
	<path class="st0" d="M41.3,9.8c-3.3-2.1-2.7-3.1-6-5.1s-3.3-2.2-6.6-4.2c-1.8-1.1-3.9,0.3-5,2.1c-2.2,3.5-3.2,2.8-5.4,6.3
		c-2.2,3.5-1.9,3.7-4.1,7.2c-2.2,3.5-2.5,3.3-4.7,6.8c-2.2,3.5-1.8,3.8-3.9,7.3s-3,3-5.2,6.5c-1.1,1.8,0.2,4.8,2,6
		c3.3,2.1,3.8,1.3,7.1,3.4c3.3,2.1,2.7,3,6.1,5.1c1.8,1.1,4.2,0.2,5.3-1.6c2.2-3.5,3.2-2.9,5.3-6.4c2.2-3.5,1.6-3.8,3.8-7.3
		c2.2-3.5,1.4-4,3.5-7.5c2.2-3.5,2.8-3.1,5-6.6c2.2-3.5,2.9-3.1,5.1-6.6C44.8,13.1,43.2,10.9,41.3,9.8z M35.9,12.8
		c-1.1,2.6-4.8,2.7-6.9,0.9c-1.3-1.1-1.5-2.6-0.9-4.2c1.1-2.6,4.3-4.1,6.4-2.2C35.9,8.4,36.6,11.2,35.9,12.8z"/>
</g>
</svg>
