<?xml version="1.0" encoding="utf-8"?>
<!-- Generator: Adobe Illustrator 21.0.0, SVG Export Plug-In . SVG Version: 6.00 Build 0)  -->
<svg version="1.1" id="Layer_1" xmlns="http://www.w3.org/2000/svg" xmlns:xlink="http://www.w3.org/1999/xlink" x="0px" y="0px"
	 viewBox="0 0 39.3 38.8" style="enable-background:new 0 0 39.3 38.8;" xml:space="preserve">
<style type="text/css">
	.st0{fill:none;stroke:#525FE8;stroke-width:3;stroke-miterlimit:10;}
	.st1{fill:none;stroke:#525FE8;stroke-width:3;stroke-linecap:round;stroke-miterlimit:10;}
</style>
<g>
	<g>
		<g>
			<path class="st0" d="M37.8,19.5c0-3.4,0.2-6.7-1.4-9.4c-1.6-2.8-4.7-4.3-7.5-5.9c-2.7-1.6-5.5-2.6-8.9-2.6c-3.4,0-6.1,1-8.9,2.6
				c-2.8,1.6-6.1,3-7.7,5.8c-1.6,2.7-2,6.2-2,9.5c0,3.4,1.1,6.5,2.7,9.2c1.6,2.8,4.2,4.6,7,6.2c2.7,1.6,5.5,2.4,8.9,2.4
				c3.4,0,6.6-0.1,9.3-1.7c2.8-1.6,4.6-4.4,6.2-7.2C37.2,25.7,37.8,22.8,37.8,19.5z"/>
		</g>
		<g>
			<g>
				<path class="st1" d="M19.4,8.9c0,6.3,0,6.3,0,12.6"/>
			</g>
			<g>
				<path class="st1" d="M19.5,21.4c5.5,0,5.5,0.1,11.1,0.1"/>
			</g>
		</g>
	</g>
</g>
</svg>
